<?xml version="1.0" encoding="UTF-8" standalone="no"?>
<!-- Created with Inkscape (http://www.inkscape.org/) -->

<svg
   version="1.1"
   id="svg2"
   width="371.77332"
   height="92.053329"
   viewBox="0 0 371.77332 92.053329"
   sodipodi:docname="SDSClogo-plusname-red.eps"
   xmlns:inkscape="http://www.inkscape.org/namespaces/inkscape"
   xmlns:sodipodi="http://sodipodi.sourceforge.net/DTD/sodipodi-0.dtd"
   xmlns="http://www.w3.org/2000/svg"
   xmlns:svg="http://www.w3.org/2000/svg">
  <defs
     id="defs6" />
  <sodipodi:namedview
     id="namedview4"
     pagecolor="#ffffff"
     bordercolor="#000000"
     borderopacity="0.25"
     inkscape:showpageshadow="2"
     inkscape:pageopacity="0.0"
     inkscape:pagecheckerboard="0"
     inkscape:deskcolor="#d1d1d1" />
  <g
     id="g8"
     inkscape:groupmode="layer"
     inkscape:label="ink_ext_XXXXXX"
     transform="matrix(1.3333333,0,0,-1.3333333,0,92.053333)">
    <g
       id="g10"
       transform="scale(0.1)">
      <path
         d="m 1013.95,340.32 c 0,-46.218 7.55,-53.183 54.76,-53.183 162.38,0 229.42,58.246 229.42,185.5 0,116.504 -50.04,186.769 -229.42,186.769 -47.21,0 -54.76,-3.801 -54.76,-53.183 z m -84.036,-13.3 v 292.503 c 0,47.489 -31.152,51.915 -82.141,51.915 v 12.664 h 220.937 c 156.72,0 322.89,-22.793 322.89,-211.465 0,-188.039 -174.67,-210.188 -322.89,-210.188 H 930.605 l -0.691,64.571"
         style="fill:#d51920;fill-opacity:1;fill-rule:nonzero;stroke:none"
         id="path12" />
      <path
         d="m 2162.37,284.598 c -206.76,0 -233.19,126 -233.19,207.668 0,65.214 12.27,173.468 164.27,173.468 117.08,0 154.84,-56.984 167.11,-92.433 h 23.62 l -8.51,99.406 c -41.54,7.586 -105.74,17.723 -181.27,17.723 -202.04,0 -258.69,-86.102 -258.69,-203.235 0,-134.843 90.63,-231.074 279.46,-231.074 54.82,0 99.14,3.516 138.06,10.539 v 26.336 c -21.73,-4.473 -50.25,-8.398 -90.86,-8.398"
         style="fill:#d51920;fill-opacity:1;fill-rule:nonzero;stroke:none"
         id="path14" />
      <path
         d="M 726.387,489.734 C 640.148,522.02 522.18,540.383 522.18,596.73 c 0,41.786 58.496,69.004 124.902,69.004 106.063,0 145.723,-39.238 154.648,-72.804 h 24.786 l -6.946,86.738 c -44.617,5.703 -87.234,10.762 -153.652,10.762 -124.902,0 -223.047,-31.024 -223.047,-107 0,-40.52 20.832,-63.301 64.434,-84.828 92.187,-44.961 256.75,-65.848 256.75,-134.215 0,-43.696 -56.504,-79.789 -143.731,-79.789 -9.23,0 -32.219,-0.489 -40.558,0.082 -42.754,4.492 -89.258,19.5 -125.996,40.496 v -47.254 c 35.996,-8.996 83.242,-20.246 158.613,-21.801 135.781,-2.812 244.855,37.981 244.855,118.391 0,60.136 -52.539,86.101 -130.851,115.222"
         style="fill:#d51920;fill-opacity:1;fill-rule:nonzero;stroke:none"
         id="path16" />
      <path
         d="m 1693.89,489.734 c -86.24,32.286 -204.21,50.649 -204.21,106.996 0,41.786 58.5,69.004 124.9,69.004 106.07,0 145.73,-39.238 154.65,-72.804 h 24.79 l -6.94,86.738 c -44.62,5.703 -87.24,10.762 -153.66,10.762 -124.9,0 -223.04,-31.024 -223.04,-107 0,-40.52 20.83,-63.301 64.43,-84.828 92.19,-44.961 256.75,-65.848 256.75,-134.215 0,-43.696 -56.51,-79.789 -143.73,-79.789 -9.23,0 -32.22,-0.489 -40.56,0.082 -42.75,4.492 -89.26,19.5 -126,40.496 v -47.254 c 36,-8.996 83.25,-20.246 158.62,-21.801 135.78,-2.812 244.85,37.981 244.85,118.391 0,60.136 -52.54,86.101 -130.85,115.222"
         style="fill:#d51920;fill-opacity:1;fill-rule:nonzero;stroke:none"
         id="path18" />
      <path
         d="m 65.3438,154.98 c -8.1016,5.938 -13.2344,8.106 -19.4454,8.106 -13.2265,0 -22.1367,-9.727 -22.1367,-23.762 0,-12.422 3.2422,-17.82 24.836,-39.4217 C 68.043,79.9219 73.9805,68.0352 73.9805,48.6016 73.9805,19.4414 57.2422,0 31.8594,0 21.332,0 13.5,2.70313 5.66797,8.64063 V 32.6758 C 15.1211,25.6523 21.332,23.2227 29.1602,23.2227 c 12.9609,0 21.0586,9.4531 21.0586,24.5703 0,12.9609 -4.5899,21.6015 -20.5157,36.9922 C 5.13281,109.082 0,118.262 0,138.777 c 0,28.352 15.6602,46.172 40.7734,46.172 9.9883,0 15.6563,-1.347 24.5704,-6.211 V 154.98"
         style="fill:#231f20;fill-opacity:1;fill-rule:nonzero;stroke:none"
         id="path20" />
      <path
         d="M 141.75,85.0508 C 138.781,101.25 135,129.063 133.109,147.422 130.68,123.66 127.98,106.648 122.852,79.3867 l -4.59,-23.2265 h 28.886 z M 142.832,182.52 181.441,2.42969 H 157.414 L 150.66,37.5273 H 115.02 L 108,2.42969 H 84.7813 L 123.93,182.52 h 18.902"
         style="fill:#231f20;fill-opacity:1;fill-rule:nonzero;stroke:none"
         id="path22" />
      <path
         d="m 219.238,182.52 24.297,-71.817 c 6.481,-19.7069 13.235,-43.7382 18.36,-65.0663 -2.157,15.6524 -2.969,22.3985 -3.778,29.6953 -0.812,10.5274 -1.89,30.781 -1.89,39.961 v 67.227 h 24.3 V 2.42969 h -22.679 l -27.27,81.00001 c -1.082,3.7773 -4.59,14.8516 -7.023,23.2183 -1.891,6.489 -2.157,7.297 -5.938,25.11 -0.543,1.894 -1.351,5.137 -2.164,9.18 1.086,-7.825 0.813,-7.012 1.356,-14.844 1.078,-16.203 0.535,-7.559 1.621,-27.0002 0.808,-9.7188 0.535,-8.3711 0.808,-18.086 L 220.586,2.42969 H 196.559 V 182.52 h 22.679"
         style="fill:#231f20;fill-opacity:1;fill-rule:nonzero;stroke:none"
         id="path24" />
      <path
         d="m 384.742,23.4961 c 29.16,0 37.262,14.3086 37.262,65.6055 0,55.6174 -8.102,72.9024 -34.563,72.9024 h -2.699 z m 5.399,159.0239 c 21.062,0 31.593,-4.317 41.043,-16.465 11.609,-15.125 16.199,-36.457 16.199,-75.3323 0,-38.875 -5.133,-60.4805 -17.281,-73.9844 C 420.383,6.48438 406.613,2.42969 380.152,2.42969 H 360.441 V 182.52 h 29.7"
         style="fill:#231f20;fill-opacity:1;fill-rule:nonzero;stroke:none"
         id="path26" />
      <path
         d="m 472.492,2.42969 h 24.3008 v 180.09 H 472.492 Z"
         style="fill:#231f20;fill-opacity:1;fill-rule:nonzero;stroke:none"
         id="path28" />
      <path
         d="M 590.211,182.52 V 162.004 H 549.98 v -57.238 h 35.641 V 84.2383 H 549.98 V 22.9492 h 40.231 V 2.42969 H 525.68 V 182.52 h 64.531"
         style="fill:#231f20;fill-opacity:1;fill-rule:nonzero;stroke:none"
         id="path30" />
      <path
         d="m 700.641,97.1953 c 0,-18.6211 0,-21.5898 -0.274,-29.4219 C 698.207,17.8203 687.141,0 657.711,0 c -34.563,0 -47.793,25.3828 -47.793,91.7969 0,38.8871 4.32,64.2661 12.691,76.6871 7.559,11.067 18.36,16.465 33.211,16.465 24.028,0 36.176,-10.261 43.469,-36.988 l -22.684,-9.445 c -3.777,18.894 -8.906,25.105 -20.515,25.105 -16.469,0 -21.059,-15.926 -21.059,-71.8241 0,-53.1836 4.856,-69.3867 21.328,-69.3867 15.657,0 21.332,11.875 21.332,45.625 v 8.6445 h -21.066 v 20.5156 h 44.016"
         style="fill:#231f20;fill-opacity:1;fill-rule:nonzero;stroke:none"
         id="path32" />
      <path
         d="m 751.668,148.77 c -2.973,-9.18 -4.051,-24.297 -4.051,-59.395 0,-51.3008 5.129,-66.9648 21.598,-66.9648 10.258,0 16.203,6.2109 18.633,19.9804 1.617,9.9922 2.699,25.6446 2.699,43.4688 0,36.4536 -1.891,58.3206 -5.672,66.6916 -3.238,7.019 -8.371,10.535 -15.391,10.535 -8.906,0 -14.308,-4.324 -17.816,-14.316 z M 815.922,90.9961 C 815.922,24.5703 803.508,0 770.293,0 c -35.641,0 -48.055,25.1055 -48.055,96.6602 0,63.9918 12.688,88.2888 46.164,88.2888 35.106,0 47.52,-24.844 47.52,-93.9529"
         style="fill:#231f20;fill-opacity:1;fill-rule:nonzero;stroke:none"
         id="path34" />
      <path
         d="m 952.27,154.98 c -8.098,5.938 -13.231,8.106 -19.442,8.106 -13.226,0 -22.14,-9.727 -22.14,-23.762 0,-12.422 3.242,-17.82 24.839,-39.4217 C 954.973,79.9219 960.91,68.0352 960.91,48.6016 960.91,19.4414 944.172,0 918.789,0 908.258,0 900.43,2.70313 892.598,8.64063 V 32.6758 c 9.453,-7.0235 15.66,-9.4531 23.492,-9.4531 12.957,0 21.058,9.4531 21.058,24.5703 0,12.9609 -4.589,21.6015 -20.515,36.9922 -24.57,24.2968 -29.703,33.4768 -29.703,53.9918 0,28.352 15.66,46.172 40.769,46.172 9.992,0 15.66,-1.347 24.571,-6.211 V 154.98"
         style="fill:#231f20;fill-opacity:1;fill-rule:nonzero;stroke:none"
         id="path36" />
      <path
         d="M 1006.27,182.52 V 55.3516 c 0,-10.5274 0.54,-16.7383 1.35,-20.793 1.62,-7.2852 7.83,-11.6094 16.2,-11.6094 14.58,0 17.82,5.3985 17.82,28.8985 V 182.52 h 23.76 V 51.8477 C 1065.4,13.5078 1054.6,0 1024.09,0 c -18.9,0 -31.324,6.48438 -37.262,19.9805 -3.242,7.0234 -4.324,16.1992 -4.324,35.3711 V 182.52 h 23.766"
         style="fill:#231f20;fill-opacity:1;fill-rule:nonzero;stroke:none"
         id="path38" />
      <path
         d="m 1120.48,103.145 c 17.28,0 24.3,8.093 24.3,27.8 0,21.067 -7.29,31.059 -22.41,31.059 h -4.05 v -58.859 z m 5.4,79.375 c 30.51,0 44.01,-14.844 44.01,-48.332 0,-38.6021 -13.23,-51.8364 -51.57,-51.8364 V 2.42969 h -24.3 V 182.52 h 31.86"
         style="fill:#231f20;fill-opacity:1;fill-rule:nonzero;stroke:none"
         id="path40" />
      <path
         d="m 1254.4,182.52 v -20.516 h -40.23 v -57.238 h 35.64 V 84.2383 h -35.64 V 22.9492 h 40.23 V 2.42969 h -64.53 V 182.52 h 64.53"
         style="fill:#231f20;fill-opacity:1;fill-rule:nonzero;stroke:none"
         id="path42" />
      <path
         d="m 1301.92,102.598 c 18.9,0.273 25.92,7.832 25.92,28.347 0,22.95 -5.94,31.594 -22.14,31.594 h -3.78 z m 7.56,79.922 c 28.35,0 41.85,-14.844 41.85,-46.172 0,-26.184 -8.91,-42.6566 -24.84,-46.4378 l 32.94,-87.48051 h -24.57 L 1301.92,90.4492 V 2.42969 h -24.3 V 182.52 h 31.86"
         style="fill:#231f20;fill-opacity:1;fill-rule:nonzero;stroke:none"
         id="path44" />
      <path
         d="m 1447.45,157.684 c -7.03,3.507 -10.8,4.589 -15.39,4.589 -22.95,0 -33.22,-22.144 -33.22,-71.2769 0,-45.6367 11.08,-67.5 34.29,-67.5 5.14,0 8.37,0.8008 14.32,3.7773 V 5.12891 C 1440.69,1.08594 1436.37,0 1428.28,0 c -37,0 -55.09,29.4336 -55.09,89.375 0,64.52 17.55,95.574 54,95.574 8.1,0 12.42,-1.082 20.26,-5.398 v -21.867"
         style="fill:#231f20;fill-opacity:1;fill-rule:nonzero;stroke:none"
         id="path46" />
      <path
         d="m 1493.37,148.77 c -2.96,-9.18 -4.05,-24.297 -4.05,-59.395 0,-51.3008 5.13,-66.9648 21.6,-66.9648 10.26,0 16.2,6.2109 18.64,19.9804 1.61,9.9922 2.69,25.6446 2.69,43.4688 0,36.4536 -1.89,58.3206 -5.67,66.6916 -3.24,7.019 -8.37,10.535 -15.39,10.535 -8.91,0 -14.31,-4.324 -17.82,-14.316 z m 64.26,-57.7739 C 1557.63,24.5703 1545.21,0 1512,0 c -35.64,0 -48.06,25.1055 -48.06,96.6602 0,63.9918 12.7,88.2888 46.17,88.2888 35.1,0 47.52,-24.844 47.52,-93.9529"
         style="fill:#231f20;fill-opacity:1;fill-rule:nonzero;stroke:none"
         id="path48" />
      <path
         d="m 1612.17,182.52 15.66,-73.438 c 3.24,-14.8554 3.51,-15.3906 5.67,-29.9726 2.7,-15.6641 3.23,-19.7071 4.04,-26.7266 0.55,4.8633 0.28,2.9688 1.63,11.6094 2.96,18.0859 1.62,9.4453 4.32,26.7305 1.62,8.9062 0.81,5.125 1.89,11.0623 l 1.08,4.328 0.81,4.317 14.03,72.09 h 21.07 L 1699.11,2.42969 h -23.49 l -4.05,61.01561 c 0,0.8125 -0.28,6.4844 -0.54,13.7735 -1.35,32.1362 -0.81,16.746 -1.62,46.1682 0,0.273 0,1.625 -0.27,2.968 -1.89,-12.144 -2.7,-17.808 -3.51,-22.675 -4.05,-21.6019 -2.71,-14.305 -4.33,-22.6722 L 1646.19,2.42969 h -16.2 l -14.31,68.03911 c -3.24,15.664 -7.3,38.8862 -9.45,55.8862 L 1599.2,2.42969 h -22.67 L 1591.38,182.52 h 20.79"
         style="fill:#231f20;fill-opacity:1;fill-rule:nonzero;stroke:none"
         id="path50" />
      <path
         d="m 1746.36,103.145 c 17.28,0 24.3,8.093 24.3,27.8 0,21.067 -7.3,31.059 -22.41,31.059 h -4.06 v -58.859 z m 5.39,79.375 c 30.52,0 44.02,-14.844 44.02,-48.332 0,-38.6021 -13.24,-51.8364 -51.58,-51.8364 V 2.42969 H 1719.9 V 182.52 h 31.85"
         style="fill:#231f20;fill-opacity:1;fill-rule:nonzero;stroke:none"
         id="path52" />
      <path
         d="M 1839.51,182.52 V 55.3516 c 0,-10.5274 0.53,-16.7383 1.34,-20.793 1.63,-7.2852 7.84,-11.6094 16.21,-11.6094 14.58,0 17.82,5.3985 17.82,28.8985 V 182.52 h 23.76 V 51.8477 C 1898.64,13.5078 1887.84,0 1857.33,0 c -18.91,0 -31.32,6.48438 -37.27,19.9805 -3.23,7.0234 -4.31,16.1992 -4.31,35.3711 V 182.52 h 23.76"
         style="fill:#231f20;fill-opacity:1;fill-rule:nonzero;stroke:none"
         id="path54" />
      <path
         d="m 1992.06,182.52 v -21.329 h -27.27 V 2.42969 h -23.76 V 161.191 h -28.09 v 21.329 h 79.12"
         style="fill:#231f20;fill-opacity:1;fill-rule:nonzero;stroke:none"
         id="path56" />
      <path
         d="m 2070.89,182.52 v -20.516 h -40.23 v -57.238 h 35.64 V 84.2383 h -35.64 V 22.9492 h 40.23 V 2.42969 h -64.53 V 182.52 h 64.53"
         style="fill:#231f20;fill-opacity:1;fill-rule:nonzero;stroke:none"
         id="path58" />
      <path
         d="m 2118.41,102.598 c 18.9,0.273 25.92,7.832 25.92,28.347 0,22.95 -5.94,31.594 -22.14,31.594 h -3.78 z m 7.56,79.922 c 28.35,0 41.85,-14.844 41.85,-46.172 0,-26.184 -8.91,-42.6566 -24.84,-46.4378 l 32.94,-87.48051 h -24.57 L 2118.41,90.4492 V 2.42969 h -24.29 V 182.52 h 31.85"
         style="fill:#231f20;fill-opacity:1;fill-rule:nonzero;stroke:none"
         id="path60" />
      <path
         d="m 2317.93,157.684 c -7.02,3.507 -10.8,4.589 -15.39,4.589 -22.95,0 -33.21,-22.144 -33.21,-71.2769 0,-45.6367 11.08,-67.5 34.3,-67.5 5.13,0 8.37,0.8008 14.3,3.7773 V 5.12891 C 2311.19,1.08594 2306.87,0 2298.76,0 c -36.99,0 -55.07,29.4336 -55.07,89.375 0,64.52 17.55,95.574 54,95.574 8.1,0 12.41,-1.082 20.24,-5.398 v -21.867"
         style="fill:#231f20;fill-opacity:1;fill-rule:nonzero;stroke:none"
         id="path62" />
      <path
         d="m 2403.79,182.52 v -20.516 h -40.23 v -57.238 h 35.64 V 84.2383 h -35.64 V 22.9492 h 40.23 V 2.42969 h -64.53 V 182.52 h 64.53"
         style="fill:#231f20;fill-opacity:1;fill-rule:nonzero;stroke:none"
         id="path64" />
      <path
         d="m 2449.69,182.52 24.3,-71.817 c 6.48,-19.7069 13.23,-43.7382 18.36,-65.0663 -2.16,15.6524 -2.97,22.3985 -3.78,29.6953 -0.81,10.5274 -1.89,30.781 -1.89,39.961 v 67.227 h 24.3 V 2.42969 h -22.67 l -27.28,81.00001 c -1.07,3.7773 -4.59,14.8516 -7.02,23.2183 -1.89,6.489 -2.16,7.297 -5.94,25.11 -0.54,1.894 -1.35,5.137 -2.16,9.18 1.09,-7.825 0.81,-7.012 1.35,-14.844 1.08,-16.203 0.55,-7.559 1.62,-27.0002 0.81,-9.7188 0.54,-8.3711 0.81,-18.086 l 1.35,-78.57811 h -24.02 V 182.52 h 22.67"
         style="fill:#231f20;fill-opacity:1;fill-rule:nonzero;stroke:none"
         id="path66" />
      <path
         d="m 2604.4,182.52 v -21.329 h -27.27 V 2.42969 h -23.76 V 161.191 h -28.08 v 21.329 h 79.11"
         style="fill:#231f20;fill-opacity:1;fill-rule:nonzero;stroke:none"
         id="path68" />
      <path
         d="M 2683.24,182.52 V 162.004 H 2643 v -57.238 h 35.65 V 84.2383 H 2643 V 22.9492 h 40.24 V 2.42969 h -64.53 V 182.52 h 64.53"
         style="fill:#231f20;fill-opacity:1;fill-rule:nonzero;stroke:none"
         id="path70" />
      <path
         d="m 2730.76,102.598 c 18.89,0.273 25.92,7.832 25.92,28.347 0,22.95 -5.94,31.594 -22.14,31.594 h -3.78 z m 7.56,79.922 c 28.34,0 41.85,-14.844 41.85,-46.172 0,-26.184 -8.91,-42.6566 -24.84,-46.4378 L 2788.27,2.42969 H 2763.7 L 2730.76,90.4492 V 2.42969 h -24.3 V 182.52 h 31.86"
         style="fill:#231f20;fill-opacity:1;fill-rule:nonzero;stroke:none"
         id="path72" />
    </g>
  </g>
</svg>
