<svg xmlns="http://www.w3.org/2000/svg" xmlns:xlink="http://www.w3.org/1999/xlink" width="300" zoomAndPan="magnify" viewBox="0 0 224.87999 74.999997" height="100" preserveAspectRatio="xMidYMid meet" version="1.0"><defs><g/><clipPath id="9d72c8e1ab"><path d="M 87.804688 13.429688 L 132 13.429688 L 132 60.65625 L 87.804688 60.65625 Z M 87.804688 13.429688 " clip-rule="nonzero"/></clipPath><clipPath id="73f0c45b09"><path d="M 113 33 L 137.277344 33 L 137.277344 41 L 113 41 Z M 113 33 " clip-rule="nonzero"/></clipPath></defs><g fill="#000000" fill-opacity="1"><g transform="translate(1.800251, 60.923419)"><g><path d="M 34.4375 -27.703125 L 34.4375 -44.40625 L 43.1875 -44.40625 L 43.1875 0 L 34.4375 0 L 34.4375 -20.234375 L 14.546875 -20.234375 L 14.546875 0 L 5.765625 0 L 5.765625 -44.40625 L 14.546875 -44.40625 L 14.546875 -27.703125 Z M 34.4375 -27.703125 "/></g></g></g><g fill="#000000" fill-opacity="1"><g transform="translate(45.123427, 60.923419)"><g><path d="M 22.9375 -44.40625 C 26.113281 -44.40625 28.828125 -43.820312 31.078125 -42.65625 C 33.335938 -41.488281 35.046875 -39.859375 36.203125 -37.765625 C 37.359375 -35.671875 37.9375 -33.238281 37.9375 -30.46875 C 37.9375 -27.6875 37.359375 -25.253906 36.203125 -23.171875 C 35.046875 -21.085938 33.335938 -19.460938 31.078125 -18.296875 C 28.828125 -17.128906 26.113281 -16.546875 22.9375 -16.546875 L 14.546875 -16.546875 L 14.546875 0 L 5.765625 0 L 5.765625 -44.40625 Z M 21.78125 -23.515625 C 26.65625 -23.515625 29.09375 -25.832031 29.09375 -30.46875 C 29.09375 -35.125 26.65625 -37.453125 21.78125 -37.453125 L 14.546875 -37.453125 L 14.546875 -23.515625 Z M 21.78125 -23.515625 "/></g></g></g><g fill="#000000" fill-opacity="1"><g transform="translate(80.03975, 60.923419)"><g/></g></g><g fill="#000000" fill-opacity="1"><g transform="translate(89.047247, 60.923419)"><g/></g></g><g fill="#000000" fill-opacity="1"><g transform="translate(98.054744, 60.923419)"><g/></g></g><g fill="#000000" fill-opacity="1"><g transform="translate(107.062242, 60.923419)"><g/></g></g><g fill="#000000" fill-opacity="1"><g transform="translate(116.069738, 60.923419)"><g/></g></g><g fill="#000000" fill-opacity="1"><g transform="translate(125.077234, 60.923419)"><g/></g></g><g fill="#000000" fill-opacity="1"><g transform="translate(134.08473, 60.923419)"><g/></g></g><g fill="#000000" fill-opacity="1"><g transform="translate(143.099852, 60.923419)"><g><path d="M 14.546875 -19.5 L 14.546875 -7.34375 L 35.75 -7.34375 L 35.75 0 L 5.765625 0 L 5.765625 -44.40625 L 35.265625 -44.40625 L 35.265625 -37.046875 L 14.546875 -37.046875 L 14.546875 -26.671875 L 32.65625 -26.671875 L 32.65625 -19.5 Z M 14.546875 -19.5 "/></g></g></g><g fill="#000000" fill-opacity="1"><g transform="translate(175.612071, 60.923419)"><g><path d="M 21.75 -44.40625 C 28.957031 -44.40625 34.457031 -42.539062 38.25 -38.8125 C 42.050781 -35.09375 43.953125 -29.554688 43.953125 -22.203125 C 43.953125 -14.867188 42.050781 -9.332031 38.25 -5.59375 C 34.457031 -1.863281 28.957031 0 21.75 0 L 5.765625 0 L 5.765625 -44.40625 Z M 21.234375 -7.375 C 25.804688 -7.375 29.222656 -8.539062 31.484375 -10.875 C 33.753906 -13.21875 34.890625 -16.992188 34.890625 -22.203125 C 34.890625 -27.410156 33.753906 -31.179688 31.484375 -33.515625 C 29.222656 -35.859375 25.804688 -37.03125 21.234375 -37.03125 L 14.546875 -37.03125 L 14.546875 -7.375 Z M 21.234375 -7.375 "/></g></g></g><g clip-path="url(#9d72c8e1ab)"><path fill="#000000" d="M 87.816406 37.042969 C 87.816406 30.730469 90.28125 24.808594 94.746094 20.347656 C 99.214844 15.890625 105.148438 13.429688 111.46875 13.429688 C 115.308594 13.429688 119.125 14.367188 122.503906 16.152344 C 125.765625 17.871094 128.628906 20.375 130.769531 23.386719 C 131.957031 25.054688 131.5625 27.367188 129.894531 28.542969 C 128.222656 29.730469 125.90625 29.332031 124.730469 27.671875 C 121.679688 23.394531 116.734375 20.835938 111.476562 20.835938 C 102.527344 20.835938 95.242188 28.109375 95.242188 37.042969 C 95.242188 45.976562 102.527344 53.25 111.476562 53.25 C 116.726562 53.25 121.679688 50.691406 124.730469 46.414062 C 125.914062 44.742188 128.230469 44.355469 129.894531 45.542969 C 131.570312 46.726562 131.957031 49.039062 130.769531 50.699219 C 128.628906 53.710938 125.765625 56.210938 122.503906 57.933594 C 119.125 59.707031 115.308594 60.65625 111.46875 60.65625 C 105.148438 60.65625 99.214844 58.195312 94.746094 53.734375 C 90.28125 49.277344 87.816406 43.351562 87.816406 37.042969 Z M 87.816406 37.042969 " fill-opacity="1" fill-rule="nonzero"/></g><g clip-path="url(#73f0c45b09)"><path fill="#000000" d="M 113.941406 37.042969 C 113.941406 34.992188 115.597656 33.339844 117.648438 33.339844 L 133.554688 33.339844 C 135.605469 33.339844 137.265625 34.992188 137.265625 37.042969 C 137.265625 39.089844 135.605469 40.746094 133.554688 40.746094 L 117.648438 40.746094 C 115.597656 40.746094 113.941406 39.089844 113.941406 37.042969 Z M 113.941406 37.042969 " fill-opacity="1" fill-rule="nonzero"/></g></svg>