<svg xmlns="http://www.w3.org/2000/svg" xmlns:xlink="http://www.w3.org/1999/xlink" width="300" zoomAndPan="magnify" viewBox="0 0 224.87999 74.999997" height="100" preserveAspectRatio="xMidYMid meet" version="1.0"><defs><g/><clipPath id="80d478aa1b"><path d="M 87.804688 13.429688 L 132 13.429688 L 132 60.65625 L 87.804688 60.65625 Z M 87.804688 13.429688 " clip-rule="nonzero"/></clipPath><clipPath id="0d5bcde07c"><path d="M 113 33 L 137.277344 33 L 137.277344 41 L 113 41 Z M 113 33 " clip-rule="nonzero"/></clipPath></defs><g fill="#ffffff" fill-opacity="1"><g transform="translate(1.800251, 61.551244)"><g><path d="M 34.4375 -27.703125 L 34.4375 -44.40625 L 43.1875 -44.40625 L 43.1875 0 L 34.4375 0 L 34.4375 -20.234375 L 14.546875 -20.234375 L 14.546875 0 L 5.765625 0 L 5.765625 -44.40625 L 14.546875 -44.40625 L 14.546875 -27.703125 Z M 34.4375 -27.703125 "/></g></g></g><g fill="#ffffff" fill-opacity="1"><g transform="translate(45.123427, 61.551244)"><g><path d="M 22.9375 -44.40625 C 26.113281 -44.40625 28.828125 -43.820312 31.078125 -42.65625 C 33.335938 -41.488281 35.046875 -39.859375 36.203125 -37.765625 C 37.359375 -35.671875 37.9375 -33.238281 37.9375 -30.46875 C 37.9375 -27.6875 37.359375 -25.253906 36.203125 -23.171875 C 35.046875 -21.085938 33.335938 -19.460938 31.078125 -18.296875 C 28.828125 -17.128906 26.113281 -16.546875 22.9375 -16.546875 L 14.546875 -16.546875 L 14.546875 0 L 5.765625 0 L 5.765625 -44.40625 Z M 21.78125 -23.515625 C 26.65625 -23.515625 29.09375 -25.832031 29.09375 -30.46875 C 29.09375 -35.125 26.65625 -37.453125 21.78125 -37.453125 L 14.546875 -37.453125 L 14.546875 -23.515625 Z M 21.78125 -23.515625 "/></g></g></g><g fill="#ffffff" fill-opacity="1"><g transform="translate(80.03975, 61.551244)"><g/></g></g><g fill="#ffffff" fill-opacity="1"><g transform="translate(89.047247, 61.551244)"><g/></g></g><g fill="#ffffff" fill-opacity="1"><g transform="translate(98.054744, 61.551244)"><g/></g></g><g fill="#ffffff" fill-opacity="1"><g transform="translate(107.062242, 61.551244)"><g/></g></g><g fill="#ffffff" fill-opacity="1"><g transform="translate(116.069738, 61.551244)"><g/></g></g><g fill="#ffffff" fill-opacity="1"><g transform="translate(125.077234, 61.551244)"><g/></g></g><g fill="#ffffff" fill-opacity="1"><g transform="translate(134.08473, 61.551244)"><g/></g></g><g fill="#ffffff" fill-opacity="1"><g transform="translate(143.099852, 61.551244)"><g><path d="M 14.546875 -19.5 L 14.546875 -7.34375 L 35.75 -7.34375 L 35.75 0 L 5.765625 0 L 5.765625 -44.40625 L 35.265625 -44.40625 L 35.265625 -37.046875 L 14.546875 -37.046875 L 14.546875 -26.671875 L 32.65625 -26.671875 L 32.65625 -19.5 Z M 14.546875 -19.5 "/></g></g></g><g fill="#ffffff" fill-opacity="1"><g transform="translate(175.612071, 61.551244)"><g><path d="M 21.75 -44.40625 C 28.957031 -44.40625 34.457031 -42.539062 38.25 -38.8125 C 42.050781 -35.09375 43.953125 -29.554688 43.953125 -22.203125 C 43.953125 -14.867188 42.050781 -9.332031 38.25 -5.59375 C 34.457031 -1.863281 28.957031 0 21.75 0 L 5.765625 0 L 5.765625 -44.40625 Z M 21.234375 -7.375 C 25.804688 -7.375 29.222656 -8.539062 31.484375 -10.875 C 33.753906 -13.21875 34.890625 -16.992188 34.890625 -22.203125 C 34.890625 -27.410156 33.753906 -31.179688 31.484375 -33.515625 C 29.222656 -35.859375 25.804688 -37.03125 21.234375 -37.03125 L 14.546875 -37.03125 L 14.546875 -7.375 Z M 21.234375 -7.375 "/></g></g></g><g clip-path="url(#80d478aa1b)"><path fill="#ffffff" d="M 87.605469 37.183594 C 87.605469 30.835938 90.082031 24.875 94.566406 20.390625 C 99.050781 15.90625 105.011719 13.429688 111.359375 13.429688 C 115.214844 13.429688 119.046875 14.375 122.441406 16.167969 C 125.71875 17.898438 128.589844 20.414062 130.742188 23.445312 C 131.933594 25.125 131.535156 27.449219 129.863281 28.632812 C 128.183594 29.824219 125.859375 29.429688 124.675781 27.757812 C 121.613281 23.453125 116.648438 20.878906 111.367188 20.878906 C 102.378906 20.878906 95.0625 28.195312 95.0625 37.183594 C 95.0625 46.171875 102.378906 53.488281 111.367188 53.488281 C 116.640625 53.488281 121.613281 50.914062 124.675781 46.609375 C 125.867188 44.929688 128.191406 44.539062 129.863281 45.734375 C 131.542969 46.925781 131.933594 49.25 130.742188 50.921875 C 128.589844 53.949219 125.71875 56.46875 122.441406 58.195312 C 119.046875 59.984375 115.214844 60.9375 111.359375 60.9375 C 105.011719 60.9375 99.050781 58.460938 94.566406 53.976562 C 90.082031 49.488281 87.605469 43.53125 87.605469 37.183594 Z M 87.605469 37.183594 " fill-opacity="1" fill-rule="nonzero"/></g><g clip-path="url(#0d5bcde07c)"><path fill="#ffffff" d="M 113.84375 37.183594 C 113.84375 35.121094 115.503906 33.457031 117.566406 33.457031 L 133.539062 33.457031 C 135.601562 33.457031 137.265625 35.121094 137.265625 37.183594 C 137.265625 39.242188 135.601562 40.90625 133.539062 40.90625 L 117.566406 40.90625 C 115.503906 40.90625 113.84375 39.242188 113.84375 37.183594 Z M 113.84375 37.183594 " fill-opacity="1" fill-rule="nonzero"/></g></svg>