<svg xmlns="http://www.w3.org/2000/svg" xmlns:xlink="http://www.w3.org/1999/xlink" width="183" zoomAndPan="magnify" viewBox="0 0 137.25 38.999999" height="52" preserveAspectRatio="xMidYMid meet" version="1.0"><path fill="#00894d" d="M 114.949219 18 L 105.292969 18 L 110.121094 26.367188 Z M 114.949219 18 " fill-opacity="1" fill-rule="nonzero"/><path fill="#0492d2" d="M 124.605469 18 L 114.949219 18 L 110.121094 26.367188 L 129.433594 26.367188 L 124.605469 18 " fill-opacity="1" fill-rule="nonzero"/><path fill="#243689" d="M 134.265625 18 L 124.605469 18 L 129.4375 26.367188 Z M 134.265625 18 " fill-opacity="1" fill-rule="nonzero"/><path fill="#ffffff" d="M 124.605469 18 L 114.949219 18 L 119.777344 9.632812 Z M 124.605469 18 " fill-opacity="1" fill-rule="nonzero"/><path fill="#9f212e" d="M 124.605469 1.261719 L 114.949219 1.261719 L 119.777344 9.632812 Z M 124.605469 1.261719 " fill-opacity="1" fill-rule="nonzero"/><path fill="#e32129" d="M 124.605469 1.261719 L 119.777344 9.632812 L 124.605469 18 L 134.265625 18 L 124.605469 1.261719 " fill-opacity="1" fill-rule="nonzero"/><path fill="#78ca2a" d="M 114.949219 18 L 119.777344 9.632812 L 114.949219 1.261719 L 105.292969 18 L 114.949219 18 " fill-opacity="1" fill-rule="nonzero"/><path fill="#211d1d" d="M 47.199219 36.835938 L 45.730469 34.285156 C 45.507812 33.902344 45.335938 33.527344 45.1875 33.195312 C 45.21875 33.632812 45.230469 34.425781 45.230469 35.03125 L 45.230469 36.835938 L 44.296875 36.835938 L 44.296875 31.78125 L 45.550781 31.78125 L 46.945312 34.191406 C 47.175781 34.582031 47.375 35.003906 47.5625 35.382812 C 47.523438 34.875 47.507812 33.976562 47.507812 33.355469 L 47.507812 31.78125 L 48.445312 31.78125 L 48.445312 36.835938 L 47.199219 36.835938 " fill-opacity="1" fill-rule="nonzero"/><path fill="#211d1d" d="M 51.984375 33.707031 C 51.886719 33.429688 51.8125 33.183594 51.753906 32.898438 L 51.746094 32.898438 C 51.6875 33.160156 51.605469 33.453125 51.507812 33.742188 L 51.054688 35.03125 L 52.449219 35.03125 Z M 53.050781 36.835938 L 52.703125 35.804688 L 50.8125 35.804688 L 50.460938 36.835938 L 49.492188 36.835938 L 51.242188 31.78125 L 52.332031 31.78125 L 54.121094 36.835938 L 53.050781 36.835938 " fill-opacity="1" fill-rule="nonzero"/><path fill="#211d1d" d="M 56.800781 32.613281 L 56.800781 36.835938 L 55.835938 36.835938 L 55.835938 32.613281 L 54.535156 32.613281 L 54.535156 31.78125 L 58.097656 31.78125 L 58.097656 32.613281 L 56.800781 32.613281 " fill-opacity="1" fill-rule="nonzero"/><path fill="#211d1d" d="M 59.195312 36.835938 L 59.195312 31.78125 L 60.160156 31.78125 L 60.160156 36.835938 L 59.195312 36.835938 " fill-opacity="1" fill-rule="nonzero"/><path fill="#211d1d" d="M 63.707031 32.574219 C 63.015625 32.574219 62.378906 33.128906 62.378906 34.269531 C 62.378906 35.339844 62.792969 36.035156 63.691406 36.035156 C 64.34375 36.035156 65.039062 35.527344 65.039062 34.3125 C 65.039062 33.191406 64.566406 32.574219 63.707031 32.574219 Z M 63.625 36.917969 C 62.09375 36.917969 61.34375 35.9375 61.34375 34.375 C 61.34375 32.703125 62.453125 31.699219 63.792969 31.699219 C 65.128906 31.699219 66.070312 32.507812 66.070312 34.238281 C 66.070312 35.910156 64.980469 36.917969 63.625 36.917969 " fill-opacity="1" fill-rule="nonzero"/><path fill="#211d1d" d="M 69.957031 36.835938 L 68.488281 34.285156 C 68.265625 33.902344 68.097656 33.527344 67.945312 33.195312 C 67.976562 33.632812 67.992188 34.425781 67.992188 35.03125 L 67.992188 36.835938 L 67.058594 36.835938 L 67.058594 31.78125 L 68.3125 31.78125 L 69.707031 34.191406 C 69.933594 34.582031 70.136719 35.003906 70.320312 35.382812 C 70.285156 34.875 70.269531 33.976562 70.269531 33.355469 L 70.269531 31.78125 L 71.203125 31.78125 L 71.203125 36.835938 L 69.957031 36.835938 " fill-opacity="1" fill-rule="nonzero"/><path fill="#211d1d" d="M 74.792969 33.707031 C 74.699219 33.429688 74.625 33.183594 74.566406 32.898438 L 74.558594 32.898438 C 74.5 33.160156 74.414062 33.453125 74.320312 33.742188 L 73.867188 35.03125 L 75.261719 35.03125 Z M 75.863281 36.835938 L 75.511719 35.804688 L 73.621094 35.804688 L 73.273438 36.835938 L 72.300781 36.835938 L 74.054688 31.78125 L 75.144531 31.78125 L 76.929688 36.835938 L 75.863281 36.835938 " fill-opacity="1" fill-rule="nonzero"/><path fill="#211d1d" d="M 78.03125 36.835938 L 78.03125 31.78125 L 78.992188 31.78125 L 78.992188 35.984375 L 80.617188 35.984375 L 80.617188 36.835938 L 78.03125 36.835938 " fill-opacity="1" fill-rule="nonzero"/><path fill="#211d1d" d="M 83.742188 36.835938 L 83.742188 31.78125 L 84.707031 31.78125 L 84.707031 35.984375 L 86.332031 35.984375 L 86.332031 36.835938 L 83.742188 36.835938 " fill-opacity="1" fill-rule="nonzero"/><path fill="#211d1d" d="M 89.921875 33.707031 C 89.824219 33.429688 89.75 33.183594 89.691406 32.898438 L 89.683594 32.898438 C 89.625 33.160156 89.542969 33.453125 89.445312 33.742188 L 88.992188 35.03125 L 90.390625 35.03125 Z M 90.988281 36.835938 L 90.640625 35.804688 L 88.75 35.804688 L 88.402344 36.835938 L 87.429688 36.835938 L 89.179688 31.78125 L 90.269531 31.78125 L 92.058594 36.835938 L 90.988281 36.835938 " fill-opacity="1" fill-rule="nonzero"/><path fill="#211d1d" d="M 94.519531 34.605469 C 94.445312 34.605469 94.199219 34.605469 94.097656 34.613281 L 94.097656 36.027344 C 94.214844 36.042969 94.398438 36.058594 94.625 36.058594 C 95.253906 36.058594 95.574219 35.757812 95.574219 35.304688 C 95.574219 34.808594 95.152344 34.605469 94.519531 34.605469 Z M 94.660156 32.539062 C 94.460938 32.539062 94.269531 32.546875 94.097656 32.554688 L 94.097656 33.871094 C 94.214844 33.878906 94.332031 33.878906 94.492188 33.878906 C 95.152344 33.878906 95.492188 33.609375 95.492188 33.160156 C 95.492188 32.785156 95.269531 32.539062 94.660156 32.539062 Z M 94.59375 36.851562 C 94.289062 36.851562 93.761719 36.835938 93.132812 36.835938 L 93.132812 31.789062 C 93.554688 31.765625 94.207031 31.753906 94.824219 31.753906 C 95.90625 31.753906 96.507812 32.195312 96.507812 33.003906 C 96.507812 33.503906 96.1875 33.945312 95.714844 34.132812 L 95.714844 34.148438 C 96.308594 34.277344 96.605469 34.769531 96.605469 35.28125 C 96.605469 36.011719 96.109375 36.851562 94.59375 36.851562 " fill-opacity="1" fill-rule="nonzero"/><path fill="#211d1d" d="M 99.980469 32.574219 C 99.292969 32.574219 98.652344 33.128906 98.652344 34.269531 C 98.652344 35.339844 99.070312 36.035156 99.96875 36.035156 C 100.617188 36.035156 101.316406 35.527344 101.316406 34.3125 C 101.316406 33.191406 100.84375 32.574219 99.980469 32.574219 Z M 99.898438 36.917969 C 98.371094 36.917969 97.621094 35.9375 97.621094 34.375 C 97.621094 32.703125 98.726562 31.699219 100.070312 31.699219 C 101.40625 31.699219 102.347656 32.507812 102.347656 34.238281 C 102.347656 35.910156 101.257812 36.917969 99.898438 36.917969 " fill-opacity="1" fill-rule="nonzero"/><path fill="#211d1d" d="M 104.761719 32.546875 C 104.621094 32.546875 104.476562 32.554688 104.382812 32.570312 L 104.382812 34.027344 C 104.449219 34.035156 104.582031 34.042969 104.730469 34.042969 C 105.308594 34.042969 105.664062 33.742188 105.664062 33.273438 C 105.664062 32.785156 105.371094 32.546875 104.761719 32.546875 Z M 105.816406 36.835938 L 104.421875 34.75 L 104.382812 34.75 L 104.382812 36.835938 L 103.417969 36.835938 L 103.417969 31.78125 C 103.808594 31.757812 104.277344 31.753906 104.855469 31.753906 C 105.960938 31.753906 106.675781 32.140625 106.675781 33.175781 C 106.675781 33.925781 106.15625 34.464844 105.398438 34.582031 C 105.539062 34.769531 105.679688 34.964844 105.808594 35.136719 L 107.007812 36.835938 L 105.816406 36.835938 " fill-opacity="1" fill-rule="nonzero"/><path fill="#211d1d" d="M 119.105469 32.574219 C 118.414062 32.574219 117.777344 33.128906 117.777344 34.269531 C 117.777344 35.339844 118.191406 36.035156 119.089844 36.035156 C 119.742188 36.035156 120.4375 35.527344 120.4375 34.3125 C 120.4375 33.191406 119.964844 32.574219 119.105469 32.574219 Z M 119.019531 36.917969 C 117.492188 36.917969 116.746094 35.9375 116.746094 34.375 C 116.746094 32.703125 117.851562 31.699219 119.191406 31.699219 C 120.527344 31.699219 121.46875 32.507812 121.46875 34.238281 C 121.46875 35.910156 120.378906 36.917969 119.019531 36.917969 " fill-opacity="1" fill-rule="nonzero"/><path fill="#211d1d" d="M 123.828125 32.546875 C 123.683594 32.546875 123.546875 32.554688 123.449219 32.570312 L 123.449219 34.027344 C 123.515625 34.035156 123.648438 34.042969 123.796875 34.042969 C 124.375 34.042969 124.730469 33.742188 124.730469 33.273438 C 124.730469 32.785156 124.4375 32.546875 123.828125 32.546875 Z M 124.882812 36.835938 L 123.484375 34.75 L 123.449219 34.75 L 123.449219 36.835938 L 122.484375 36.835938 L 122.484375 31.78125 C 122.878906 31.757812 123.347656 31.753906 123.921875 31.753906 C 125.027344 31.753906 125.742188 32.140625 125.742188 33.175781 C 125.742188 33.925781 125.222656 34.464844 124.464844 34.582031 C 124.605469 34.769531 124.746094 34.964844 124.875 35.136719 L 126.074219 36.835938 L 124.882812 36.835938 " fill-opacity="1" fill-rule="nonzero"/><path fill="#211d1d" d="M 110.242188 33.707031 C 110.148438 33.429688 110.074219 33.183594 110.011719 32.898438 L 110.003906 32.898438 C 109.945312 33.160156 109.863281 33.453125 109.765625 33.742188 L 109.316406 35.03125 L 110.710938 35.03125 Z M 111.3125 36.835938 L 110.964844 35.804688 L 109.070312 35.804688 L 108.722656 36.835938 L 107.75 36.835938 L 109.5 31.78125 L 110.59375 31.78125 L 112.378906 36.835938 L 111.3125 36.835938 " fill-opacity="1" fill-rule="nonzero"/><path fill="#211d1d" d="M 114.855469 32.613281 L 114.855469 36.835938 L 113.890625 36.835938 L 113.890625 32.613281 L 112.589844 32.613281 L 112.589844 31.78125 L 116.152344 31.78125 L 116.152344 32.613281 L 114.855469 32.613281 " fill-opacity="1" fill-rule="nonzero"/><path fill="#211d1d" d="M 129.273438 35.046875 L 129.273438 36.835938 L 128.308594 36.835938 L 128.308594 35.054688 L 126.746094 31.78125 L 127.796875 31.78125 L 128.457031 33.234375 C 128.589844 33.535156 128.703125 33.8125 128.796875 34.074219 L 128.8125 34.074219 C 128.917969 33.78125 129.066406 33.460938 129.210938 33.136719 L 129.84375 31.78125 L 130.867188 31.78125 L 129.273438 35.046875 " fill-opacity="1" fill-rule="nonzero"/><path fill="#211d1d" d="M 10.796875 11.59375 C 10.414062 10.589844 10.148438 9.707031 9.914062 8.671875 L 9.855469 8.671875 C 9.617188 9.644531 9.324219 10.589844 8.96875 11.5625 L 6.082031 19.4375 L 13.683594 19.4375 Z M 16.042969 26.132812 L 14.304688 21.234375 L 5.460938 21.234375 L 3.695312 26.132812 L 1.367188 26.132812 L 8.761719 6.226562 L 11.210938 6.226562 L 18.605469 26.132812 L 16.042969 26.132812 " fill-opacity="1" fill-rule="nonzero"/><path fill="#211d1d" d="M 27.507812 13.390625 C 24.265625 12.859375 22.734375 15.339844 22.734375 20.261719 L 22.734375 26.132812 L 20.523438 26.132812 L 20.523438 11.472656 L 22.703125 11.472656 C 22.703125 12.449219 22.585938 13.894531 22.378906 15.160156 L 22.410156 15.191406 C 23 13.039062 24.53125 10.855469 27.597656 11.210938 L 27.507812 13.390625 " fill-opacity="1" fill-rule="nonzero"/><path fill="#211d1d" d="M 35.066406 12.917969 C 32.53125 12.917969 31.027344 14.484375 31.027344 16.636719 C 31.027344 19.023438 32.472656 20.292969 34.945312 20.292969 C 37.363281 20.292969 38.925781 18.996094 38.925781 16.636719 C 38.925781 14.277344 37.480469 12.917969 35.066406 12.917969 Z M 36.566406 26.21875 L 33.5625 26.21875 C 33.265625 26.21875 32.882812 26.21875 32.617188 26.191406 C 31.351562 26.839844 30.527344 27.902344 30.527344 29.140625 C 30.527344 31.027344 32.351562 32.03125 34.800781 32.03125 C 38.011719 32.03125 39.898438 30.671875 39.898438 28.726562 C 39.898438 27.164062 38.808594 26.21875 36.566406 26.21875 Z M 34.417969 33.828125 C 30.703125 33.828125 28.316406 32.324219 28.316406 29.523438 C 28.316406 27.695312 29.464844 26.339844 30.851562 25.628906 C 29.9375 25.21875 29.375 24.449219 29.375 23.507812 C 29.375 22.503906 29.964844 21.589844 30.996094 21.117188 C 29.523438 20.261719 28.816406 18.757812 28.816406 16.871094 C 28.816406 13.804688 31.203125 11.210938 35.183594 11.210938 C 35.730469 11.210938 36.1875 11.25 36.660156 11.328125 C 36.894531 11.367188 38.847656 11.472656 39.179688 11.472656 L 42.375 11.472656 L 42.375 13.214844 C 42.375 13.214844 40.757812 13.214844 40.625 13.214844 C 40.480469 13.214844 39.632812 13.160156 39.632812 13.160156 C 39.632812 13.160156 39.621094 13.132812 39.722656 13.214844 C 40.566406 13.898438 41.136719 15.042969 41.136719 16.429688 C 41.136719 19.554688 38.984375 21.945312 34.769531 21.945312 C 34.09375 21.945312 33.296875 21.855469 32.765625 21.738281 C 32.027344 22.003906 31.675781 22.535156 31.675781 23.066406 C 31.675781 23.917969 32.5 24.304688 34.328125 24.304688 L 37.1875 24.304688 C 40.371094 24.304688 42.109375 25.867188 42.109375 28.433594 C 42.109375 31.527344 38.925781 33.828125 34.417969 33.828125 " fill-opacity="1" fill-rule="nonzero"/><path fill="#211d1d" d="M 49.671875 13.039062 C 47.375 13.039062 45.195312 14.777344 45.195312 18.699219 C 45.195312 22.445312 46.816406 24.507812 49.671875 24.507812 C 51.972656 24.507812 54.066406 22.738281 54.066406 18.699219 C 54.066406 15.160156 52.59375 13.039062 49.671875 13.039062 Z M 49.351562 26.398438 C 45.429688 26.398438 42.894531 24.007812 42.894531 18.875 C 42.894531 14.6875 45.488281 11.210938 49.878906 11.210938 C 53.445312 11.210938 56.363281 13.183594 56.363281 18.550781 C 56.363281 22.917969 53.683594 26.398438 49.351562 26.398438 " fill-opacity="1" fill-rule="nonzero"/><path fill="#211d1d" d="M 67.863281 26.132812 L 67.863281 16.636719 C 67.863281 14.335938 67.246094 13.007812 65.121094 13.007812 C 62.5 13.007812 60.640625 15.601562 60.640625 19.082031 L 60.640625 26.132812 L 58.433594 26.132812 L 58.433594 11.472656 L 60.613281 11.472656 C 60.613281 12.417969 60.523438 13.832031 60.375 14.71875 L 60.4375 14.75 C 61.261719 12.625 63.117188 11.179688 65.679688 11.179688 C 69.042969 11.179688 70.074219 13.304688 70.074219 15.898438 L 70.074219 26.132812 L 67.863281 26.132812 " fill-opacity="1" fill-rule="nonzero"/><path fill="#211d1d" d="M 83.183594 26.132812 L 83.183594 16.636719 C 83.183594 14.335938 82.5625 13.007812 80.441406 13.007812 C 77.816406 13.007812 75.960938 15.601562 75.960938 19.082031 L 75.960938 26.132812 L 73.75 26.132812 L 73.75 11.472656 L 75.933594 11.472656 C 75.933594 12.417969 75.84375 13.832031 75.695312 14.71875 L 75.753906 14.75 C 76.582031 12.625 78.4375 11.179688 81 11.179688 C 84.363281 11.179688 85.394531 13.304688 85.394531 15.898438 L 85.394531 26.132812 L 83.183594 26.132812 " fill-opacity="1" fill-rule="nonzero"/><path fill="#211d1d" d="M 93.796875 12.890625 C 91.734375 12.890625 90.257812 14.394531 89.90625 16.695312 L 97.332031 16.695312 C 97.390625 14.421875 96.035156 12.890625 93.796875 12.890625 Z M 99.574219 18.347656 L 89.789062 18.347656 C 89.640625 22.738281 91.378906 24.566406 94.652344 24.566406 C 96.183594 24.566406 97.804688 24.183594 98.894531 23.625 L 99.101562 25.511719 C 97.746094 26.074219 96.09375 26.398438 94.269531 26.398438 C 89.847656 26.398438 87.488281 24.007812 87.488281 18.875 C 87.488281 14.484375 89.847656 11.210938 93.914062 11.210938 C 97.953125 11.210938 99.632812 14.011719 99.632812 17.253906 C 99.632812 17.519531 99.632812 17.902344 99.574219 18.347656 " fill-opacity="1" fill-rule="nonzero"/></svg>