<?xml version="1.0" encoding="utf-8"?>
<!-- Generator: Adobe Illustrator 21.0.0, SVG Export Plug-In . SVG Version: 6.00 Build 0)  -->
<svg version="1.1" xmlns="http://www.w3.org/2000/svg" xmlns:xlink="http://www.w3.org/1999/xlink" x="0px" y="0px"
	 viewBox="0 0 650.2 182.9" style="enable-background:new 0 0 650.2 182.9;" xml:space="preserve">
<style type="text/css">
	.st0{fill:#003767;}
</style>
<g id="Isolation_Mode">
</g>
<g id="Layer_1">
	<path class="st0" d="M610.2,115.8c5.3,6.6,10.4,12.5,15.3,17.9c0.9,1,1.8,1.7,2.8,2.1c1,0.4,4.4,1.1,10.4,2
		c-0.7-11.1-1-20.6-1-28.5V79.6c0-17.4,0.2-26.9,0.6-28.7c0.6-2.7,3-4.1,7-4.1h5.1v-4.1c-6.4,0.3-11.7,0.5-15.7,0.5
		c-3.9,0-9.4-0.2-16.4-0.5v4.1l4.9,0.5c4.4,0.4,6.9,1.5,7.6,3.1c0.6,1.6,1,11.3,1,28.9v42.1c-3.6-3.8-9.4-10.7-17.5-20.6l-22.4-27.5
		c-4.1-5.1-8.1-10.1-11.9-15.1c-3.8-5-7.9-10.2-12.2-15.4c-3.8,0.3-7.2,0.5-10.4,0.5c-2.9,0-7.2-0.2-12.7-0.5v4.1h4.1
		c2.1,0,3.6,0.4,4.8,1.1c1.1,0.7,2,1.6,2.6,2.5c0.6,0.9,0.9,2.7,1,5.2c0.1,6,0.2,12,0.2,18.2v32.6c0,8.3-0.2,14.8-0.7,19.6
		c-0.2,2.3-0.8,3.9-1.6,4.7c-0.9,0.8-2.7,1.2-5.6,1.2h-4.7v4.1c9.6-0.3,15.7-0.5,18.4-0.5c3.9,0,8.2,0.2,12.9,0.5v-4.1l-4.2-0.3
		c-3.5-0.3-5.6-0.8-6.3-1.5c-0.7-0.7-1.2-2.6-1.5-5.7c-0.4-4.1-0.6-11.3-0.6-21.6V57.5L610.2,115.8z M470.5,59.8L487,99.2h-33
		L470.5,59.8z M496.6,122.8c1.3,3.3,2,5.4,2,6.2c0,0.7-0.3,1.4-1,1.8c-0.4,0.3-1.8,0.5-4.1,0.7l-6.5,0.4v4.1
		c8-0.3,14.4-0.5,19.2-0.5c5.2,0,10.6,0.2,16.3,0.5v-4.1c-3.4-0.2-5.5-0.5-6.5-1c-1-0.5-1.8-1.2-2.6-2.3c-0.7-1.1-2.2-4.2-4.5-9.5
		L475.8,42h-4.5c-1.8,4.9-5,12.8-9.8,23.6l-18,40.9c-3.2,7.3-6.4,14.1-9.5,20.4c-1,2.1-2,3.5-2.9,4s-2.9,0.9-5.9,1l-2,0.1v4.1
		c4.8-0.3,10.3-0.5,16.6-0.5c5.2,0,10,0.2,14.2,0.5v-4.1l-6.3-0.7c-2.2-0.3-3.6-0.6-4.2-1c-0.5-0.4-0.8-1.2-0.8-2.2
		c0-1.6,1.5-5.9,4.4-12.9l4.4-10.6h37.9L496.6,122.8z M364.3,91c9.9,0,15.7,0.5,17.3,1.4s2.5,3.5,2.5,7.7v3.8h4.5
		c-0.3-5.6-0.5-10.5-0.5-14.7c0-3.9,0.2-9.2,0.5-15.8h-4.5v4.3c0,3.8-0.7,6-2.1,6.7c-1.4,0.7-7.3,1.1-17.7,1.1
		c-3.3,0-7.1-0.2-11.5-0.5V71.7l0.1-10.1c0.1-4.1,0.2-8.2,0.1-12.3c6.6-0.5,12.8-0.8,18.8-0.8c7.5,0,13.9,1,19,2.9
		c0.5,3.2,0.7,7.2,0.7,12h4.5c0.2-8.3,1.1-15.1,2.8-20.3c-4.2-0.3-8.3-0.5-12.3-0.5l-11.9,0.1l-25.2,0.4c-2,0-5-0.1-8.9-0.2l-7-0.2
		h-7.1v4.1l5.1,0.5c3.1,0.3,5,0.7,5.6,1c0.6,0.4,1.1,1,1.4,1.7c0.3,0.7,0.6,3,0.9,6.7c0.3,3.8,0.4,8.6,0.4,14.5v36
		c0,9.4-0.2,15.5-0.5,18.2c-0.3,2.8-1,4.5-2,5.2c-1,0.7-3.4,1.1-7.2,1.1h-2v4.1c8.5-0.3,15.3-0.5,20.4-0.5c5.3,0,13.7,0.2,25.1,0.5
		l10.3,0.2c4.9,0,9.8-0.2,14.8-0.7l-0.1-3c0-3.2,0.6-9.6,1.8-19.2h-4.3c-1.1,5.8-2.3,10.6-3.3,14.4c-2.4,0.9-4.7,1.4-6.8,1.7
		c-3.3,0.4-7.4,0.7-12.4,0.7c-7.3,0-14.2-0.2-20.6-0.7c-0.1-2.7-0.2-6.9-0.2-12.7l-0.1-9.3V91.5C356.8,91.1,360.6,91,364.3,91z
		 M272,61.3c7.9-7.3,13-11.5,15.2-12.7c2.2-1.2,4.9-1.8,8-1.8h3.5v-4.1c-4,0.3-7.6,0.5-10.9,0.5c-3.1,0-7.1-0.2-11.9-0.5v4.6
		l-18.6,19.3c-5.9,6.1-10.1,10.3-12.7,12.8c-2.6,2.4-5.7,5.1-9.2,8h-0.9V69.7c0-9.6,0.1-15.4,0.3-17.4c0.2-2,0.7-3.4,1.5-4
		c0.8-0.7,2.7-1.1,5.7-1.2l5.2-0.2v-4.1c-10.9,0.3-17.7,0.5-20.2,0.5c-3.6,0-9.4-0.2-17.4-0.5v4.1h5.3c3.5,0,5.6,0.8,6.3,2.3
		c0.7,1.5,1,8.3,1,20.3v43.9c0,9.8-0.4,15.4-1,16.7c-0.7,1.3-2.8,1.9-6.3,1.9h-5.3v4.1c6.7-0.3,12.9-0.5,18.7-0.5
		c5.5,0,11.9,0.2,19,0.5v-4.1h-4.9c-4.1,0-6.5-0.8-7.1-2.4c-0.4-0.9-0.6-6.3-0.6-16v-20c0-1.7,0.5-2.6,1.4-2.6
		c0.3,0,1.3,0.7,2.8,2.2l45.2,42.9c3.4-0.3,6.5-0.5,9.3-0.5c2.7,0,5.9,0.2,9.4,0.5v-4.1c-2,0-3.4-0.1-4.2-0.4
		c-0.9-0.3-1.7-0.8-2.5-1.6l-4.1-3.9L247,84.4L272,61.3z"/>
	<g>
		<g>
			<polygon class="st0" points="110.2,86.6 110.2,86.6 110.2,86.6 			"/>
			<path class="st0" d="M114,69.9l-5.8-3.6c-0.1-0.1-0.3-0.1-0.5-0.1c-0.1,0-0.5,0.1-0.5,0.1l-0.2,0.1l-0.1,0.1l-0.1,0.1
				c-0.3,0.3-0.6,0.6-0.8,1l-0.1,0.1c0,0.1,0,0.2-0.1,0.3l0,0l0,0.1h0l-0.1,0.1l0,0.1l-0.6,0.5c-0.1,0.1-0.2,0.2-0.2,0.4
				c-0.1,0.1-0.3,0.3-0.5,0.4c-0.2,0.2-0.4,0.3-0.4,0.3c-0.2,0.2-0.3,0.5-0.2,0.7l0,0.1L104,71c0,0,0.1,0.2,0.2,0.3l0,0
				c0,0.1-0.1,0.1-0.1,0.2l-0.1,0.2l-0.2,0.1c-0.2,0.1-0.3,0.2-0.4,0.4l-0.1,0.5l0,0.1l0,0.1c0,0.1,0,0.4,0,0.6c0,0.3,0,0.6,0,0.6
				l0,0.2l0,0.1c0,0.2,0.1,0.3,0.3,0.4l0.1,0.1c0.1,0.1,0.2,0.1,0.4,0.1h0.1h0c0,0.4,0.1,0.9,0.3,1.2c0.2,0.3,0.5,0.6,0.8,0.8
				c0.1,0.1,0.4,0.4,0.7,0.7c0.1,0.2,0.3,0.3,0.4,0.5c0,0,0,0,0,0c0,0-0.1,0.1-0.1,0.1l-0.3,0.2l-0.1,0.1c-0.1,0-0.2,0-0.2,0.1
				l-0.2,0l-0.1,0c-0.1,0-0.2,0.1-0.3,0.1l-1.4,1.1c-0.2,0.1-0.3,0.3-0.3,0.5l0,0.1c-0.1,0-0.1,0.1-0.2,0.1l0,0l-0.2,0.1
				c-0.1,0-0.2,0-0.3,0c-0.1,0-0.2,0-0.2,0l-0.2,0.1c-0.4,0.2-0.9,0.5-1.2,1.1c-0.2,0.4-0.7,1.4-0.7,1.4c-0.1,0.2-0.1,0.5,0,0.6
				l0.2,0.3l-0.3,0.6c-0.1,0.2-0.1,0.5,0.1,0.7c0.3,0.4,0.6,0.7,0.9,1.1c0.1,0.1,0.3,0.2,0.4,0.2l0.6,0.1c0.1,0.1,0.3,0.3,0.4,0.4
				c0.2,0.2,0.3,0.3,0.3,0.3l0,0l0.2,0.2l0,0l0,0.1l0.1,0.2c0.1,0.3,0.4,0.5,0.7,0.5c0.2,0.1,0.5,0,0.7-0.2l0,0l0.1,0
				c0,0,0.2,0,0.3,0.1l0.2,0.1l0,0l-0.1,0.1l-0.2,0.3c-0.2,0.4-0.3,0.9-0.4,1.4c-0.1,0.3,0.1,0.6,0.4,0.8l0.2,0.1l0.2,0.1l0,0
				c0.2,0,0.2,0,0.4-0.1c0.2,0,0.4-0.1,0.6-0.2c0.2-0.1,0.4-0.2,0.6-0.4l0.1-0.2c0-0.1,0.2-0.5,0.4-0.7c0.1-0.1,0.2-0.3,0.2-0.3
				l0.1-0.1l0.1-0.2c0.1-0.4,0.4-0.8,0.6-1.1l0,0l0.4-0.4c0.2-0.2,0.5-0.4,0.8-0.6c0.2-0.1,0.3-0.2,0.4-0.3l0.1-0.1l0,0l0,0l0.1-0.1
				l0.3-0.2c0.1-0.1,0.2-0.2,0.2-0.3l0.2-0.4c0.1-0.2,0.1-0.4,0-0.5l0,0l-0.1-0.2l0,0c0.1,0,0.1-0.1,0.1-0.1l0,0
				c0.1,0,0.1-0.1,0.2-0.1c0.2-0.1,0.4-0.3,0.4-0.3l0.2-0.2c0.9-2.2,1.6-5.1,1.9-7.8c0-0.1,0-0.2,0-0.2c0,0,0,0,0,0
				c0-0.1,0-0.1,0-0.2c0-0.1,0-0.3-0.1-0.4l-0.1-0.2c-0.1-0.2-0.3-0.3-0.6-0.3h0c-0.2,0-0.4,0.1-0.5,0.3c0,0,0,0.1-0.1,0.2
				c-0.1,0-0.1-0.1-0.2-0.1c-0.1,0-0.2-0.1-0.2-0.1c0.1-0.1,0.1-0.2,0.2-0.3l0,0c0,0,0.1-0.1,0.1-0.3c0,0,0,0,0,0
				c0.3,0,0.5-0.1,0.8-0.2c0.2-0.1,0.3-0.3,0.4-0.5c0.1-0.2,0.1-0.5,0.2-0.7c0.3-0.7,0.8-1.5,0.9-2.5h0l0.1-0.2
				C114.3,70.3,114.2,70,114,69.9z M110.3,83.4L110.3,83.4l-0.2,0.1l0,0l0,0l0,0l0,0l0,0c-0.2,0.1-0.4,0.3-0.6,0.4l-0.3,0.2
				l-0.1,0.1l-0.1,0.1c-0.1,0.2-0.2,0.4-0.1,0.6l0.1,0.2l0.2,0.2l0,0c-0.2,0.1-0.4,0.3-0.6,0.5c-0.3,0.2-0.5,0.5-0.7,0.5l-0.1,0.1
				l-0.4,0.4l0,0c-0.4,0.4-0.7,0.9-0.9,1.5c0,0-0.1,0.1-0.1,0.2l0,0c0-0.3-0.1-0.7-0.4-0.9l0,0c0,0,0,0,0,0c0,0,0,0,0,0l0,0
				c-0.3-0.3-0.6-0.4-0.9-0.5c-0.1,0-0.3-0.1-0.4-0.1l-0.1,0l-0.1,0c-0.1,0-0.2,0-0.4,0l-0.1-0.1L104,87l-0.2-0.2l0,0
				c0,0-0.2-0.2-0.4-0.4l-0.3-0.3L103,86l0,0l0,0c-0.1-0.1-0.2-0.2-0.4-0.2l-0.1,0l-0.1,0l-0.5,0c-0.1-0.2-0.3-0.4-0.4-0.5l0.3-0.6
				c0.1-0.2,0.1-0.5,0-0.7l-0.2-0.3c0-0.1,0.1-0.1,0.1-0.2c0.1-0.3,0.3-0.6,0.4-0.8c0.1-0.2,0.3-0.4,0.6-0.5l0.1,0l0.1,0l0.1,0h0v0
				l0.2,0l0.3-0.1v0c0.2,0,0.3-0.1,0.4-0.1l0.2,0c0.3,0,0.6-0.3,0.6-0.6l0-0.3l1.1-0.8c0.1,0,0.1,0,0.2,0l0.3-0.1
				c0.1,0,0.2-0.1,0.3-0.1c0.1,0,0.1-0.1,0.2-0.2l0,0l0,0c0.1-0.1,0.2-0.1,0.3-0.2l0.1-0.1l0.1,0c0.3,0,0.5-0.2,0.5-0.5l0-0.1l0-0.3
				c0-0.2-0.1-0.5-0.3-0.7l0,0c-0.1-0.1-0.2-0.2-0.3-0.4c-0.4-0.4-0.9-1.1-1.1-1.2l-0.1-0.1c-0.2-0.1-0.4-0.3-0.5-0.4
				c-0.1-0.2-0.2-0.3-0.2-0.6l0-0.2c0-0.2,0-0.3-0.1-0.5l-0.2-0.3l-0.2-0.2l-0.1-0.1c-0.1,0-0.2-0.1-0.3-0.1c0,0,0-0.1,0-0.1
				c0-0.2,0-0.4,0-0.5l0-0.1l0.1,0l0.1-0.1c0.1-0.1,0.2-0.1,0.2-0.2c0.1-0.2,0.3-0.4,0.4-0.6c0.1-0.1,0.1-0.2,0.2-0.3l0.1-0.1l0-0.1
				c0,0,0-0.1,0-0.2c0,0,0-0.1,0-0.2l0-0.1c0,0-0.1-0.2-0.2-0.4c0,0-0.1-0.1-0.1-0.1c0,0,0,0,0.1-0.1c0.1-0.1,0.3-0.2,0.4-0.4
				c0.1-0.1,0.2-0.2,0.4-0.4c0.1-0.1,0.1-0.2,0.1-0.2l0.4-0.3l0.1-0.1c0,0,0.1-0.1,0.2-0.2c0.1-0.1,0.1-0.2,0.2-0.4l0,0l0.1-0.1
				l0.1-0.2l0-0.2c0.1-0.2,0.2-0.3,0.4-0.5c0,0,0.1,0,0.1,0l5.1,3.2c-0.1,0.6-0.5,1.3-0.8,2l0,0l0,0l0,0.1c0,0.1-0.1,0.3-0.1,0.4
				l-0.2,0l-0.3,0c-0.2,0-0.3,0.1-0.4,0.2l-0.1,0.2c-0.1,0.1-0.1,0.2-0.1,0.2c-0.1,0.1-0.1,0.3-0.2,0.4c0,0.1,0,0.1-0.1,0.2
				c0,0-0.1,0.1-0.1,0.1c-0.1,0.1-0.2,0.2-0.2,0.3l0,0c-0.1,0.1-0.2,0.2-0.2,0.3c-0.1,0.2-0.1,0.4,0,0.6c0.1,0.2,0.3,0.4,0.5,0.6
				c0.2,0.1,0.5,0.3,0.8,0.3c0.1,0.1,0.3,0.2,0.4,0.2c0.1,0,0.1,0.1,0.2,0.1C111.7,79.1,111.1,81.5,110.3,83.4z M110.1,86.5
				L110.1,86.5L110.1,86.5L110.1,86.5z"/>
		</g>
		<path class="st0" d="M99.6,58.1c0-0.7,5.4-10.5,5.4-10.5H77.2c0,0,4.9,9.9,4.9,10.5c0,0-25.1,0.2-25.9,0c0,0,0.4,14.6,0.3,21.6
			c-0.1,5.7-0.4,11.7,0.4,17.3c1.5,10.4,8.9,19.6,17.8,24.8c1.9,0.8,3.9,1.7,5.8,2.5c2.9,1.3,10.3,6.4,10.3,6.4s6.9-4.9,9.6-6.2
			c2.6-1.2,5.3-2.2,7.7-3.6c9.6-5.4,16.1-16.2,17.2-27.2c0.3-3.2,0.1-6.5,0-9.7c0-3,0-5.9,0-8.9c-0.1-3.7-0.2-7.3-0.2-11.1
			c0-1.8-0.1-4.4,0.2-6.1C123.8,58.2,99.6,58.1,99.6,58.1z M98.9,60.8c5.2-0.4,22.2-0.2,23.2,0.4c0.7,0.4,0.3,6.4,0.1,7.1
			c0.3-0.8-8-4.7-13.4-5.2c-5.4-0.4-9.6,0.6-10,0.9h-0.1C98.6,62.8,98.7,61.8,98.9,60.8z M85.6,59.9c-0.1-1.1-0.4-1.6-0.4-1.6
			l11.3,0c0,0-0.4,0.6-0.4,1.6c-0.1,1-3.6,48.8-3.6,48.8l-2.9,0C89.5,108.7,85.7,61,85.6,59.9z M117.8,92.9c-1.5-0.2-3-0.4-4.6-0.7
			c-2.3-0.3-10.6-0.8-11.9-0.7c-1.2,0.1-2.5,0.1-3.7,0.1c-1.4,0-1.3-0.6-1.2-1.8c0.5-5.7,0.8-11.3,1.3-17c0.1-1.4,0.2-4.9,0.9-5.8
			c0.9-1,3.5-1.4,6.8-1.8s10,1,12,3.5C118.4,70,118.1,87.5,117.8,92.9z M96,94.1c0-0.2,23.9-0.3,24.7,3.8
			c-0.1-0.5-22.9-0.8-24.9-0.5C95.8,96.4,96,95.1,96,94.1z M81.6,49.9c1.1,0.1,7.7,0.2,9.3,0.2c1.6,0,9.7-0.2,9.8-0.2
			c0,0.1-2.4,4.3-3.4,5c-1.1,0.8-11.4,0.6-12.6,0.1C83.7,54.6,82.2,51,81.6,49.9z M79.9,86.6c0,0-0.9,0.1-1-0.2
			c-0.3-1.7-0.2-5.7-0.2-5.7c0.3-0.1,1,0.1,1.1-0.1c0.1-0.2,0.3-2.1-0.5-2c-0.4,0-0.8-0.2-1.1-0.5c-0.7-1.2-3.9-9-2.8-12.4
			c0.1-0.2,6.4,0.5,7.5,1.5c1.1,1,2.3,21.2,2.5,24.3c0,0.4-2.6,0.6-2.9,0.6c-0.8,0-3.1-0.2-3.5-0.6c-0.3-0.3-0.5-1.7-0.3-2.1
			c0.3-0.6,0.7-0.1,1-0.5C80.1,88.3,79.9,87.2,79.9,86.6z M69.1,80.8c0.2,0.2,0.8-0.2,1,0.3c0.3,0.6,0.6,5.3-0.1,5.5
			c-0.2,0.1-1.2,0-1.1,0.2c0.1,0.5-0.1,1.7,0.2,2c0.3,0.4,1,0.3,1,0.3c0.5,0.4,0.1,2.7-0.2,3c0,0-1.5,0.4-2.7,0.6
			c-0.3,0-2.7,0.3-3.1-0.4c-0.6-1.1-0.2-22.9,0.3-23.6c1.4-1.9,6.5-3.1,8.7-3.3c1.4,1.5-1.6,11.2-2.6,12.6c-0.5,0.7-1,0.1-1.5,0.6
			C68.8,78.9,68.9,80.6,69.1,80.8z M72.2,78.2c0,0,0.9-2.1,1.3-3.9c0.4-1.8,0.8-4,0.8-4s0.6,2.9,0.9,4.1s1.3,3.7,1.3,3.8
			C76.5,78.4,72.5,78.6,72.2,78.2z M71.9,80.9c0.4-0.4,4.8-0.5,5.2-0.2c0.4,0.3,0.7,4.6,0.3,5.5c-0.3,0.6-5.1,0.5-5.4,0
			C71.7,85.7,71.6,81.4,71.9,80.9z M72,89.1c1.5,0.1,5.2-0.1,5.2-0.1c0.1,1.6,0.6,2.8-2.2,3C72.4,92.1,72,91.2,72,89.1z M59.3,61.1
			c0.2-0.1,10.1-0.3,15.1-0.3c2.2,0,7-0.1,8.2,0.1c0.2,0,0.3,3.2,0.3,3.2c-1.4-0.3-4.8-1.2-10.3-0.9c-6.8,0.5-13.4,5.3-13.4,5.2
			C59.2,67.7,59.1,61.3,59.3,61.1z M59.8,95.4c-0.5,0-0.5-1.9-0.5-2.3c0-4.7-0.6-18.9,0.1-20.9c0.3-0.8,2.2-2.2,2.2-2.2
			s-0.1,3.5-0.1,4.5c0,2.8,0.1,19,0.1,19L59.8,95.4z M85.8,94c0,0,0.4,2.6,0.4,3.5c0,0-25.5,0.6-25.6,0.3C60.4,96,77.8,93.4,85.8,94
			z M120.3,102.3c-0.7,1.4-1.4,2.9-2,4.3c-3.1,5.3-8,10.1-13.4,12.8c-1.7,0.8-13.9,7.1-13.9,7.1c-0.7,0-5.3-3-6.3-3.6
			c-3.1-1.7-6.6-2.8-9.7-4.5c-5-2.7-9.4-7.6-12-12.5c-0.7-1.2-2.3-3.8-1.9-5.1c0.1-0.5,21.5-0.8,25.4-0.4c0,0,1.3,8,1.4,11.3
			c1.5,0,6.3,0,6.3,0s0.9-10,1.2-11.1c0,0,24-0.5,25.4,0.2C121,100.8,120.4,102,120.3,102.3z M122.3,95.9c0,0-1.4-1.8-1.7-2.2
			c-0.1-7.8-0.2-15.6-0.3-23.3c0.7,0.2,1.8,0.9,2.1,1.6C122.9,73.2,122.7,93.8,122.3,95.9z"/>
		<path class="st0" d="M127.4,91.4c0,11.1-7.7,24.1-16.8,30c-2.1,1.4-4.5,2.6-6.9,3.5c-1.2,0.5-4.4,1.6-4.8,1.7
			c-1.2,0.2-2.2,1-1.6,2.6c0.4,1.2,1.3,0.8,1.5,1.8c0.1,0.8-0.2,1.2-1.3,1.5c-1.6,0.4-12.7,1-14.1-0.7c-1.2-1.5,2.6-3.9,0.2-5
			c-0.7-0.2-1.4-0.3-2.1-0.5c-1.9-0.5-3.9-1.1-5.6-2c-6.6-3.3-12.4-8.6-16.2-15.1c-1.2-2.1-2.1-4.2-3-6.5c-1-2.5-1.2-2.5-2.3-11.3
			c-0.7,0.2-3.7,1.3-4.4,0.9c-1.1-0.7-0.2-7.5,0.1-8.9c-0.7-0.5-8.1-5.7-11.3-7.1c-0.7,1.8-1,3.8-1.2,5.8c-0.6,4.5-0.7,9.4-0.2,14
			c0.1,0.9,0,2.2,0.7,2.8c0.8,0.6,4.3-0.8,5.4-0.9c0,0,0.9,4.5,1.4,6.2c4.5,14.1,14.3,25.9,28.2,31.6c1.5,0.6,6.1,2,6.1,2
			s0,5.9,0.5,6.3c2.1,1.7,20.2,1.9,22-0.1c0.8-0.9,0.2-4.8,0.6-6.3c2.4,0,5.9-1.7,7.9-2.7c2.9-1.4,5.7-2.7,8.4-4.6
			c8.6-5.9,15.8-17.1,18.3-25.8c0.6-2.2,1.6-6.9,1.6-6.9c1.2,0,4.4,1.9,5.4,1.3c0.7-0.4,1.2-8.6,0.9-12.3c-0.1-2.5-1.4-9.9-1.9-10.2
			c-0.4-0.2-8.8,4.3-10.7,6c0,1.4,1.1,8.7,0,9.8C131.5,93.2,127.4,91.4,127.4,91.4z M40.6,94.8c-1-1.2-0.1-11.7,0-13.7
			c1.3,0.7,5.8,2.9,6.2,3.9c0.4,1-0.4,7-0.1,8.5C46.7,93.9,41,95.3,40.6,94.8z M79,135.3c-0.5-0.2-1-0.3-1.5-0.5
			c-1.8-0.6-3.4-1.2-5.1-2c-12.5-5.6-20.7-16.5-25-29.1c-0.4-1.3-1.9-5-1.1-6.4c0.5-0.9,4.6-1.8,5.7-2.2c0.2,0,0.7,3.6,1.3,5.9
			c0.7,2.3,2.8,7.5,6.3,12.4c3.6,5,8.6,9.4,13.3,12c2.7,1.5,8.2,3.2,8.2,3.2C79.2,128.7,79,135.3,79,135.3z M98.8,141.4
			c-0.6,0.5-4.6,1.1-7.8,1.1c-3.1,0-8.1-0.5-8.6-1.2c-0.9-1.5-0.4-7.6-0.3-7c0.1,0.6,6.1,1.4,8.8,1.4c2.7,0,8.1-0.6,8.1-1.2
			S99.3,141,98.8,141.4z M135,84.5c0.9-1.3,5.9-3.3,5.9-3.3c0.5,0.6,1.6,12.4,0.3,14.2c0,0-5.8-1.7-5.8-2
			C135.7,92.3,135.3,85.5,135,84.5z M135.8,97.1c0,0-0.5,2.5-0.7,3.6c-0.6,2.6-1,4.8-2.3,7.7c-1.6,3.5-3.2,6.7-5.5,9.8
			c-0.7,0.8-2.4,3.4-4.4,5.3c-4.4,4.3-8.2,6.6-15.4,9.8c-1.7,0.8-3.6,1.5-5.5,2c0-2.5,0.3-4.9-1.6-6.4c0,0,3.3-0.8,4.9-1.4
			c8.3-3,16.6-12,20.5-20c2-4.1,3.9-12,3.5-12.6C129,94.3,133.8,96.8,135.8,97.1z"/>
		<path class="st0" d="M111.2,103.1c-1.7-0.3-2.7-1.3-2.7-1.3s-0.6,1.1-2.6,1.5c-2.1,0.5-3.9-0.3-3.9-0.3s0.1,2.1-1.3,3.7
			s-4.1,2-4.1,2s1.3,1.5,1.2,2.9c-0.1,1.4-6.9,5.5-6.9,5.5s-6.8-3.7-6.9-5.4c0-1.7,0.5-3.1,0.5-3.1s-2.1-0.5-3.5-1.8
			s-2.3-3.9-2.3-3.9s-1.9,0.5-3.8,0.2c-1.5-0.2-2.4-1.3-2.4-1.3s-0.7,1-2.5,1.3c-1.8,0.3-3.2,0-3.2,0s1,1.6,1.1,3
			c0.1,1.4-0.8,2.6-0.8,2.6s2,0.9,2.9,2.5s1.2,3.4,1.2,3.4s2-0.3,3.9,0.4s3.2,2.2,3.2,2.2s1.1-1.1,2.6-1.5c1.5-0.4,7.6,3.6,9.8,4.9
			c0.5-0.4,7.8-5.9,9.4-5c1.6,0.9,2.5,1.9,2.5,1.9s1.1-2,3.3-2.7c2.2-0.8,4.3-0.7,4.3-0.7s0-1.9,1.4-3.3c1.4-1.4,2.4-1.9,2.4-1.9
			s-0.9-0.7-0.8-2.4c0-1.7,1.1-3.2,1.1-3.2S113,103.5,111.2,103.1z M82.4,113.2c0,0-1,0-2.2,0.3c-1.2,0.4-1.7,1-1.7,1
			s-0.5-0.6-2.5-1.3s-3.2-0.6-3.2-0.6s-0.1-1.7-1.2-3s-1.9-1.5-1.9-1.5s0.3-0.2,0.3-1.7c0-1.5-0.4-1.7-0.4-1.7s0.6,0.1,1.7-0.2
			c1.1-0.3,1.3-0.6,1.3-0.6s0.5,0.7,2.1,0.9c1.7,0.2,2.6,0.1,3-0.1c0,0,0.5,1.5,1.5,2.8c1,1.3,3,1.9,3,1.9s-0.2,0.4-0.2,1.5
			C82,112.1,82.4,113.2,82.4,113.2z M111.7,108.2c0,0-1.1,0.4-1.8,1.3c-0.6,0.8-1,1.7-1.1,2.5c0,0-1.6-0.2-3.3,0.4
			c-1.7,0.7-2.9,1.8-2.9,1.8s-1.8-1.4-3.3-1.1c0,0,0.6-0.7,0.5-2c0-1.3-0.3-1.5-0.3-1.5s1.3-0.3,2.5-1.4s1.4-2.9,1.4-2.9
			s4.2,0.4,5.3-1.1c0.9,0.8,3.1,0.7,3.1,0.7s-0.3,0.4-0.3,1.7C111.4,107.6,111.7,108.2,111.7,108.2z"/>
		<path class="st0" d="M180.9,91.4h-2c0,24.2-9.8,46-25.6,61.9c-15.8,15.8-37.7,25.6-61.9,25.6c-24.2,0-46-9.8-61.9-25.6
			C13.7,137.5,3.9,115.6,3.9,91.4c0-24.2,9.8-46,25.6-61.9C45.4,13.7,67.3,3.9,91.4,3.9c24.2,0,46,9.8,61.9,25.6
			c15.8,15.8,25.6,37.7,25.6,61.9H180.9h2C182.9,40.9,142,0,91.4,0C40.9,0,0,40.9,0,91.4c0,50.5,40.9,91.4,91.4,91.4
			c50.5,0,91.4-40.9,91.4-91.4H180.9z"/>
		<g>
			<path class="st0" d="M50.5,102.4c0.2-0.4,0.2-0.9,0.2-1.2c0-0.2,0.1-0.3,0.1-0.4c0.1-0.1,0.1-0.2,0.3-0.2l0.1,0
				c0.2,0,0.5,0.2,0.5,0.5l0,0.2c0,0.2-0.2,0.4-0.3,0.5l-0.1,0.1l0.1,0.2l0,0.1l0.2,0l0.1,0c0.2,0,0.2,0,0.4,0l0.2,0l0.1-0.2
				c0.1-0.2,0.1-0.4,0.1-0.6c0-0.2,0-0.3-0.1-0.5c-0.2-0.8-0.7-1.2-1.3-1.2c-0.1,0-0.2,0-0.3,0c-0.4,0.1-0.6,0.3-0.8,0.6
				c-0.2,0.4-0.2,0.9-0.3,1.2c0,0.2-0.1,0.3-0.1,0.4c-0.1,0.1-0.1,0.2-0.3,0.2l-0.2,0c-0.3,0-0.5-0.2-0.7-0.6l0-0.3
				c0-0.3,0.2-0.6,0.3-0.7l0.1-0.1l0-0.1l0-0.1l0-0.2l-0.2,0c-0.1,0-0.2,0-0.3,0l-0.2,0l-0.1,0l-0.1,0.1c-0.1,0.2-0.1,0.4-0.1,0.7
				c0,0.2,0,0.3,0.1,0.5c0.2,0.9,0.9,1.4,1.6,1.4c0.1,0,0.3,0,0.4,0C50.1,102.9,50.4,102.7,50.5,102.4z"/>
			<path class="st0" d="M53.2,108.9l0.2-0.1l-0.1-0.2c-0.2-0.3-0.3-0.6-0.6-1.2c0.2-0.1,0.3-0.2,0.5-0.2c0.2-0.1,0.4-0.1,0.5-0.2
				c0.3,0.6,0.4,0.9,0.5,1.4l0.1,0.2l0.3-0.2l0.2,0l0.2-0.1L55,108c-0.2-0.3-0.3-0.7-0.5-1c-0.2-0.3-0.3-0.7-0.4-1.1l-0.1-0.2
				l-0.2,0.1c-0.5,0.2-0.9,0.5-1.4,0.7l-0.9,0.4c-0.5,0.2-0.9,0.4-1.4,0.6l-0.2,0.1l0.1,0.2c0.2,0.3,0.3,0.7,0.5,1
				c0.2,0.4,0.3,0.7,0.4,1.1l0.1,0.2l0.3-0.2l0.2-0.1l0.2-0.1l-0.1-0.2c-0.2-0.3-0.5-0.9-0.7-1.4c0.1-0.1,0.3-0.2,0.6-0.3
				c0.3-0.1,0.5-0.2,0.6-0.3c0.1,0.3,0.4,0.9,0.5,1.3l0.1,0.2l0.3-0.2L53.2,108.9z"/>
			<path class="st0" d="M59.6,115.3l-0.1-0.2l-0.1-0.1l-0.1,0c-1.1,0.1-2.7,0.3-3.5,0.3c0.5-1.1,0.9-2.1,1.5-3.1l0.1-0.1l-0.1-0.1
				l-0.1-0.1l-0.1-0.1l-0.2,0.1c-1.1,0.6-2.6,1.4-3.8,1.9l-0.2,0.1l0.3,0.3l0.1,0.2l0.1,0.2l0.2-0.1c0.4-0.3,1.4-0.8,2.2-1.3
				c-0.4,0.9-0.8,1.8-1.3,2.6l-0.1,0.1l0.1,0.1l0.1,0.1l0.1,0c1-0.2,1.9-0.3,2.9-0.4c-0.6,0.6-1.2,1.1-1.9,1.7l-0.2,0.1l0.2,0.1
				L56,118l0.1,0.2l0.1,0.2l0.2-0.2c1-1,2-1.8,3.1-2.9L59.6,115.3z"/>
			<path class="st0" d="M63.6,120.3c-0.1-0.1-0.5-0.4-0.6-0.5c-0.1-0.1-0.3-0.3-0.4-0.4l-0.1-0.2l-0.1,0.2c-0.3,0.4-0.7,0.8-1,1.2
				l-0.7,0.8c-0.3,0.4-0.7,0.7-1.1,1.1l-0.2,0.2l0.2,0.1l0.2,0.2l0.2,0.2l0.1,0.2l0.2-0.2c0.3-0.4,0.7-0.8,1-1.2l0.1-0.1
				c0.1,0.1,0.1,0.1,0.2,0.2c0.3,0.3,0.8,0.7,1.4,0.7c0.3,0,0.7-0.1,0.9-0.4c0.2-0.2,0.3-0.5,0.3-0.8
				C64.3,120.9,63.8,120.5,63.6,120.3z M61.9,121.5l-0.2-0.2l1-1l0.3,0.3c0.3,0.3,0.4,0.5,0.4,0.7c0,0.1,0,0.2-0.2,0.4
				c-0.2,0.2-0.4,0.3-0.5,0.3C62.4,121.9,62.2,121.7,61.9,121.5z"/>
			<path class="st0" d="M69.7,125c-0.3-0.2-0.6-0.4-1-0.6c-0.3-0.2-0.6-0.4-0.9-0.7l-0.2-0.1l-0.1,0.2c-0.3,0.4-0.5,0.9-0.8,1.3
				l-0.6,0.9c-0.3,0.4-0.6,0.8-0.9,1.3l-0.1,0.2l0.2,0.1c0.3,0.2,0.7,0.4,1,0.6c0.3,0.2,0.6,0.4,0.9,0.7l0.2,0.1l0.2-0.3l0.1-0.1
				l0.2-0.2l-0.2-0.1c-0.3-0.1-0.9-0.5-1.3-0.8c0.1-0.1,0.2-0.3,0.4-0.6c0.2-0.3,0.3-0.5,0.4-0.6c0.3,0.2,0.8,0.6,1.1,0.8l0.2,0.1
				l0.2-0.4l0.1-0.1l0.1-0.2l-0.2-0.1c-0.3-0.2-0.6-0.4-1.2-0.7c0.1-0.1,0.2-0.3,0.3-0.5c0.1-0.2,0.2-0.3,0.3-0.5
				c0.6,0.4,0.8,0.6,1.2,0.9l0.2,0.1l0.2-0.3l0.1-0.1l0.1-0.2L69.7,125z"/>
		</g>
		<path class="st0" d="M75.5,128c-0.2-0.2-0.4-0.3-0.7-0.5c-0.2-0.1-0.5-0.2-0.7-0.3c-0.2-0.1-0.4-0.2-0.6-0.3l-0.2-0.1l-0.1,0.2
			c-0.2,0.5-0.4,1-0.6,1.4l-0.4,0.9c-0.2,0.5-0.4,0.9-0.7,1.4l-0.1,0.2l0.2,0.1l0.3,0.1l0.2,0.1l0.2,0.1l0.1-0.2
			c0.2-0.5,0.4-1,0.6-1.4l0.1-0.2c0.3,0.7,0.6,1.9,0.7,2.3l0,0.1l0.1,0c0.1,0,0.2,0.1,0.3,0.1l0.3,0.2l0.5,0.3l-0.2-0.5
			c-0.2-0.4-0.5-1.6-0.7-2.3c0.1,0,0.2,0,0.3,0c0.2,0,0.5,0,0.7-0.1c0.2-0.1,0.4-0.3,0.5-0.6c0.1-0.2,0.1-0.3,0.1-0.5
			C75.8,128.5,75.7,128.2,75.5,128z M73.4,128.9c0.1-0.3,0.3-0.7,0.5-1c0.1,0,0.2,0.1,0.4,0.2c0.1,0.1,0.3,0.2,0.4,0.3
			c0.1,0.1,0.2,0.2,0.2,0.4l-0.1,0.2c-0.1,0.3-0.3,0.4-0.6,0.4c-0.2,0-0.4-0.1-0.6-0.1c-0.1,0-0.2-0.1-0.2-0.1L73.4,128.9z"/>
		<path class="st0" d="M109.2,129.1c-0.2-0.4-0.4-0.8-0.7-1c-0.3-0.2-0.7-0.4-1.1-0.4c-0.3,0-0.7,0.1-1.1,0.3
			c-0.3,0.1-0.6,0.3-0.9,0.4c-0.3,0.1-0.6,0.2-0.9,0.3l-0.2,0.1l0.1,0.2c0.2,0.5,0.4,0.9,0.6,1.4l0.4,1c0.2,0.5,0.4,1,0.5,1.4
			l0.1,0.2l0.2-0.1c0.3-0.1,0.5-0.2,0.8-0.3c0.3-0.1,0.5-0.2,0.8-0.3c0.4-0.2,0.8-0.4,1.1-0.8c0.3-0.4,0.5-0.8,0.5-1.4
			C109.3,129.7,109.3,129.4,109.2,129.1z M108.1,131.2c-0.2,0.2-0.5,0.4-0.8,0.5c-0.2,0.1-0.5,0.2-0.6,0.2c-0.2-0.3-0.3-0.7-0.4-1
			l-0.4-1c-0.1-0.3-0.3-0.7-0.4-1c0.2-0.1,0.4-0.2,0.7-0.3c0.3-0.1,0.6-0.2,0.9-0.2c0.2,0,0.5,0.1,0.7,0.2c0.2,0.2,0.4,0.4,0.5,0.8
			c0.1,0.3,0.2,0.6,0.2,0.8C108.4,130.7,108.3,131,108.1,131.2z"/>
		<path class="st0" d="M114.3,128.6c-0.3-0.4-0.6-0.9-0.8-1.3l-0.5-0.9c-0.3-0.4-0.5-0.9-0.7-1.3l-0.1-0.2l-0.2,0.2l-0.2,0.2
			l-0.3,0.1l-0.2,0.1l0.1,0.2c0.3,0.4,0.6,0.9,0.8,1.3l0.5,0.9c0.3,0.4,0.5,0.9,0.7,1.3l0.1,0.2l0.2-0.2l0.2-0.2l0.3-0.1l0.2-0.1
			L114.3,128.6z"/>
		<path class="st0" d="M119.9,122.8c-0.2-0.3-0.6-0.4-0.9-0.4c-0.3,0-0.6,0.1-0.8,0.2c-0.3,0.1-0.5,0.2-0.7,0.2
			c-0.2,0-0.3,0-0.4-0.2c-0.1-0.1-0.1-0.2-0.1-0.3c0-0.2,0.1-0.4,0.3-0.5c0.1-0.1,0.2-0.1,0.4-0.1c0.1,0,0.3,0.1,0.4,0.1l0.1,0.1
			l0.2-0.1l0.1-0.1l-0.1-0.1c-0.1-0.2-0.1-0.3-0.2-0.4l0-0.2l-0.2,0c-0.4,0-0.7,0.1-1,0.4c-0.4,0.4-0.7,0.8-0.7,1.2
			c0,0.3,0.1,0.5,0.3,0.8c0.3,0.3,0.6,0.5,0.9,0.5c0.3,0,0.6-0.1,0.8-0.2c0.3-0.1,0.5-0.2,0.7-0.2c0.2,0,0.3,0,0.4,0.2
			c0.1,0.1,0.2,0.3,0.2,0.4c0,0.2-0.1,0.4-0.3,0.6c-0.2,0.2-0.4,0.2-0.6,0.2c-0.2,0-0.3,0-0.4-0.1l-0.1,0l-0.1,0.1l-0.1,0l-0.1,0.1
			l0.1,0.1c0.1,0.2,0.2,0.3,0.2,0.4l0,0.1l0.1,0c0.3,0,0.7-0.1,1.2-0.4c0.5-0.4,0.7-0.9,0.7-1.4
			C120.2,123.4,120.1,123.1,119.9,122.8z"/>
		<path class="st0" d="M125.2,118.2l-0.2-0.3l-0.1-0.1l-0.1,0l-0.2,0l0,0.2c0,0.3-0.1,0.8-0.5,1.2c-0.3,0.4-0.7,0.6-1.1,0.6
			c-0.4,0-0.8-0.2-1.2-0.5c-0.5-0.4-0.7-0.9-0.7-1.3c0-0.4,0.2-0.7,0.5-1.1c0.4-0.4,0.9-0.5,1.1-0.5l0.1,0l0.1-0.1l0-0.1l-0.1-0.1
			l-0.2-0.4l-0.1-0.2l-0.2,0.1c-0.4,0.2-0.8,0.5-1.2,0.9c-0.5,0.6-0.8,1.2-0.8,1.8c0,0.6,0.3,1.2,0.8,1.7c0.5,0.4,1,0.6,1.5,0.6
			c0.7,0,1.4-0.3,1.9-0.9c0.2-0.3,0.4-0.5,0.5-0.8c0.1-0.2,0.2-0.4,0.2-0.6L125.2,118.2L125.2,118.2z"/>
		<path class="st0" d="M129,112.7l-0.1-0.1l-0.2-0.2l-0.1,0.2c-0.1,0.3-0.5,0.9-0.8,1.3c-0.1-0.1-0.3-0.2-0.6-0.4
			c-0.3-0.2-0.5-0.3-0.6-0.4c0.2-0.3,0.5-0.8,0.8-1.1l0.1-0.2l-0.4-0.2l-0.1-0.1l-0.2-0.1l-0.1,0.2c-0.2,0.3-0.3,0.6-0.7,1.2
			c-0.1-0.1-0.3-0.2-0.5-0.3c-0.2-0.1-0.3-0.2-0.5-0.3c0.4-0.6,0.6-0.8,0.9-1.2l0.1-0.2l-0.4-0.2l-0.1-0.1l-0.2-0.1l-0.1,0.2
			c-0.2,0.3-0.4,0.6-0.6,1c-0.2,0.3-0.4,0.6-0.6,0.9l-0.1,0.2l0.2,0.1c0.4,0.3,0.9,0.5,1.3,0.8l0.9,0.6c0.4,0.3,0.9,0.6,1.3,0.9
			l0.2,0.1l0.1-0.2c0.2-0.3,0.4-0.7,0.6-1c0.2-0.3,0.4-0.6,0.6-1l0.1-0.2L129,112.7z"/>
		<path class="st0" d="M132.7,105.5c-0.2-0.1-1.5-0.6-2-0.8c-0.4-0.2-1.5-0.7-1.8-0.8l-0.2-0.1l0,0.3l0,0.2l-0.1,0.2l-0.1,0.2
			l0.2,0.1c0.7,0.3,1.6,0.6,2.5,1c-1,0.5-2.6,1.1-3.8,1.6l-0.1,0l-0.1,0.2l-0.1,0.2l0.2,0.1c0.2,0.1,0.8,0.3,1.5,0.6
			c0.4,0.1,0.9,0.4,1.4,0.6c0.5,0.2,0.9,0.4,1,0.5l0.2,0.2l0.1-0.3l0-0.2l0,0v0l0.1-0.2l0.2-0.2l-0.3-0.1c-0.1,0-0.5-0.2-0.8-0.3
			c-0.4-0.1-0.8-0.3-1-0.4c-0.3-0.1-0.5-0.2-0.7-0.3c1.3-0.6,2.6-1.1,3.9-1.6l0.1,0l0-0.1l0-0.1l0.1-0.2L132.7,105.5z"/>
		<path class="st0" d="M133.2,98.3l-0.3,0c-0.3,0-0.6,0.1-0.7,0.3c-0.3,0.3-0.5,0.6-0.6,0.9c-0.1,0.1-0.2,0.2-0.3,0.3
			c-0.1,0.1-0.2,0.1-0.3,0.1l-0.1,0c-0.3-0.1-0.4-0.3-0.4-0.6l0-0.2c0-0.2,0.1-0.3,0.2-0.4l0.3-0.1l0.1,0l0-0.2l0-0.1l-0.1-0.1
			c-0.2-0.1-0.3-0.2-0.4-0.2l-0.1-0.1l-0.1,0.1c-0.3,0.2-0.4,0.6-0.5,1c0,0.2,0,0.3,0,0.5c0,0.7,0.4,1.2,1,1.4l0.3,0
			c0.3,0,0.6-0.1,0.8-0.3c0.3-0.3,0.5-0.6,0.7-0.9c0.1-0.1,0.2-0.2,0.3-0.3c0.1-0.1,0.2-0.1,0.3-0.1l0.1,0c0.3,0.1,0.5,0.3,0.5,0.7
			l0,0.2c-0.1,0.5-0.4,0.6-0.7,0.7l-0.1,0l0,0.1l0,0.1l0,0.2l0.2,0.1c0.2,0.1,0.3,0.1,0.4,0.2l0.1,0.1l0.1-0.1
			c0.2-0.2,0.5-0.5,0.6-1.1c0-0.2,0.1-0.3,0.1-0.5C134.4,99.1,133.9,98.4,133.2,98.3z"/>
		<path class="st0" d="M110.9,37c0.2-0.7,0-1.4,0.1-1.4c21.8,8.7,39.3,30.9,39.3,55.7c0,32.5-26.6,58.9-59.4,58.9
			s-59.4-26.4-59.4-58.9C31.5,62.8,50,39.1,77,33.6c0,0-0.6,1.1-0.8,1.7c-0.2,0.6-0.3,1.6-0.3,1.6c-24.7,6-41.4,27.9-41.4,54.2
			c0,30.9,25.3,56,56.5,56c31.2,0,56.5-25.1,56.5-56c0-23.3-16.7-44.3-37.1-52.7C110.4,38.4,110.7,37.6,110.9,37z"/>
		<g>
			<path class="st0" d="M55,36.3L55,36.3C55,36.3,55,36.3,55,36.3L55,36.3z"/>
			<path class="st0" d="M61.6,33.7c-2.4-0.5-4.8-1.1-7.2-1.7c-2.2-0.5-4.3-1-6.4-1.5c0.1-0.6,0.2-1.3,0.3-2.2
				c0.2-1.1,0.4-2.3,0.6-3.4l0,0c0.2-1.2,0.5-2.3,0.7-3.5c0.2-1.1,0.5-2.1,0.7-3l0.7-2.7l-2,1.9c-0.2,0.2-0.3,0.3-0.5,0.5l0,0
				c-0.2,0.1-0.3,0.3-0.5,0.4c-0.1,0.1-0.3,0.2-0.4,0.2l0,0c-0.2,0.1-0.4,0.2-0.5,0.3l-0.4,0.2l0,0.4c-0.1,1-0.2,2.1-0.4,3.2
				c-0.1,1.1-0.3,2.2-0.5,3.3c-0.2,1.1-0.3,2.1-0.5,3.2c-0.1,0.7-0.3,1.3-0.4,1.9L44.8,31l0,0c-0.7-1-1.4-2.1-2.1-3.1v0
				c-0.7-1-1.3-2.1-2-3.2L40.1,24l-0.7,0.6c-0.2,0.2-0.4,0.3-0.5,0.5c-0.2,0.1-0.3,0.3-0.5,0.4l0,0c-0.2,0.1-0.3,0.2-0.5,0.3h0
				c-0.2,0.1-0.4,0.2-0.6,0.3l-0.8,0.4l0.6,0.7c0.8,1,1.6,2,2.3,3l0,0c0.7,1,1.5,2,2.2,3l2.9,4.1c0.7,1,1.4,2.1,2.1,3.1
				c0.7,1,1.3,2.1,2,3.1l0.5,0.7l0.7-0.6c0.3-0.3,0.7-0.6,1.1-0.8l0,0c0.4-0.3,0.8-0.5,1.2-0.8l0.8-0.4L52.1,41
				c-0.7-0.9-1.5-1.9-2.2-2.9c-0.7-1-1.5-2-2.2-3L47,34.2c0.3,0.1,0.6,0.1,0.9,0.2l0,0l0,0c1,0.2,2.1,0.5,3.3,0.8l-0.1,0l0.1,0
				c1.2,0.3,2.5,0.6,3.8,1l0,0c1.3,0.3,2.4,0.6,3.5,0.9l0.4,0.1l0.3-0.3c0.2-0.2,0.4-0.3,0.5-0.4l0,0l0,0c0.2-0.2,0.4-0.3,0.7-0.5
				c0.2-0.2,0.5-0.3,0.7-0.5l0,0l0,0c0.2-0.2,0.4-0.3,0.7-0.4l1.9-1L61.6,33.7z"/>
		</g>
		<path class="st0" d="M82.5,28.9L81.9,28c0-0.1-0.1-0.3-0.2-0.5c0-0.1-0.1-0.2-0.1-0.4l0,0l0,0l0-0.2l0,0l0.1-1.3l-1.2,0.6
			c-0.4,0.2-0.9,0.4-1.5,0.6l0,0c-0.6,0.2-1.2,0.4-1.9,0.6l0,0c-0.7,0.2-1.4,0.4-2.1,0.6h0c-0.5,0.1-0.9,0.2-1.3,0.3
			c-0.1-0.2-0.1-0.5-0.2-0.8v0c-0.2-0.7-0.4-1.6-0.7-2.6L72.5,23l-0.3-1.1v0c-0.1-0.2-0.1-0.4-0.1-0.6c0.2,0,0.4-0.1,0.7-0.2l0,0
			c0.6-0.1,1.2-0.3,1.9-0.4h0c0.7-0.2,1.3-0.3,2-0.4c0.7-0.1,1.2-0.2,1.7-0.3l1-0.1l-0.5-1c-0.1-0.2-0.2-0.4-0.2-0.7l0,0
			c-0.1-0.3-0.1-0.5-0.1-0.7l0-1l-1,0.3c-0.4,0.1-0.8,0.3-1.3,0.4c-0.5,0.1-1,0.3-1.5,0.5l0,0c-0.5,0.2-1.1,0.3-1.8,0.5l0.1,0
			l-0.1,0c-0.4,0.1-1,0.3-1.5,0.4c-0.1-0.2-0.1-0.5-0.2-0.8l0,0c-0.2-0.7-0.4-1.4-0.5-2.1l0,0l0,0c-0.2-0.7-0.3-1.3-0.4-1.8v0
			c-0.1-0.3-0.1-0.7-0.2-1c0.6-0.1,1.2-0.3,1.7-0.4l0,0c0.7-0.1,1.3-0.3,1.9-0.4h0c0.6-0.1,1.1-0.2,1.6-0.3l0.1,0l-0.2,0
			c0.5-0.1,1.1-0.2,1.7-0.3l1-0.2l-0.4-0.9c-0.1-0.2-0.2-0.4-0.2-0.7v0c-0.1-0.2-0.1-0.5-0.1-0.7l0-1l-0.9,0.3
			c-0.8,0.2-1.7,0.5-2.5,0.7l0,0l0,0c-0.8,0.2-1.7,0.5-2.5,0.7h0c-0.9,0.2-1.7,0.4-2.6,0.6l0,0c-0.9,0.2-1.7,0.4-2.6,0.5L65.2,11
			l0.2,0.8c0.4,1.2,0.7,2.4,1,3.6l0,0l0,0c0.3,1.2,0.7,2.4,1,3.6l1.2,4.9c0.3,1.2,0.6,2.4,0.8,3.6c0.2,1.2,0.5,2.4,0.7,3.6l0.2,0.8
			l0.8-0.2c0.9-0.3,1.7-0.5,2.6-0.7l0,0c0.9-0.2,1.7-0.4,2.6-0.6l0,0c0.9-0.2,1.7-0.4,2.6-0.6l0,0c0.8-0.2,1.7-0.4,2.5-0.6
			L82.5,28.9z M81.8,27.5L81.8,27.5C81.8,27.5,81.8,27.5,81.8,27.5L81.8,27.5z"/>
		<path class="st0" d="M144.1,25.7c-0.4-0.1-0.6-0.2-0.7-0.3l0,0c-0.2-0.1-0.4-0.3-0.6-0.6l-0.7-0.8l-0.5,0.9
			c-0.8,1.5-1.8,3-2.8,4.6c-1,1.6-2.1,3.3-3.2,5l-1.2,1.8c-0.2-0.8-0.3-1.7-0.5-2.6c-0.3-1.7-0.6-3.6-1-5.5c-0.3-1.9-0.7-3.9-1-5.9
			c-0.3-2-0.7-3.8-1-5.6l-0.1-0.3l-0.7-0.4l-0.7-0.4l-0.4,0.7c-0.3,0.5-0.8,1.4-1.6,2.5l0,0l0,0c-0.7,1.1-1.6,2.5-2.6,4l0,0
			c-0.3,0.5-0.7,1.1-1.2,1.8l0,0c-0.5,0.7-0.9,1.3-1.4,2l0,0c-0.5,0.7-1,1.4-1.5,2.1c-0.5,0.7-1,1.3-1.4,1.9l0,0
			c-0.4,0.6-0.8,1.1-1.1,1.5l0,0c-0.3,0.4-0.6,0.7-0.6,0.8l-0.7,0.8l0.9,0.5c0.3,0.1,0.6,0.3,0.9,0.5c0.3,0.2,0.5,0.4,0.8,0.6
			l0.8,0.6l0.4-0.9c0-0.1,0.2-0.4,0.4-0.7v0c0.2-0.4,0.5-0.8,0.8-1.3l0,0c0.3-0.5,0.6-1,1-1.6c0.4-0.6,0.7-1.1,1.1-1.7l0,0
			c0.4-0.6,0.7-1.1,1-1.6v0c0.3-0.5,0.6-0.9,0.8-1.3l0,0l0,0c0.9-1.3,1.5-2.3,2-3.1l0,0c0.1-0.1,0.1-0.2,0.2-0.3
			c0.6,3,1.1,6.1,1.7,9.1c0.7,3.7,1.2,7.2,1.7,10.6l0,0.3l0.6,0.4l0.6,0.4l0.4-0.6c0.1-0.2,0.3-0.4,0.5-0.8l0,0
			c0.3-0.4,0.6-0.9,0.9-1.4c0.3-0.5,0.7-1.1,1.1-1.7l0,0c0.4-0.6,0.8-1.2,1.2-1.8v0c0.4-0.6,0.8-1.2,1.1-1.7c0.4-0.6,0.7-1.1,1-1.5
			l0,0l0,0c0.3-0.5,0.7-1.1,1.3-1.8l0,0l0,0c0.5-0.8,1.1-1.5,1.7-2.3h0c0.6-0.8,1.1-1.5,1.6-2.2l0,0c0.5-0.7,0.9-1.2,1.1-1.5
			l0.7-0.8L144.1,25.7z"/>
		<path class="st0" d="M93.4,24.7c0.1-0.1,0.2-0.1,0.3-0.1l0.1,0c0.1,0,0.2,0.1,0.3,0.2c0.1,0.2,0.2,0.4,0.3,0.7
			c0.1-0.2,0.2-0.4,0.4-0.7c0.6-1.1,1.3-2.3,2-3.6c0.4,0,0.9,0.1,1.3,0.1l-0.1,0l0.1,0c0.6,0.1,1.2,0.1,1.8,0.2l0,0l0,0
			c0.6,0.1,1.3,0.2,1.9,0.3l0,0c0.5,0.1,0.9,0.1,1.4,0.2c0.1,0.5,0.3,1.1,0.4,1.6c0.2,0.7,0.4,1.5,0.6,2.2v0c0.2,0.7,0.4,1.4,0.5,2
			v0c0.1,0.6,0.2,1.1,0.3,1.5c1.3-1,2.5-2.3,2.6-2.6c0.1-0.2,0.2-0.6,0.2-0.6s0.1-0.3,0.3-0.3l0.4,0.1c0,0,0,0.1,0.1,0.1
			c-0.2-0.6-0.4-1.2-0.5-1.9l0,0c-0.3-1.2-0.7-2.5-1.1-3.9c-0.4-1.4-0.8-2.8-1.2-4.2l0,0l0,0c-0.4-1.4-0.8-2.8-1.1-4.2v0
			c-0.4-1.4-0.7-2.6-1-3.8l-0.1-0.5l-1.1-0.1l-0.5-0.1L101.5,8c-2,3.2-4,6.4-5.9,9.5c-2,3.1-4,6.2-6,9.4L88.9,28l0.7,0
			C91,27.2,92.2,26.1,93.4,24.7z M101,14.1l1.4,5c-0.2,0-0.3,0-0.5-0.1h0c-0.5-0.1-1.1-0.1-1.6-0.2c-0.5-0.1-1-0.1-1.5-0.2h0
			c-0.2,0-0.3,0-0.5-0.1L101,14.1z"/>
		<path class="st0" d="M28.7,101.8c-0.1-0.3-0.1-0.5-0.1-0.7v0l0,0c0-0.1,0-0.3,0-0.4l0,0c0-0.2,0.1-0.4,0.1-0.6
			c0-0.2,0-0.5-0.2-0.7c-0.2-0.2-0.4-0.3-0.7-0.2c-0.5,0.1-1.5,0.1-3,0.2c-1.5,0-3.7,0.1-6.4,0.1l0,0c-0.3,0-0.7,0-1.1,0
			c-0.3,0-0.6,0-0.9,0h0c-0.7,0-1.4-0.1-2.1-0.2c-0.7-0.1-1.3-0.3-1.9-0.5l0,0c-0.6-0.2-1.1-0.5-1.5-0.9l0,0
			c-0.4-0.4-0.8-0.9-1.1-1.5C9.5,95.8,9.3,95,9.3,94v0l0-0.2c0-0.9,0.1-1.7,0.3-2.3l0,0c0.2-0.7,0.5-1.2,0.9-1.6
			c0.4-0.4,0.8-0.7,1.3-1h0c0.6-0.2,1.1-0.4,1.8-0.5l0,0c0.6-0.1,1.3-0.2,2-0.2c0.7,0,1.4-0.1,2.1-0.1l0,0c0.9,0,1.8,0,2.7,0
			c0.2,0,0.3,0,0.5,0h0c1,0,2,0,2.8,0c0.9,0,1.7,0,2.4,0.1l0,0c0.7,0,1.2,0.1,1.7,0.1c0.2,0,0.5-0.1,0.6-0.3
			c0.2-0.2,0.2-0.4,0.2-0.7c0-0.2-0.1-0.4-0.1-0.6l0,0c0-0.2,0-0.3,0-0.5v0l0-0.1c0-0.2,0-0.4,0-0.6v0c0-0.3,0.1-0.5,0.1-0.7
			c0-0.2,0-0.5-0.2-0.6c-0.2-0.2-0.4-0.3-0.6-0.2c-0.9,0.1-2,0.1-3.2,0.2h0c-1.3,0.1-2.7,0.1-4.4,0.1h0c-0.2,0-0.3,0-0.5,0
			c-0.5,0-1.1,0-1.6,0c-0.5,0-1.1,0-1.8,0c-0.2,0-0.5,0-0.7,0l0,0c-3,0-5.3,0.8-6.8,2.3c-1.5,1.5-2.1,3.8-2.1,6.6l0,0.3
			c0,1.4,0.2,2.7,0.7,3.8c0.4,1.1,1.1,2.1,1.9,2.8c0.8,0.8,1.8,1.3,2.9,1.7h0c1.1,0.4,2.4,0.6,3.8,0.6h0c1.1,0,2.2,0,3.3,0h0
			c1.1,0,2.3,0,3.4,0.1h0c1.1,0,2.1,0.1,3,0.1h0c0.9,0,1.8,0.1,2.4,0.1c0.3,0,0.5-0.1,0.7-0.3C28.7,102.3,28.8,102,28.7,101.8z"/>
		<path class="st0" d="M38.9,127.8c-0.2-0.3-0.4-0.5-0.4-0.6c-0.1-0.2-0.2-0.4-0.2-0.8c-0.1-0.2-0.2-0.4-0.4-0.5
			c-0.2-0.1-0.5-0.1-0.7,0c-1.5,0.8-3.1,1.7-4.8,2.6c-1.7,0.9-3.5,1.8-5.4,2.7l-1.9,0.9c0.3-0.8,0.6-1.6,0.9-2.5
			c0.6-1.6,1.3-3.4,2-5.2c0.7-1.8,1.4-3.7,2.1-5.5c0.7-1.9,1.4-3.6,2-5.2c0.1-0.2,0.1-0.4,0-0.6l-0.2-0.4c-0.1-0.2-0.3-0.3-0.5-0.4
			c-0.2-0.1-0.4,0-0.6,0.1c-0.6,0.3-1.4,0.8-2.6,1.4v0c-1.2,0.6-2.7,1.3-4.3,2.1l0,0c-0.6,0.3-1.2,0.6-2,0.9h0
			c-0.7,0.3-1.5,0.7-2.3,1l0,0c-0.8,0.4-1.6,0.7-2.4,1h0c-0.8,0.3-1.5,0.6-2.2,0.9h0c-0.7,0.3-1.3,0.5-1.7,0.7l0,0
			c-0.5,0.2-0.8,0.3-1,0.3c-0.2,0.1-0.4,0.2-0.5,0.5c-0.1,0.2-0.1,0.5,0.1,0.7c0.2,0.2,0.3,0.5,0.5,0.9l0,0c0.2,0.3,0.3,0.6,0.4,0.9
			c0.1,0.2,0.3,0.4,0.5,0.5c0.2,0.1,0.5,0,0.7-0.1c0.1-0.1,0.3-0.2,0.7-0.4h0c0.4-0.2,0.8-0.5,1.3-0.7h0c0.5-0.3,1.1-0.6,1.7-0.9h0
			c0.6-0.3,1.2-0.6,1.8-0.9v0c0.6-0.3,1.2-0.6,1.7-0.9h0c0.5-0.3,1-0.5,1.4-0.7l0,0c1.4-0.7,2.5-1.2,3.4-1.6c0.1,0,0.2-0.1,0.3-0.1
			c-1.1,2.9-2.2,5.8-3.3,8.6l0.7,0.3l-0.7-0.3c-1.3,3.5-2.6,6.8-4,9.9c-0.1,0.2-0.1,0.4,0,0.6l0.2,0.4c0.2,0.4,0.6,0.5,1,0.3
			c0.2-0.1,0.5-0.2,0.9-0.4l0,0c0.4-0.2,0.9-0.5,1.5-0.8c0.6-0.3,1.2-0.6,1.8-0.9l0,0c0.7-0.3,1.3-0.7,2-1l0,0
			c0.6-0.3,1.3-0.6,1.9-0.9c0.6-0.3,1.1-0.6,1.6-0.8v0c0.5-0.2,1.2-0.6,2-0.9h0c0.9-0.4,1.7-0.8,2.6-1.1c0.9-0.4,1.7-0.7,2.5-1.1h0
			c0.8-0.3,1.4-0.6,1.8-0.7c0.2-0.1,0.4-0.3,0.5-0.5C39.1,128.3,39.1,128,38.9,127.8z"/>
		<path class="st0" d="M48.7,138.2c-0.2-0.1-0.4-0.3-0.6-0.4l0,0c-0.2-0.1-0.3-0.2-0.5-0.4c-0.1-0.1-0.3-0.3-0.4-0.4
			c-0.1-0.2-0.3-0.4-0.4-0.6c-0.1-0.2-0.4-0.3-0.6-0.3c-0.2,0-0.4,0.1-0.6,0.3c-0.9,1-1.7,1.9-2.5,2.8c-0.8,0.9-1.7,1.8-2.6,2.7l0,0
			l-3.5,3.6c-0.9,0.9-1.8,1.8-2.7,2.7v0c-0.9,0.9-1.8,1.7-2.7,2.5c-0.2,0.2-0.3,0.4-0.2,0.6c0,0.2,0.1,0.4,0.3,0.6
			c0.3,0.3,0.7,0.6,1,0.9l0,0c0.4,0.3,0.7,0.7,1,1c0.1,0.2,0.4,0.3,0.6,0.3s0.4-0.1,0.6-0.3c0.8-0.9,1.6-1.8,2.5-2.7
			c0.8-0.9,1.7-1.8,2.6-2.8v0l3.5-3.6v0c0.9-0.9,1.8-1.8,2.7-2.6l0,0c0.9-0.9,1.8-1.7,2.8-2.6c0.2-0.2,0.3-0.4,0.2-0.6
			C49,138.6,48.9,138.4,48.7,138.2z"/>
		<path class="st0" d="M73.1,153.1c-0.1-0.3-0.3-0.5-0.6-0.6c-0.4-0.1-0.7-0.2-0.9-0.3c-0.2-0.1-0.5-0.3-0.8-0.5
			c-0.3-0.2-0.7-0.2-1,0.1c-0.5,0.5-1,1-1.7,1.7c-0.7,0.6-1.4,1.4-2.2,2.1c-0.8,0.8-1.6,1.5-2.5,2.3l0,0c-0.8,0.8-1.7,1.6-2.5,2.4h0
			c-0.8,0.8-1.7,1.5-2.5,2.2h0c-0.3,0.3-0.6,0.5-0.8,0.7c0.1-1,0.1-2,0.2-3c0.1-1.6,0.2-3.2,0.3-4.8s0.2-3.1,0.4-4.6
			c0.1-1.5,0.3-2.9,0.5-4.2c0-0.4-0.2-0.7-0.5-0.8c-0.3-0.1-0.5-0.2-0.7-0.2l0,0c-0.2-0.1-0.4-0.2-0.6-0.2c-0.2-0.1-0.4-0.2-0.6-0.3
			l0,0c-0.2-0.1-0.4-0.3-0.7-0.4c-0.2-0.2-0.5-0.2-0.8,0c-0.2,0.1-0.4,0.4-0.4,0.6c-0.1,1.8-0.2,3.7-0.3,5.7c-0.1,2-0.2,4-0.3,5.9
			c-0.1,1.9-0.2,3.8-0.3,5.5c-0.1,1.7-0.2,3.2-0.3,4.4c0,0.4,0.2,0.7,0.5,0.8c0.2,0.1,0.5,0.2,0.8,0.3h0c0.3,0.1,0.5,0.3,0.8,0.4
			c0.3,0.2,0.7,0.2,0.9-0.1c2.6-2.4,5.3-4.9,8-7.2h0c2.7-2.4,5.5-4.8,8.4-7.2C73.1,153.7,73.2,153.4,73.1,153.1z"/>
		<path class="st0" d="M92.8,155.8c0.1-0.2,0-0.5-0.1-0.7c-0.1-0.2-0.4-0.3-0.6-0.3c-0.9,0-1.8-0.1-2.6-0.1c-0.9,0-1.7-0.1-2.6-0.1
			h0c-0.9-0.1-1.7-0.1-2.6-0.2l0,0c-0.9-0.1-1.7-0.2-2.6-0.3c-0.2,0-0.4,0-0.6,0.2c-0.2,0.1-0.3,0.3-0.3,0.6c0,1.2-0.1,2.5-0.1,3.7
			c0,1.2-0.1,2.5-0.2,3.8l-0.4,5c-0.1,1.3-0.2,2.5-0.4,3.7c-0.1,1.2-0.3,2.5-0.4,3.7c0,0.2,0,0.4,0.2,0.6c0.1,0.2,0.3,0.3,0.6,0.3
			c0.9,0,1.8,0.1,2.6,0.1c0.9,0.1,1.8,0.1,2.7,0.2h0c0.9,0.1,1.8,0.1,2.7,0.2h0c0.9,0.1,1.7,0.1,2.6,0.2c0.2,0,0.5-0.1,0.7-0.2
			c0.2-0.2,0.2-0.4,0.2-0.7c0-0.1,0-0.2,0-0.3l0-0.2v0c0-0.1,0-0.3,0-0.4v0c0-0.1,0-0.2,0.1-0.3c0.1-0.3,0-0.5-0.1-0.7
			c-0.2-0.2-0.4-0.3-0.7-0.3c-0.4,0.1-1,0.1-1.6,0.1h-0.1c-0.6,0-1.2,0-1.9,0c-0.7,0-1.4-0.1-2.2-0.1c-0.5,0-0.9-0.1-1.3-0.1
			c0-0.3,0-0.5,0-0.9v0c0-0.7,0.1-1.6,0.2-2.7l0.1-1.7h0l0.1-1.1v0c0-0.2,0-0.4,0.1-0.6c0.2,0,0.4,0,0.7,0.1l0,0
			c0.6,0.1,1.2,0.1,1.9,0.2c0.7,0.1,1.3,0.1,2,0.2c0.7,0.1,1.2,0.2,1.7,0.3c0.2,0,0.5,0,0.7-0.2c0.2-0.2,0.3-0.4,0.2-0.7
			c0-0.2,0-0.3,0-0.5l0-0.3c0-0.3,0.1-0.5,0.1-0.7c0.1-0.2,0-0.5-0.1-0.7c-0.1-0.2-0.4-0.3-0.6-0.3c-0.2,0-0.5,0-0.7,0
			c-0.2,0-0.4,0-0.7,0h0c-0.5,0-1,0-1.6,0h0c-0.6,0-1.2,0-1.9-0.1l0,0c-0.5,0-1,0-1.5-0.1c0-0.3,0-0.5,0.1-0.9v0
			c0-0.7,0.1-1.4,0.1-2.2c0.1-0.7,0.1-1.3,0.2-1.9h0c0-0.3,0.1-0.7,0.1-1c0.6,0.1,1.2,0.1,1.7,0.2l0,0c0.7,0.1,1.3,0.2,1.9,0.2l0,0
			c0.6,0.1,1.1,0.2,1.6,0.2h0c0.5,0.1,1.1,0.2,1.7,0.2c0.2,0,0.5,0,0.6-0.2s0.3-0.4,0.2-0.6c0-0.2,0-0.3,0-0.5l0-0.3v0
			C92.7,156.3,92.7,156.1,92.8,155.8z"/>
		<path class="st0" d="M122.8,169.1c-0.3-0.2-0.8-0.4-1.3-0.8l0,0c-0.6-0.4-1.2-0.8-1.9-1.3c-0.7-0.5-1.4-1-2.1-1.5
			c-0.7-0.5-1.4-1-2.1-1.5h0c-0.7-0.5-1.3-0.9-1.8-1.3c-0.1-0.1-0.2-0.1-0.3-0.2c0.2-0.1,0.5-0.3,0.7-0.4l0,0c0.7-0.5,1.3-1,1.8-1.7
			c0.5-0.7,0.9-1.4,1.2-2.3c0.1-0.4,0.2-0.8,0.2-1.3c0-0.5-0.1-1.1-0.2-1.6c-0.3-0.9-0.7-1.7-1.3-2.3c-0.6-0.6-1.2-1-2-1.2l0,0
			c-0.6-0.2-1.2-0.3-1.8-0.3c-0.2,0-0.4,0-0.6,0c-0.8,0.1-1.6,0.2-2.5,0.5c-0.6,0.2-1.1,0.4-1.7,0.6c-0.5,0.2-1,0.4-1.5,0.5h0
			c-0.5,0.2-1.1,0.3-1.6,0.4l0,0c-0.5,0.1-1.1,0.2-1.6,0.4c-0.2,0-0.4,0.2-0.5,0.4s-0.1,0.4-0.1,0.6c0.4,1.2,0.8,2.4,1.2,3.6
			c0.4,1.2,0.8,2.4,1.1,3.6l1.4,4.8c0.4,1.2,0.7,2.4,1,3.6c0.3,1.2,0.6,2.4,0.9,3.6c0.1,0.2,0.2,0.4,0.4,0.5c0.2,0.1,0.4,0.1,0.6,0
			c0.4-0.2,0.8-0.3,1.3-0.4h0c0.5-0.1,0.9-0.2,1.3-0.3c0.2,0,0.4-0.2,0.5-0.4c0.1-0.2,0.1-0.4,0.1-0.6c-0.4-1.1-0.8-2.3-1.2-3.5l0,0
			c-0.4-1.2-0.8-2.4-1.1-3.6l-0.4-1.3l0,0c0.7,0.4,1.5,0.9,2.3,1.5h0c1,0.7,2,1.4,2.9,2c1,0.7,1.8,1.3,2.6,2
			c0.8,0.6,1.4,1.1,1.8,1.4c0.2,0.2,0.5,0.2,0.8,0.1c0.2-0.1,0.4-0.2,0.7-0.3h0c0.3-0.1,0.6-0.2,0.8-0.2c0.3-0.1,0.6-0.2,0.9-0.2h0
			c0.3-0.1,0.5-0.1,0.8-0.2c0.3-0.1,0.6-0.3,0.6-0.6C123.3,169.6,123.1,169.3,122.8,169.1z M109.4,161.6c-0.4,0.1-0.7,0.2-1,0.3l0,0
			c-0.1,0-0.1,0-0.2,0l-0.3-1h0c-0.3-1-0.6-2-0.8-3v0c-0.2-0.8-0.4-1.6-0.6-2.4c0.1-0.1,0.3-0.1,0.4-0.2c0.4-0.1,0.9-0.3,1.6-0.5
			c0.4-0.1,0.9-0.2,1.4-0.2h0l0.3,0c0.3,0,0.7,0,1,0.1c0.4,0.1,0.7,0.3,1.1,0.6c0.3,0.3,0.5,0.7,0.7,1.3c0.1,0.4,0.2,0.8,0.2,1.1
			c0,0.2,0,0.5-0.1,0.7c-0.2,0.5-0.4,1-0.8,1.4h0c-0.4,0.4-0.8,0.7-1.3,1C110.4,161.3,109.9,161.5,109.4,161.6L109.4,161.6z"/>
		<path class="st0" d="M143.8,152.7c-0.2-0.9-0.7-1.8-1.3-2.6h0c-0.7-0.9-1.5-1.6-2.5-1.9l0,0c-0.6-0.2-1.3-0.3-2-0.3
			c-0.2,0-0.4,0-0.7,0h0c-0.9,0.1-1.7,0.3-2.6,0.5l0,0c-0.8,0.2-1.5,0.4-2.3,0.5h0c-0.3,0-0.6,0.1-0.9,0.1c-0.4,0-0.7,0-1-0.1
			c-0.5-0.1-0.9-0.4-1.4-1l0,0c-0.3-0.3-0.4-0.7-0.5-1.1v0c-0.1-0.2-0.1-0.4-0.1-0.6c0-0.1,0-0.3,0-0.4v0c0.1-0.4,0.2-0.7,0.4-1v0
			c0.2-0.3,0.5-0.6,0.9-0.9l0,0c0.4-0.3,0.7-0.4,1-0.5l0,0c0.2,0,0.4-0.1,0.6-0.1c0.1,0,0.2,0,0.3,0h0c0.3,0,0.6,0.1,0.8,0.2l0,0
			c0.3,0.1,0.6,0.3,0.8,0.4c0.3,0.2,0.6,0.2,0.9,0l0.3-0.2c0.3-0.2,0.4-0.6,0.2-0.9c-0.2-0.5-0.4-0.9-0.5-1.3l0,0
			c-0.1-0.3-0.2-0.6-0.2-1c-0.1-0.4-0.4-0.6-0.7-0.7l-0.3,0c-0.8,0-1.5,0.1-2.2,0.3c-0.8,0.3-1.6,0.7-2.4,1.3h0
			c-0.8,0.6-1.5,1.3-2.1,2.1v0c-0.5,0.8-0.9,1.6-1,2.4c-0.1,0.4-0.1,0.8-0.1,1.2c0,0.4,0.1,0.9,0.2,1.3c0.2,0.8,0.6,1.6,1.1,2.3
			c0.8,1,1.6,1.7,2.6,2c0.7,0.3,1.5,0.4,2.2,0.4c0.2,0,0.3,0,0.5,0c0.9-0.1,1.7-0.2,2.6-0.5c0.8-0.2,1.5-0.4,2.3-0.5h0
			c0.3-0.1,0.6-0.1,0.9-0.1c0.3,0,0.7,0,1,0.1c0.5,0.1,0.9,0.4,1.4,1c0.3,0.4,0.5,0.8,0.6,1.2c0.1,0.3,0.1,0.6,0.1,0.9
			c0,0.1,0,0.2,0,0.4c-0.1,0.4-0.2,0.8-0.4,1.2c-0.2,0.4-0.5,0.7-1,1.1c-0.4,0.3-0.9,0.5-1.3,0.7h0c-0.4,0.1-0.9,0.2-1.2,0.2h0
			c-0.4,0-0.8-0.1-1.2-0.2l0,0c-0.4-0.1-0.7-0.3-1-0.4c-0.3-0.1-0.6-0.1-0.8,0.1l-0.3,0.2c-0.3,0.2-0.4,0.7-0.2,1
			c0.3,0.5,0.5,0.9,0.7,1.2c0.1,0.3,0.3,0.6,0.4,1c0.1,0.3,0.4,0.6,0.7,0.6l0.2,0c0.7,0,1.4-0.1,2.1-0.3c0.9-0.2,1.9-0.7,2.9-1.5
			c1-0.7,1.8-1.5,2.3-2.4h0c0.6-0.9,1-1.8,1.1-2.7c0.1-0.4,0.1-0.7,0.1-1.1C144.1,153.9,144,153.3,143.8,152.7z"/>
		<path class="st0" d="M159,140.6c-1-0.7-2-1.4-3.1-2.1c-1-0.7-2.1-1.4-3.1-2.2l-4-3c-1-0.8-2-1.5-3-2.3c-1-0.8-1.9-1.6-2.9-2.4
			c-0.2-0.1-0.4-0.2-0.6-0.2c-0.2,0-0.4,0.2-0.5,0.4c-0.1,0.2-0.2,0.4-0.3,0.6l0,0c-0.1,0.2-0.2,0.4-0.3,0.5l0,0
			c-0.1,0.2-0.3,0.3-0.4,0.5c-0.2,0.2-0.3,0.3-0.5,0.5c-0.2,0.2-0.3,0.4-0.2,0.6c0,0.2,0.1,0.4,0.3,0.6c1.1,0.7,2.1,1.4,3.1,2.1h0
			c1,0.7,2,1.4,3.1,2.2l4,3c1,0.8,2,1.5,3,2.3h0c1,0.8,1.9,1.6,2.9,2.3c0.2,0.1,0.4,0.2,0.6,0.2c0.2,0,0.4-0.2,0.5-0.3
			c0.2-0.4,0.5-0.7,0.8-1.1l0,0c0.3-0.4,0.6-0.7,0.9-1.1c0.1-0.2,0.2-0.4,0.2-0.6C159.3,140.9,159.2,140.7,159,140.6z"/>
		<path class="st0" d="M170.7,119.1c-0.1-0.2-0.3-0.4-0.5-0.4c-1.2-0.4-2.3-0.7-3.5-1.1h0c-1.2-0.4-2.4-0.8-3.6-1.2h0l-4.8-1.7
			c-1.7-0.6-3.3-1.2-5-1.9c0.1-0.3,0.2-0.5,0.3-0.8c0.2-0.5,0.4-1,0.6-1.5v0c0.2-0.5,0.4-1,0.6-1.5v0c0.2-0.5,0.4-0.9,0.6-1.2
			c0.1-0.2,0.1-0.5,0-0.7c-0.1-0.2-0.4-0.4-0.6-0.4c-0.3,0-0.6-0.1-0.7-0.1c-0.1,0-0.4-0.2-0.7-0.4c-0.2-0.1-0.5-0.2-0.7-0.1
			c-0.2,0.1-0.4,0.3-0.5,0.5c-0.4,1.2-0.8,2.4-1.2,3.6c-0.4,1.2-0.8,2.3-1.2,3.5c-0.4,1.2-0.9,2.4-1.3,3.5c-0.4,1.1-0.9,2.3-1.4,3.5
			c-0.1,0.2-0.1,0.5,0.1,0.7s0.3,0.3,0.6,0.4c0.4,0,0.6,0.1,0.7,0.1c0.2,0.1,0.4,0.2,0.6,0.4c0.2,0.1,0.5,0.2,0.7,0.1
			c0.2-0.1,0.4-0.3,0.5-0.6c0.1-0.4,0.2-0.8,0.3-1.3c0.1-0.5,0.3-1,0.4-1.5v0c0.2-0.5,0.3-1,0.5-1.6h0c0.1-0.3,0.2-0.5,0.3-0.8
			c1.7,0.6,3.4,1.1,5,1.7l4.8,1.7h0c1.2,0.4,2.4,0.9,3.5,1.3h0c1.2,0.5,2.3,0.9,3.4,1.4c0.2,0.1,0.4,0.1,0.6,0
			c0.2-0.1,0.3-0.3,0.4-0.5c0.1-0.4,0.2-0.8,0.4-1.3c0.2-0.5,0.3-0.9,0.5-1.3C170.8,119.5,170.8,119.3,170.7,119.1z"/>
		<path class="st0" d="M175.2,90.8L175.2,90.8c0-0.1,0-0.3,0-0.4c0-0.3,0-0.7,0-1c0-0.2-0.1-0.5-0.2-0.6c-0.2-0.2-0.4-0.2-0.6-0.2
			c-0.4,0-0.9,0.1-1.6,0.1h0c-0.7,0-1.4,0.1-2.2,0.1h0c-0.8,0-1.6,0.1-2.4,0.1c-0.8,0-1.5,0-2.1,0.1c-0.6-0.3-1.2-0.6-1.9-1
			c-0.8-0.4-1.6-0.9-2.6-1.4v0c-0.9-0.5-2-1.2-3.2-1.9l0,0c-1.2-0.7-2.5-1.5-3.9-2.4c-0.3-0.2-0.6-0.2-0.9,0
			c-0.3,0.2-0.4,0.5-0.3,0.8c0.1,0.5,0.1,0.8,0.2,1v0l0,0c0,0.2,0,0.5-0.1,1c-0.1,0.4,0.1,0.7,0.4,0.8c0.8,0.4,1.7,0.8,2.6,1.2l0,0
			c0.9,0.4,1.8,0.9,2.7,1.3c0.9,0.5,1.8,0.9,2.6,1.4c0.4,0.2,0.8,0.5,1.2,0.7c-1.4,0.8-2.7,1.6-4,2.3c-1.6,0.9-3.3,1.9-5,2.8
			c-0.3,0.2-0.4,0.5-0.4,0.8c0,0.3,0.1,0.5,0.1,0.8v0c0,0.2,0.1,0.5,0.1,0.7v0l0,0.1c0,0.2,0,0.4,0,0.6c0,0.3-0.1,0.5-0.1,0.8
			c0,0.3,0.1,0.6,0.4,0.7c0.3,0.2,0.6,0.2,0.8,0c0.3-0.2,0.8-0.5,1.4-0.9c0.6-0.4,1.3-0.8,2.1-1.3l0,0c0.8-0.5,1.6-1,2.4-1.5
			c0.8-0.5,1.6-1,2.4-1.5v0c0.8-0.5,1.5-0.9,2.1-1.3l0,0c0.5-0.3,0.9-0.6,1.3-0.8c1.5,0,3,0,4.3-0.1c0.1,0,0.3,0,0.4,0
			c1.3,0,2.4,0,3.3,0.1c0.2,0,0.5-0.1,0.6-0.2c0.2-0.2,0.2-0.4,0.2-0.6C175.2,91.8,175.2,91.3,175.2,90.8z"/>
		<path class="st0" d="M26.1,62.5c-2.3,0-4.2-1.9-4.2-4.3c0-2.4,1.9-4.3,4.3-4.3c2.4,0,4.3,1.9,4.3,4.3
			C30.4,60.6,28.5,62.5,26.1,62.5L26.1,62.5z"/>
		<path class="st0" d="M153.7,62.5c-2.3,0-4.2-1.9-4.2-4.3c0-2.4,1.9-4.3,4.3-4.3c2.4,0,4.3,1.9,4.3,4.3
			C158.1,60.6,156.1,62.5,153.7,62.5L153.7,62.5z"/>
		<path class="st0" d="M64.3,55.7c0-0.6-0.1-1.1-0.1-1.7c0-0.6,0-1.2,0-1.8v-2.3c0-0.6,0-1.2,0-1.8c0-0.6,0-1.2,0.1-1.8l0-0.2L64,46
			l-0.2-0.1l-0.2,0.1c-0.5,0.2-1,0.5-1.5,0.7h0c-0.5,0.2-1.1,0.5-1.6,0.7l-0.2,0.1v0.4V48l0.2,0.1c0.1,0.1,0.2,0.2,0.3,0.3l0.2,0.3
			l0.3-0.2l1.1-0.6v4.3c0,0.6,0,1.2,0,1.8c0,0.6,0,1.1-0.1,1.7l0,0.5l0.5-0.1l0.3,0c0.1,0,0.2,0,0.3,0c0.1,0,0.2,0,0.3,0l0.3,0
			l0.5,0.1L64.3,55.7z"/>
		<g>
			<polygon class="st0" points="68.1,49.5 68.1,49.5 68.1,49.5 			"/>
			<path class="st0" d="M74.3,52.9c0-0.5-0.1-0.9-0.3-1.2c-0.2-0.3-0.4-0.6-0.6-0.8l0,0c-0.2-0.2-0.4-0.3-0.6-0.4
				c0.2-0.2,0.4-0.4,0.6-0.6c0.3-0.4,0.5-0.9,0.5-1.4c0-0.3-0.1-0.6-0.2-0.9c-0.1-0.3-0.3-0.6-0.6-0.8c-0.3-0.2-0.6-0.4-0.9-0.5
				c-0.4-0.1-0.8-0.2-1.3-0.2c-0.4,0-0.8,0.1-1.2,0.2c-0.4,0.1-0.7,0.3-0.9,0.6l0,0l0,0c-0.3,0.2-0.5,0.5-0.6,0.8v0
				c-0.1,0.3-0.2,0.7-0.2,1c0,0.3,0.1,0.6,0.2,0.9c0.1,0.3,0.3,0.5,0.4,0.7c0.1,0.2,0.3,0.3,0.5,0.4c-0.4,0.2-0.8,0.5-1,0.9
				c-0.3,0.5-0.5,1.1-0.5,1.8c0,0.5,0.1,0.9,0.3,1.3l0,0l0,0c0.2,0.4,0.4,0.7,0.7,1c0.3,0.3,0.7,0.5,1.1,0.6h0
				c0.4,0.1,0.9,0.2,1.3,0.2c0.5,0,0.9-0.1,1.3-0.2h0c0.4-0.1,0.8-0.4,1.1-0.7l0,0l0,0c0.3-0.3,0.6-0.7,0.7-1.1v0
				C74.2,53.9,74.3,53.4,74.3,52.9z M72.3,53.2c0,0.3,0,0.6-0.1,0.8v0c-0.1,0.2-0.2,0.4-0.3,0.6l0,0c-0.1,0.2-0.3,0.3-0.5,0.4
				c-0.2,0.1-0.4,0.1-0.6,0.1c-0.2,0-0.4,0-0.6-0.1c-0.2-0.1-0.3-0.2-0.5-0.4c-0.1-0.2-0.2-0.4-0.3-0.6v0c-0.1-0.2-0.1-0.5-0.1-0.8
				s0-0.6,0.1-0.8l0,0l0,0c0.1-0.2,0.2-0.4,0.3-0.6l0,0c0.1-0.2,0.3-0.3,0.5-0.4c0.2-0.1,0.4-0.1,0.6-0.1c0.2,0,0.4,0,0.6,0.1
				c0.2,0.1,0.3,0.2,0.5,0.4c0.1,0.2,0.2,0.4,0.3,0.6v0C72.3,52.6,72.3,52.9,72.3,53.2z M70.1,49.7L70.1,49.7
				c-0.1-0.1-0.2-0.3-0.2-0.4v0c0-0.2-0.1-0.4-0.1-0.6c0-0.2,0-0.4,0.1-0.6v0c0-0.2,0.1-0.3,0.2-0.4l0,0l0,0
				c0.1-0.1,0.2-0.2,0.3-0.3l0,0l0,0c0.1-0.1,0.3-0.1,0.5-0.1c0.2,0,0.4,0,0.5,0.1l0,0c0.1,0.1,0.2,0.2,0.3,0.3l0,0
				c0.1,0.1,0.2,0.3,0.2,0.4l0,0c0,0.2,0.1,0.4,0.1,0.6c0,0.2,0,0.4-0.1,0.6l0,0c0,0.2-0.1,0.3-0.2,0.4c-0.1,0.1-0.2,0.2-0.3,0.3
				C71.3,50,71.1,50,70.9,50c-0.2,0-0.4,0-0.5-0.1C70.2,49.9,70.1,49.8,70.1,49.7z M69.1,50.7L69.1,50.7
				C69.1,50.7,69.1,50.7,69.1,50.7L69.1,50.7z"/>
			<polygon class="st0" points="73.4,50.9 73.4,50.9 73.4,50.9 			"/>
		</g>
		<g>
			<polygon class="st0" points="112.5,54.1 112.5,54.1 112.5,54.2 			"/>
			<polygon class="st0" points="111,50 111,50 111,50 			"/>
			<path class="st0" d="M112.5,51.6c-0.1-0.4-0.3-0.7-0.6-1h0c-0.3-0.3-0.6-0.5-1-0.7l0,0c-0.4-0.2-0.8-0.2-1.2-0.2
				c-0.4,0-0.8,0-1.1,0.1h0c0,0,0,0-0.1,0l0.1-2.1c0.1,0,0.3,0,0.5,0h0c0.3,0,0.7,0,1.1,0h0c0.4,0,0.7,0,1,0.1
				c0.3,0,0.6,0.1,0.8,0.1l0.6,0.1l-0.2-0.6l0-0.1c0-0.1,0-0.2,0-0.4v0l0,0l0.1-0.3l0.1-0.2l-0.3-0.2l-0.1-0.1l-0.1,0
				c-0.2,0-0.4,0-0.7,0l0,0l0,0c-0.3,0-0.7,0-1.2,0c-0.7,0-1.3,0-1.6,0l0,0c-0.4,0-0.6-0.1-0.7-0.1l-0.2,0l-0.3,0.2l-0.2,0.1l0,0.2
				c0,0.3,0.1,0.6,0.1,1c0,0.4,0,0.8,0,1.2c0,0.4,0,0.8,0,1.2c0,0.4-0.1,0.7-0.1,1.1l0,0.3l0.4,0.2l0.2,0.1l0.2-0.1
				c0.1,0,0.2-0.1,0.4-0.2c0.2-0.1,0.4-0.1,0.8-0.1c0.2,0,0.4,0,0.6,0.1h0c0.2,0.1,0.3,0.2,0.5,0.3l0,0l0,0c0.1,0.1,0.3,0.3,0.3,0.5
				c0.1,0.2,0.1,0.5,0.1,0.9c0,0.4-0.1,0.7-0.2,1v0c-0.1,0.3-0.2,0.5-0.4,0.7c-0.2,0.2-0.3,0.3-0.5,0.4l0,0l0,0
				c-0.2,0.1-0.4,0.1-0.7,0.1c-0.2,0-0.3,0-0.5-0.1h0c-0.2,0-0.3-0.1-0.5-0.2l0,0c-0.1-0.1-0.3-0.2-0.4-0.3l0,0
				c-0.1-0.1-0.2-0.2-0.3-0.3l-0.1-0.2H107h-0.3l-0.1,0.3c0,0.1,0,0.2-0.1,0.4l0,0l0,0c0,0.1-0.1,0.3-0.1,0.4l0,0.1v0.2v0.2l0.2,0.1
				c0.3,0.2,0.7,0.4,1.2,0.5h0c0.4,0.1,0.8,0.1,1.3,0.1c0.6,0,1.1-0.1,1.5-0.3c0.5-0.2,0.9-0.4,1.2-0.7c0.3-0.3,0.6-0.7,0.8-1.1l0,0
				c0.2-0.4,0.3-0.9,0.3-1.4C112.8,52.4,112.7,52,112.5,51.6z"/>
			<path class="st0" d="M120.4,52.8c0-0.4-0.1-0.8-0.2-1.1c-0.1-0.4-0.3-0.7-0.6-1l0,0l0,0c-0.3-0.3-0.6-0.5-1-0.7l0,0l0,0
				c-0.4-0.2-0.8-0.2-1.2-0.2c-0.4,0-0.8,0-1.1,0.1h0c0,0,0,0-0.1,0l0.1-2.1c0.1,0,0.3,0,0.5,0h0c0.3,0,0.7,0,1.1,0h0
				c0.4,0,0.7,0,1,0.1c0.3,0,0.6,0.1,0.8,0.1l0.6,0.1l-0.2-0.6l0-0.1c0-0.1,0-0.2,0-0.4v0v0l0.1-0.3l0.1-0.2l-0.3-0.2l-0.1-0.1
				l-0.1,0c-0.2,0-0.4,0-0.7,0c-0.3,0-0.7,0-1.2,0c-0.7,0-1.3,0-1.7,0h0c-0.4,0-0.6-0.1-0.7-0.1l-0.2,0l-0.2,0.2l-0.2,0.1l0,0.2
				c0,0.3,0.1,0.6,0.1,1c0,0.4,0,0.8,0,1.2c0,0.4,0,0.8,0,1.2c0,0.4-0.1,0.7-0.1,1.1l0,0.3l0.4,0.2l0.2,0.1l0.2-0.1
				c0.1,0,0.2-0.1,0.4-0.2v0c0.2-0.1,0.4-0.1,0.8-0.1c0.2,0,0.4,0,0.6,0.1h0c0.2,0.1,0.3,0.2,0.5,0.3l0,0l0,0
				c0.1,0.1,0.3,0.3,0.3,0.5l0,0v0c0.1,0.2,0.1,0.5,0.1,0.9c0,0.4-0.1,0.7-0.2,1l0,0c-0.1,0.3-0.2,0.5-0.4,0.7
				c-0.2,0.2-0.3,0.3-0.5,0.4l0,0c-0.2,0.1-0.4,0.1-0.6,0.1c-0.2,0-0.3,0-0.5-0.1h0c-0.2,0-0.3-0.1-0.5-0.2l0,0
				c-0.1-0.1-0.3-0.2-0.4-0.3l0,0c-0.1-0.1-0.2-0.2-0.3-0.3l-0.1-0.2h-0.3h-0.3l-0.1,0.3c0,0.1,0,0.2-0.1,0.4l0,0
				c0,0.1-0.1,0.3-0.1,0.4l0,0.1v0.2v0.2l0.2,0.1c0.3,0.2,0.7,0.4,1.2,0.5h0c0.4,0.1,0.8,0.1,1.3,0.1c0.6,0,1.1-0.1,1.5-0.3
				c0.5-0.2,0.9-0.4,1.2-0.7l0,0l0,0c0.3-0.3,0.6-0.7,0.8-1.1v0C120.3,53.7,120.4,53.3,120.4,52.8z"/>
		</g>
		<path class="st0" d="M95.7,45.9c-1,0-2,0-3-0.1c-1,0-1.9-0.1-2.8-0.1c-0.6,0-1.2,0-1.8,0c-0.6,0-1.3,0-1.9,0c-1,0-1.8-0.1-2.5-0.2
			c-3.1-0.5-5.5-2.8-6.2-5.7c-0.6-2.8,0.1-5,2.2-6.8c0.7-0.6,3.4-1.3,3.4-1.3l2.4-0.5l2.3-0.7c2.3-0.8,3.8-2,5.4-3.6
			c0.1-0.1,0.2-0.1,0.3-0.1l0,0c0.1,0,0.2,0.1,0.3,0.2c0.7,1.2,1.2,3.1,0.8,4.5l0,0.1c1-0.2,3.2-0.8,4.8-2.2
			c2.1-1.9,2.6-2.8,2.6-2.8c0.1-0.1,0.2-0.2,0.3-0.2l0,0c0.2,0,0.3,0.1,0.3,0.2c0,0.1,0.4,1.3-0.5,3.6c-0.4,1-0.8,1.9-1.2,2.3
			c0.4-0.1,1-0.4,1.7-0.5c1.5-0.4,3.6-1.8,3.8-2.2c0.3-0.3,1.2-1.3,1.3-1.9c0,0,1.6,4.2,1.3,7.8c-0.4,4.7-4.1,8.8-9.5,9.8
			C98.5,45.8,97.3,45.9,95.7,45.9z M97.9,42.5c0,0,0.4,0,1.1-0.1c0.7-0.1,2.3-0.9,2.3-0.9c2.8-1.5,4.2-3.8,5-6
			c0.4-0.9,0.4-2.3,0.5-2.9c-0.1,0.1-0.1,0.4-0.8,0.9c-2.4,1.7-3,2.1-6.7,2.4h0c-0.2,0-0.6,0-0.9-0.1c-0.5-0.1-0.8-0.1-0.8-0.4
			l0-0.1c0.2-0.4,0.8-1.7,0.8-2.1c0-0.1,0-0.2,0.1-0.3c-0.2,0.1-4.2,2.1-6.7,2.3l-1.2,0l-0.2,0c-0.2,0-0.4-0.1-0.4-0.3
			c0-0.1,0.1-0.2,0.2-0.3l0.2-0.2c0.7-0.9,1.4-1.9,1.6-2.9l-0.9,0.5c-0.8,0.5-1.8,1.1-3,1.4c-0.7,0.2-1.4,0.4-2.2,0.5
			c-2,0.4-3.9,0.8-4.9,2.5c-0.5,0.8-0.4,2.4,0,3.2c1.2,2.5,4.1,2.8,7,2.8h0c0.6,0,1.3,0,1.9,0C90.8,42.4,97.4,42.5,97.9,42.5z"/>
	</g>
</g>
</svg>
