<svg xmlns="http://www.w3.org/2000/svg" xmlns:xlink="http://www.w3.org/1999/xlink" width="487" zoomAndPan="magnify" viewBox="0 0 365.25 80.249996" height="107" preserveAspectRatio="xMidYMid meet" version="1.0"><path fill="#800000" d="M 357.695312 9.859375 L 357.71875 9.8125 L 357.71875 9.761719 C 357.675781 8.902344 357.648438 7.789062 357.648438 6.636719 L 357.648438 6.40625 L 357.429688 6.460938 C 357.136719 6.523438 355.679688 6.523438 354.265625 6.523438 L 349.898438 6.523438 C 349.007812 6.523438 348.210938 6.503906 347.160156 6.453125 L 347.117188 6.453125 L 347.070312 6.46875 C 346.878906 6.566406 346.84375 6.839844 346.832031 6.929688 C 346.816406 7.132812 346.878906 7.300781 347 7.378906 L 347.460938 7.460938 C 348.664062 7.601562 348.722656 7.734375 348.722656 10.273438 L 348.722656 18.828125 C 348.722656 21.34375 348.664062 21.476562 347.460938 21.617188 L 346.808594 21.695312 L 346.746094 21.742188 C 346.613281 21.875 346.585938 22.09375 346.613281 22.253906 C 346.640625 22.429688 346.71875 22.5625 346.832031 22.625 L 346.878906 22.644531 L 346.921875 22.644531 C 348.035156 22.597656 348.832031 22.574219 349.882812 22.574219 C 350.835938 22.574219 351.660156 22.597656 353.035156 22.644531 L 353.082031 22.644531 L 353.125 22.625 C 353.285156 22.546875 353.347656 22.332031 353.355469 22.164062 C 353.363281 21.960938 353.3125 21.792969 353.1875 21.722656 L 352.292969 21.625 C 351.082031 21.519531 351.011719 21.371094 351.011719 18.839844 L 351.011719 15.539062 C 351.011719 15.078125 351.011719 15.078125 351.613281 15.078125 L 353.230469 15.078125 C 354.0625 15.078125 354.6875 15.097656 355 15.183594 C 355.335938 15.289062 355.511719 15.511719 355.636719 15.953125 L 355.882812 16.9375 L 355.925781 16.972656 C 356.15625 17.175781 356.667969 17.167969 356.808594 16.9375 L 356.84375 16.890625 L 356.84375 16.839844 C 356.84375 16.589844 356.828125 16.273438 356.808594 15.917969 C 356.785156 15.484375 356.757812 15 356.757812 14.53125 C 356.757812 14.050781 356.785156 13.539062 356.808594 13.085938 C 356.828125 12.714844 356.84375 12.390625 356.84375 12.125 L 356.84375 12.070312 L 356.808594 12.027344 C 356.695312 11.859375 356.457031 11.839844 356.359375 11.839844 C 356.164062 11.839844 355.988281 11.902344 355.898438 12.007812 L 355.652344 13.035156 C 355.519531 13.609375 355.359375 13.671875 355.175781 13.734375 C 354.929688 13.8125 354.195312 13.867188 353.214844 13.867188 L 351.597656 13.867188 C 350.996094 13.867188 350.996094 13.867188 350.996094 13.40625 L 350.996094 8.390625 C 350.996094 7.621094 350.996094 7.621094 351.527344 7.621094 L 352.976562 7.621094 C 353.957031 7.621094 354.734375 7.621094 355.226562 7.761719 C 356.246094 8.027344 356.554688 8.707031 356.757812 9.875 L 356.765625 9.9375 L 356.820312 9.980469 C 356.90625 10.0625 357.039062 10.105469 357.179688 10.105469 C 357.382812 10.105469 357.605469 10.027344 357.695312 9.859375 Z M 341.761719 14.476562 C 341.761719 10.460938 339.128906 6.140625 333.339844 6.140625 C 328.417969 6.140625 324.707031 9.832031 324.707031 14.714844 C 324.707031 18.8125 327.675781 22.953125 333.339844 22.953125 C 338.148438 22.960938 341.761719 19.316406 341.761719 14.476562 Z M 339.023438 15.21875 C 339.023438 20.121094 336.121094 21.855469 333.648438 21.855469 C 328.753906 21.855469 327.445312 16.890625 327.445312 13.953125 C 327.445312 9 330.40625 7.25 332.941406 7.25 C 337.429688 7.25 339.023438 11.539062 339.023438 15.21875 Z M 318.148438 55.839844 C 318.148438 66.105469 325.785156 75.175781 338.429688 75.175781 C 349.421875 75.175781 358.199219 66.785156 358.199219 55.265625 C 358.199219 45.234375 351.585938 35.703125 338.429688 35.703125 C 326.695312 35.703125 318.148438 44.4375 318.148438 55.839844 Z M 323.847656 54.019531 C 323.847656 41.523438 331.535156 37.480469 337.464844 37.480469 C 348.34375 37.480469 352.507812 47.628906 352.507812 57.042969 C 352.507812 68.28125 346.011719 73.414062 339.179688 73.414062 C 327.949219 73.40625 323.847656 62.460938 323.847656 54.019531 Z M 312.714844 7.371094 C 312.835938 7.265625 312.898438 7.097656 312.882812 6.910156 C 312.863281 6.726562 312.777344 6.566406 312.644531 6.488281 L 312.589844 6.453125 L 312.539062 6.453125 C 310.847656 6.550781 309.851562 6.550781 308.074219 6.453125 L 308.03125 6.453125 L 307.988281 6.46875 C 307.855469 6.539062 307.765625 6.671875 307.738281 6.832031 C 307.703125 7.027344 307.765625 7.222656 307.898438 7.355469 L 307.941406 7.398438 L 308.429688 7.453125 C 308.886719 7.503906 309.179688 7.621094 309.257812 7.679688 C 309.1875 8.019531 308.359375 9.566406 307.855469 10.503906 L 307.746094 10.707031 C 307.171875 11.8125 306.519531 13.007812 305.679688 14.441406 C 305.050781 13.308594 304.441406 12.0625 303.851562 10.859375 C 303.621094 10.390625 303.390625 9.910156 303.152344 9.453125 C 302.984375 9.105469 302.445312 7.894531 302.4375 7.699219 C 302.4375 7.65625 302.542969 7.558594 303.277344 7.453125 L 303.648438 7.398438 L 303.691406 7.355469 C 303.824219 7.222656 303.878906 6.992188 303.824219 6.789062 C 303.789062 6.628906 303.683594 6.503906 303.542969 6.460938 L 303.507812 6.453125 L 303.472656 6.453125 C 302.886719 6.496094 302.039062 6.523438 300.945312 6.523438 C 299.847656 6.523438 298.972656 6.496094 298.203125 6.453125 L 298.152344 6.453125 L 298.105469 6.476562 C 297.992188 6.550781 297.914062 6.671875 297.886719 6.832031 C 297.851562 7.027344 297.902344 7.222656 298.019531 7.355469 L 298.0625 7.40625 L 298.789062 7.539062 C 299.414062 7.644531 299.734375 7.699219 300.527344 9.246094 L 303.328125 14.714844 C 304 16.007812 304.070312 16.273438 304.070312 17.582031 L 304.070312 18.792969 C 304.070312 21.378906 304.011719 21.503906 302.816406 21.636719 L 302.011719 21.714844 L 301.96875 21.757812 C 301.835938 21.890625 301.816406 22.113281 301.84375 22.28125 C 301.871094 22.457031 301.949219 22.589844 302.066406 22.644531 L 302.109375 22.660156 L 302.152344 22.660156 C 303.433594 22.617188 304.265625 22.589844 305.253906 22.589844 C 306.21875 22.589844 307.066406 22.617188 308.480469 22.660156 L 308.527344 22.660156 L 308.570312 22.644531 C 308.683594 22.589844 308.765625 22.449219 308.789062 22.28125 C 308.816406 22.121094 308.800781 21.898438 308.65625 21.757812 L 308.613281 21.714844 L 307.640625 21.636719 C 306.546875 21.554688 306.386719 21.371094 306.386719 18.792969 L 306.386719 17.554688 C 306.386719 15.777344 306.441406 15.601562 307.472656 13.796875 L 308.96875 11.203125 C 309.101562 10.972656 309.230469 10.742188 309.355469 10.523438 C 310.292969 8.886719 310.964844 7.707031 311.972656 7.53125 L 312.6875 7.40625 Z M 303.515625 36.457031 C 302.542969 36.226562 299.53125 35.597656 296.277344 35.597656 C 287.671875 35.597656 282.03125 38.277344 278.222656 42.269531 C 274.6875 46.027344 273.097656 50.9375 273.097656 55.789062 C 273.097656 60.804688 274.917969 65.308594 278.339844 68.734375 C 282.722656 73.183594 288.933594 75.066406 295.710938 75.066406 C 298.789062 75.066406 302.886719 74.386719 305.910156 73.582031 C 306.988281 73.296875 308.023438 73.066406 308.703125 73.066406 C 308.933594 72.898438 308.933594 72.554688 308.765625 72.386719 C 307.738281 71.988281 307.394531 70.617188 307.394531 68.335938 L 307.394531 65.140625 C 307.394531 62.230469 307.449219 60.636719 309.84375 60.34375 L 310.753906 60.230469 C 311.148438 59.882812 311.097656 59.035156 310.699219 58.804688 C 308.816406 58.921875 306.882812 58.972656 304.664062 58.972656 C 301.304688 58.972656 298.167969 58.921875 296.515625 58.804688 C 296.117188 58.972656 296.058594 60 296.515625 60.230469 L 299.027344 60.511719 C 302.5625 60.910156 302.726562 61.257812 302.726562 66.042969 L 302.726562 68.324219 C 302.726562 70.148438 302.445312 71.175781 302.164062 71.574219 C 301.535156 72.539062 299.421875 73.28125 295.898438 73.28125 C 284.445312 73.28125 278.808594 64.664062 278.808594 53.71875 C 278.808594 45.160156 283.648438 37.285156 294.703125 37.285156 C 300.519531 37.285156 304.789062 39.226562 306.378906 45.382812 C 306.722656 45.726562 307.746094 45.664062 307.914062 45.214844 C 307.402344 41.789062 307.058594 38.828125 307.058594 36.941406 C 306.359375 37.082031 304.601562 36.683594 303.515625 36.457031 Z M 294.6875 6.160156 L 294.703125 6.097656 L 294.679688 6.035156 C 294.589844 5.859375 294.34375 5.839844 294.246094 5.839844 C 294.183594 5.839844 294.09375 5.851562 294.023438 5.875 L 293.960938 5.902344 L 293.925781 5.957031 C 293.625 6.488281 293.492188 6.53125 292.230469 6.53125 L 282.421875 6.53125 C 281.359375 6.53125 280.882812 6.476562 280.785156 5.949219 L 280.777344 5.894531 L 280.734375 5.851562 C 280.671875 5.789062 280.558594 5.753906 280.40625 5.753906 C 280.351562 5.753906 280.160156 5.761719 280.054688 5.824219 L 279.992188 5.867188 L 279.972656 5.949219 C 279.804688 6.894531 279.453125 8.398438 279.082031 9.460938 L 279.054688 9.53125 L 279.089844 9.601562 C 279.230469 9.886719 279.71875 10.027344 279.980469 9.832031 L 280.019531 9.804688 L 280.035156 9.761719 C 280.273438 9.210938 280.503906 8.691406 281.058594 8.1875 C 281.582031 7.707031 282.765625 7.636719 283.863281 7.636719 L 285.167969 7.636719 C 285.699219 7.636719 285.699219 7.636719 285.699219 8.210938 L 285.699219 18.839844 C 285.699219 21.414062 285.550781 21.527344 284.390625 21.625 L 283.535156 21.695312 L 283.457031 21.722656 C 283.3125 21.8125 283.234375 21.988281 283.242188 22.199219 C 283.253906 22.359375 283.3125 22.5625 283.472656 22.632812 L 283.515625 22.652344 L 283.5625 22.652344 C 285.011719 22.609375 285.886719 22.582031 286.859375 22.582031 C 287.785156 22.582031 288.554688 22.609375 289.960938 22.652344 L 290.003906 22.652344 L 290.046875 22.632812 C 290.242188 22.539062 290.277344 22.261719 290.277344 22.175781 C 290.285156 21.972656 290.234375 21.804688 290.109375 21.722656 L 289.261719 21.625 C 288.078125 21.519531 288.007812 21.371094 288.007812 18.839844 L 288.007812 8.175781 C 288.007812 7.9375 288.007812 7.707031 288.042969 7.671875 C 288.085938 7.628906 288.34375 7.628906 288.511719 7.628906 L 290.1875 7.628906 C 291.460938 7.628906 292.328125 7.8125 292.832031 8.1875 C 293.050781 8.355469 293.246094 8.957031 293.351562 9.796875 L 293.363281 9.847656 L 293.398438 9.894531 C 293.484375 10 293.644531 10.0625 293.828125 10.0625 C 294.050781 10.0625 294.246094 9.964844 294.324219 9.804688 L 294.351562 9.761719 L 294.34375 9.707031 C 294.273438 9.027344 294.429688 7.117188 294.6875 6.160156 Z M 273.046875 18.785156 L 273.046875 10.316406 C 273.046875 7.71875 273.117188 7.558594 274.328125 7.460938 L 274.972656 7.40625 L 275.007812 7.378906 C 275.121094 7.300781 275.183594 7.132812 275.175781 6.929688 C 275.167969 6.851562 275.140625 6.566406 274.945312 6.46875 L 274.902344 6.453125 L 274.855469 6.453125 C 273.734375 6.496094 272.894531 6.523438 271.921875 6.523438 C 270.90625 6.523438 270.085938 6.496094 268.9375 6.453125 L 268.890625 6.453125 L 268.847656 6.46875 C 268.652344 6.566406 268.617188 6.851562 268.617188 6.929688 C 268.609375 7.132812 268.664062 7.300781 268.785156 7.378906 L 268.820312 7.40625 L 269.457031 7.460938 C 270.667969 7.566406 270.738281 7.726562 270.738281 10.316406 L 270.738281 18.777344 C 270.738281 21.335938 270.675781 21.464844 269.449219 21.617188 L 268.796875 21.695312 L 268.75 21.742188 C 268.617188 21.875 268.589844 22.09375 268.617188 22.261719 C 268.644531 22.441406 268.722656 22.574219 268.839844 22.625 L 268.882812 22.644531 L 268.925781 22.644531 C 270.136719 22.597656 270.933594 22.574219 271.914062 22.574219 C 272.859375 22.574219 273.644531 22.597656 274.847656 22.644531 L 274.890625 22.644531 L 274.9375 22.625 C 275.132812 22.527344 275.167969 22.246094 275.167969 22.164062 C 275.175781 21.960938 275.121094 21.792969 275 21.714844 L 274.328125 21.617188 C 273.105469 21.476562 273.046875 21.34375 273.046875 18.785156 Z M 268.253906 72.730469 C 265.808594 72.449219 265.066406 71.589844 263.414062 66.6875 L 255.609375 43.765625 C 254.753906 41.25 253.84375 38.632812 253.101562 36.117188 C 252.984375 35.722656 252.589844 35.605469 252.242188 35.605469 C 251.617188 36.347656 250.652344 37.375 249.28125 37.773438 C 249.449219 38.683594 249.113281 39.765625 248.3125 41.824219 L 242.503906 57.230469 C 240.109375 63.617188 238.519531 67.324219 237.496094 69.953125 C 236.699219 72.007812 235.445312 72.632812 234.074219 72.75 L 232.191406 72.917969 C 231.847656 73.199219 231.960938 74.113281 232.308594 74.34375 C 233.84375 74.289062 235.894531 74.175781 237.777344 74.175781 C 240.453125 74.226562 242.222656 74.226562 243.707031 74.34375 C 244.21875 74.113281 244.21875 73.199219 243.820312 72.917969 L 241.941406 72.75 C 240.570312 72.632812 240.289062 72.289062 240.289062 71.609375 C 240.289062 70.980469 240.683594 69.441406 241.542969 66.875 L 243.539062 60.882812 C 243.9375 59.691406 244.28125 59.511719 245.703125 59.511719 L 254.300781 59.511719 C 256.007812 59.511719 256.238281 59.679688 256.636719 60.9375 L 259.136719 68.699219 C 259.597656 70.070312 259.878906 71.09375 259.878906 71.722656 C 259.878906 72.296875 259.082031 72.632812 257.890625 72.75 L 256.238281 72.917969 C 255.839844 73.199219 255.894531 74.113281 256.351562 74.34375 C 258.003906 74.289062 260.171875 74.175781 262.902344 74.175781 C 265.464844 74.175781 267.460938 74.226562 269.792969 74.34375 C 270.078125 74.113281 270.191406 73.199219 269.792969 72.917969 Z M 253.558594 57.210938 L 246.550781 57.210938 C 244.953125 57.210938 244.898438 57.160156 245.359375 55.839844 L 248.949219 45.914062 C 249.574219 44.207031 250.140625 42.835938 250.316406 42.550781 L 250.421875 42.550781 C 250.769531 43.234375 251.28125 44.78125 251.730469 46.144531 L 254.804688 55.441406 C 255.320312 56.992188 255.203125 57.210938 253.558594 57.210938 Z M 256.769531 9.707031 C 256.769531 8.789062 257.113281 7.25 259.410156 7.25 C 261.503906 7.25 262.140625 8.609375 262.46875 9.796875 L 262.503906 9.867188 C 262.582031 9.957031 262.707031 10.007812 262.867188 10.007812 C 263.042969 10.007812 263.289062 9.9375 263.386719 9.777344 L 263.414062 9.734375 L 263.414062 9.679688 C 263.414062 8.707031 263.210938 7.355469 262.980469 6.71875 L 262.9375 6.601562 L 262.8125 6.601562 C 262.644531 6.601562 262.328125 6.558594 262.027344 6.46875 C 261.460938 6.320312 260.566406 6.152344 259.773438 6.152344 C 256.769531 6.152344 254.746094 7.867188 254.746094 10.425781 C 254.746094 12.59375 256.398438 14.015625 257.386719 14.664062 L 259.640625 16.140625 C 261.273438 17.191406 261.503906 18.289062 261.503906 19.316406 C 261.503906 20.582031 260.648438 21.863281 258.722656 21.863281 C 256.316406 21.863281 255.265625 20.007812 254.816406 18.457031 L 254.789062 18.40625 C 254.71875 18.300781 254.585938 18.238281 254.425781 18.238281 C 254.265625 18.238281 254.039062 18.300781 253.921875 18.46875 L 253.886719 18.519531 L 253.886719 18.582031 C 253.929688 19.652344 254.242188 21.414062 254.550781 21.988281 L 254.578125 22.03125 L 254.621094 22.058594 C 255.089844 22.332031 256.386719 22.960938 258.410156 22.960938 C 261.539062 22.960938 263.652344 21.121094 263.652344 18.378906 C 263.652344 16.476562 262.652344 14.9375 260.601562 13.664062 L 258.703125 12.476562 C 257.980469 12.027344 256.769531 11.070312 256.769531 9.707031 Z M 250.785156 22.679688 C 250.890625 22.589844 250.953125 22.449219 250.925781 22.316406 C 250.910156 22.183594 250.828125 22.085938 250.714844 22.03125 L 250.660156 22.023438 C 250.097656 21.980469 249.523438 21.75 249.125 21.40625 C 247.488281 20.035156 246.191406 18.023438 244.386719 15.121094 C 244.265625 14.917969 244.246094 14.832031 244.246094 14.796875 C 245.03125 14.46875 247.257812 13.300781 247.257812 10.679688 C 247.257812 8.691406 246.136719 7.679688 245.191406 7.195312 C 244 6.550781 242.480469 6.460938 241.144531 6.460938 C 238.96875 6.460938 237.28125 6.523438 235.832031 6.644531 L 235.773438 6.664062 C 235.628906 6.734375 235.542969 6.886719 235.523438 7.070312 C 235.507812 7.273438 235.585938 7.46875 235.71875 7.566406 L 235.753906 7.59375 L 236.558594 7.691406 C 237.335938 7.789062 237.441406 7.957031 237.441406 10.292969 L 237.441406 18.828125 C 237.441406 21.34375 237.378906 21.476562 236.179688 21.617188 L 235.515625 21.695312 L 235.472656 21.75 C 235.339844 21.910156 235.320312 22.128906 235.355469 22.289062 C 235.390625 22.449219 235.460938 22.5625 235.578125 22.625 L 235.621094 22.644531 L 235.664062 22.644531 C 236.71875 22.597656 237.582031 22.574219 238.625 22.574219 C 239.605469 22.574219 240.429688 22.597656 241.445312 22.644531 L 241.488281 22.644531 L 241.53125 22.625 C 241.710938 22.539062 241.753906 22.308594 241.761719 22.21875 C 241.789062 22.007812 241.726562 21.828125 241.613281 21.730469 L 241.585938 21.695312 L 241.039062 21.617188 C 239.820312 21.449219 239.773438 21.34375 239.773438 18.828125 L 239.773438 15.832031 C 239.773438 15.496094 239.773438 15.496094 240.710938 15.496094 C 241.621094 15.496094 241.929688 15.714844 242.25 16.175781 C 242.609375 16.699219 243.027344 17.359375 243.433594 18.007812 C 243.855469 18.679688 244.253906 19.316406 244.574219 19.757812 C 246.199219 22.085938 247.4375 22.828125 249.636719 22.828125 C 250.097656 22.828125 250.492188 22.785156 250.742188 22.707031 Z M 243.628906 13.839844 C 242.945312 14.351562 242.027344 14.421875 241.292969 14.421875 C 240.226562 14.421875 239.890625 14.378906 239.792969 14.351562 C 239.765625 14.253906 239.765625 13.972656 239.765625 13.699219 L 239.765625 8.132812 C 239.765625 7.601562 239.765625 7.558594 241.125 7.558594 C 243.796875 7.558594 244.742188 9.433594 244.742188 11.035156 C 244.75 12.351562 244.386719 13.246094 243.628906 13.839844 Z M 231.363281 19.203125 L 231.371094 19.148438 L 231.34375 19.09375 C 231.238281 18.867188 230.992188 18.769531 230.789062 18.769531 C 230.671875 18.769531 230.566406 18.804688 230.476562 18.855469 L 230.425781 18.925781 C 229.746094 20.289062 229.136719 20.980469 228.816406 21.148438 C 228.304688 21.40625 227.589844 21.484375 225.855469 21.484375 C 223.878906 21.484375 223.375 21.246094 223.117188 20.996094 C 222.78125 20.644531 222.710938 19.867188 222.710938 18.652344 L 222.710938 15.300781 C 222.710938 14.839844 222.710938 14.839844 223.3125 14.839844 L 224.691406 14.839844 C 225.519531 14.839844 226.140625 14.855469 226.476562 14.953125 C 226.800781 15.035156 226.96875 15.253906 227.074219 15.722656 L 227.289062 16.652344 L 227.324219 16.734375 C 227.410156 16.839844 227.578125 16.902344 227.765625 16.902344 C 227.984375 16.902344 228.164062 16.820312 228.234375 16.679688 L 228.261719 16.636719 L 228.261719 16.582031 C 228.261719 16.351562 228.242188 16.042969 228.226562 15.699219 C 228.199219 15.265625 228.171875 14.777344 228.171875 14.300781 C 228.171875 13.804688 228.199219 13.292969 228.226562 12.847656 C 228.242188 12.484375 228.261719 12.160156 228.261719 11.902344 L 228.261719 11.859375 L 228.234375 11.8125 C 228.152344 11.671875 227.976562 11.59375 227.757812 11.59375 C 227.570312 11.59375 227.402344 11.65625 227.316406 11.761719 L 227.085938 12.8125 C 226.980469 13.351562 226.847656 13.441406 226.632812 13.503906 C 226.378906 13.59375 225.660156 13.636719 224.671875 13.636719 L 223.292969 13.636719 C 222.691406 13.636719 222.691406 13.636719 222.691406 13.148438 L 222.691406 8.398438 C 222.691406 7.628906 222.691406 7.628906 223.222656 7.628906 L 224.929688 7.628906 C 225.9375 7.628906 226.703125 7.65625 227.191406 7.769531 C 228.269531 8.042969 228.488281 8.726562 228.816406 9.761719 L 228.859375 9.902344 L 228.894531 9.964844 C 228.976562 10.0625 229.117188 10.113281 229.285156 10.113281 C 229.445312 10.113281 229.675781 10.0625 229.78125 9.902344 L 229.816406 9.847656 L 229.78125 9.496094 C 229.65625 8.113281 229.542969 6.9375 229.417969 6.574219 L 229.363281 6.417969 L 229.207031 6.453125 C 228.941406 6.515625 227.472656 6.515625 226.042969 6.515625 L 221.578125 6.515625 C 220.660156 6.515625 219.882812 6.496094 218.785156 6.441406 L 218.742188 6.441406 L 218.699219 6.460938 C 218.503906 6.558594 218.46875 6.832031 218.460938 6.921875 C 218.441406 7.132812 218.503906 7.292969 218.628906 7.371094 L 219.085938 7.453125 C 220.308594 7.59375 220.378906 7.753906 220.378906 10.265625 L 220.378906 18.820312 C 220.378906 21.394531 220.226562 21.511719 219.070312 21.609375 L 218.222656 21.6875 L 218.175781 21.730469 C 218.042969 21.863281 218.019531 22.085938 218.042969 22.246094 C 218.070312 22.421875 218.152344 22.554688 218.265625 22.617188 L 218.308594 22.632812 L 218.355469 22.632812 C 219.722656 22.589844 220.554688 22.5625 221.578125 22.5625 L 223.71875 22.5625 C 225.785156 22.5625 227.871094 22.589844 230.082031 22.632812 L 230.195312 22.632812 L 230.25 22.527344 C 230.601562 21.875 231.195312 20.035156 231.363281 19.203125 Z M 215.085938 7.363281 C 215.21875 7.230469 215.234375 7.007812 215.21875 6.851562 C 215.191406 6.671875 215.121094 6.550781 215.003906 6.476562 L 214.960938 6.453125 L 214.90625 6.453125 C 214.113281 6.496094 213.386719 6.523438 212.617188 6.523438 C 211.683594 6.523438 210.789062 6.496094 210.164062 6.453125 L 210.109375 6.453125 L 210.066406 6.476562 C 209.933594 6.558594 209.84375 6.707031 209.828125 6.902344 C 209.808594 7.089844 209.871094 7.265625 209.984375 7.371094 L 210.03125 7.40625 L 210.507812 7.460938 C 211.335938 7.558594 211.417969 7.726562 211.417969 7.726562 C 211.417969 7.886719 211.390625 8.113281 211.214844 8.585938 C 210.808594 9.621094 209.675781 12.34375 209.003906 13.902344 C 208.828125 14.308594 208.605469 14.832031 208.359375 15.414062 C 207.910156 16.484375 207.359375 17.785156 206.894531 18.804688 C 205.769531 16.21875 204.738281 13.628906 203.683594 10.980469 C 202.988281 9.273438 202.589844 8.035156 202.519531 7.726562 C 202.554688 7.65625 202.757812 7.550781 203.472656 7.453125 L 203.878906 7.398438 L 203.921875 7.363281 C 204.046875 7.257812 204.109375 7.078125 204.089844 6.894531 C 204.074219 6.707031 203.984375 6.550781 203.851562 6.46875 L 203.808594 6.441406 L 203.753906 6.441406 C 202.703125 6.496094 201.875 6.515625 200.890625 6.515625 C 199.902344 6.515625 199.144531 6.496094 198.4375 6.441406 L 198.375 6.441406 L 198.320312 6.476562 C 198.179688 6.566406 198.089844 6.726562 198.082031 6.902344 C 198.066406 7.089844 198.136719 7.257812 198.25 7.363281 L 198.292969 7.398438 L 198.78125 7.453125 C 199.699219 7.558594 200.015625 7.984375 200.554688 9.292969 L 204.738281 19.609375 C 205.230469 20.847656 205.601562 21.898438 205.824219 22.75 L 205.851562 22.839844 L 205.9375 22.875 C 206.078125 22.925781 206.222656 22.960938 206.363281 22.960938 C 206.496094 22.960938 206.628906 22.925781 206.726562 22.863281 L 206.777344 22.828125 L 206.796875 22.765625 C 207.203125 21.492188 208.34375 18.6875 209.261719 16.582031 L 210.542969 13.664062 C 211.648438 11.167969 212.558594 9.28125 213.195312 8.222656 C 213.492188 7.734375 213.8125 7.511719 214.28125 7.476562 L 215.058594 7.425781 Z M 199.585938 40.445312 C 195.253906 43.808594 192.410156 49.230469 192.410156 55.558594 C 192.410156 62.917969 195.945312 68.105469 200.496094 71.246094 C 204.65625 74.042969 209.550781 75.066406 214.679688 75.066406 C 218.328125 75.066406 222.429688 74.210938 223.683594 73.757812 C 224.308594 73.527344 224.992188 73.308594 225.679688 73.191406 C 226.535156 72.113281 228.011719 68.34375 228.410156 65.378906 C 228.179688 64.980469 227.324219 64.867188 226.933594 65.148438 C 225.625 68.511719 222.375 73.308594 215.03125 73.308594 C 205.691406 73.308594 198.109375 66.6875 198.109375 54.707031 C 198.109375 42.90625 205.515625 37.367188 214.226562 37.367188 C 222.488281 37.367188 225.050781 41.816406 225.910156 45.691406 C 226.308594 46.039062 227.164062 45.976562 227.445312 45.578125 C 226.996094 42.101562 226.703125 38.507812 226.652344 37.191406 C 226.140625 37.25 225.742188 37.136719 225.0625 36.960938 C 222.382812 36.214844 218.054688 35.589844 214.976562 35.589844 C 209.039062 35.597656 203.738281 37.199219 199.585938 40.445312 Z M 192.292969 18.785156 L 192.292969 10.316406 C 192.292969 7.742188 192.375 7.558594 193.574219 7.460938 L 194.210938 7.40625 L 194.246094 7.378906 C 194.363281 7.300781 194.425781 7.132812 194.414062 6.929688 C 194.40625 6.851562 194.378906 6.566406 194.183594 6.46875 L 194.140625 6.453125 L 194.097656 6.453125 C 192.972656 6.496094 192.136719 6.523438 191.164062 6.523438 C 190.148438 6.523438 189.324219 6.496094 188.175781 6.453125 L 188.132812 6.453125 L 188.085938 6.46875 C 187.894531 6.566406 187.859375 6.839844 187.847656 6.929688 C 187.839844 7.132812 187.894531 7.300781 188.015625 7.378906 L 188.050781 7.40625 L 188.6875 7.460938 C 189.890625 7.566406 189.96875 7.753906 189.96875 10.316406 L 189.96875 18.777344 C 189.96875 21.335938 189.90625 21.464844 188.679688 21.617188 L 188.027344 21.695312 L 187.980469 21.742188 C 187.847656 21.875 187.824219 22.09375 187.847656 22.261719 C 187.875 22.441406 187.957031 22.574219 188.070312 22.625 L 188.113281 22.644531 L 188.160156 22.644531 C 189.359375 22.597656 190.15625 22.574219 191.144531 22.574219 C 192.082031 22.574219 192.902344 22.597656 194.078125 22.644531 L 194.125 22.644531 L 194.167969 22.625 C 194.363281 22.527344 194.398438 22.246094 194.40625 22.164062 C 194.414062 21.960938 194.363281 21.792969 194.238281 21.714844 L 193.566406 21.617188 C 192.355469 21.476562 192.292969 21.34375 192.292969 18.785156 Z M 180.382812 65.484375 L 180.382812 45.179688 C 180.382812 39.136719 180.496094 38.164062 183.855469 37.878906 L 185.277344 37.765625 C 185.621094 37.535156 185.507812 36.507812 185.164062 36.339844 C 182.316406 36.457031 180.382812 36.507812 178.101562 36.507812 C 175.707031 36.507812 173.773438 36.445312 170.925781 36.339844 C 170.582031 36.507812 170.46875 37.535156 170.8125 37.765625 L 172.234375 37.878906 C 175.59375 38.164062 175.707031 39.136719 175.707031 45.179688 L 175.707031 65.484375 C 175.707031 71.527344 175.59375 72.332031 172.234375 72.730469 L 170.8125 72.898438 C 170.46875 73.246094 170.582031 74.15625 170.925781 74.324219 C 173.773438 74.210938 175.714844 74.15625 178.101562 74.15625 C 180.382812 74.15625 182.316406 74.210938 185.164062 74.324219 C 185.507812 74.15625 185.621094 73.128906 185.277344 72.898438 L 183.855469 72.730469 C 180.496094 72.332031 180.382812 71.539062 180.382812 65.484375 Z M 183.324219 7.363281 C 183.441406 7.25 183.492188 7.0625 183.476562 6.875 C 183.457031 6.707031 183.367188 6.566406 183.246094 6.488281 L 183.191406 6.453125 L 183.128906 6.453125 C 182.351562 6.496094 181.734375 6.523438 180.699219 6.523438 C 179.859375 6.523438 179.082031 6.503906 177.90625 6.453125 L 177.871094 6.453125 L 177.835938 6.460938 C 177.695312 6.515625 177.597656 6.636719 177.570312 6.816406 C 177.535156 7.027344 177.597656 7.238281 177.730469 7.363281 L 177.773438 7.398438 L 178.234375 7.453125 C 179.046875 7.558594 179.464844 7.671875 179.578125 7.839844 C 179.859375 8.292969 180.027344 10.042969 180.027344 12.664062 L 180.027344 17.75 C 180.027344 17.980469 180.027344 18.246094 180.011719 18.433594 C 179.1875 17.582031 178.324219 16.617188 177.253906 15.414062 L 173.949219 11.707031 C 171.597656 9.070312 170.253906 7.335938 169.953125 6.566406 L 169.902344 6.433594 L 169.761719 6.453125 C 169.476562 6.496094 169.089844 6.523438 168.691406 6.523438 C 168.277344 6.523438 167.011719 6.523438 166.023438 6.453125 L 165.96875 6.453125 L 165.925781 6.476562 C 165.800781 6.539062 165.710938 6.671875 165.6875 6.832031 C 165.652344 7.027344 165.710938 7.238281 165.828125 7.363281 L 165.871094 7.40625 L 166.339844 7.460938 C 166.976562 7.539062 167.445312 7.71875 167.699219 7.972656 C 168.144531 8.460938 168.179688 8.894531 168.179688 9.558594 L 168.179688 16.644531 C 168.179688 17.792969 168.179688 20.484375 167.886719 21.253906 C 167.832031 21.378906 167.628906 21.539062 166.984375 21.625 L 166.277344 21.707031 L 166.234375 21.75 C 166.128906 21.855469 166.074219 22.023438 166.09375 22.199219 C 166.109375 22.378906 166.191406 22.527344 166.304688 22.617188 L 166.359375 22.652344 L 166.417969 22.652344 C 167.242188 22.609375 167.878906 22.582031 168.875 22.582031 C 169.679688 22.582031 170.484375 22.597656 171.640625 22.652344 L 171.703125 22.652344 L 171.757812 22.617188 C 171.871094 22.539062 171.941406 22.414062 171.96875 22.261719 C 171.996094 22.085938 171.953125 21.910156 171.84375 21.769531 L 171.800781 21.707031 L 170.980469 21.625 C 170.414062 21.582031 170.015625 21.449219 169.910156 21.261719 C 169.652344 20.8125 169.503906 19.050781 169.503906 16.433594 L 169.503906 11.246094 C 169.503906 10.824219 169.511719 10.371094 169.558594 10.042969 C 169.9375 10.46875 170.5625 11.210938 171.128906 11.875 C 171.519531 12.335938 171.871094 12.761719 172.109375 13.027344 L 177.617188 19.300781 C 179.445312 21.386719 180.320312 22.421875 180.636719 22.875 L 180.691406 22.953125 L 180.789062 22.953125 C 181.097656 22.953125 181.335938 22.8125 181.414062 22.5625 L 181.425781 22.527344 L 181.414062 22.492188 C 181.378906 22.21875 181.34375 21.273438 181.34375 18.351562 L 181.34375 12.351562 C 181.34375 11.132812 181.335938 8.601562 181.679688 7.859375 C 181.707031 7.796875 182 7.59375 182.875 7.460938 L 183.261719 7.40625 Z M 162.046875 7.328125 C 162.152344 7.203125 162.203125 7 162.167969 6.832031 C 162.144531 6.683594 162.070312 6.566406 161.949219 6.488281 L 161.894531 6.460938 L 161.832031 6.460938 C 161.011719 6.503906 160.367188 6.53125 159.351562 6.53125 C 158.441406 6.53125 157.554688 6.503906 156.65625 6.460938 L 156.59375 6.460938 L 156.539062 6.496094 C 156.433594 6.566406 156.355469 6.707031 156.328125 6.867188 C 156.300781 7.042969 156.347656 7.222656 156.453125 7.335938 L 156.503906 7.398438 L 157.175781 7.453125 C 157.722656 7.496094 158.09375 7.644531 158.21875 7.859375 C 158.492188 8.34375 158.652344 10.0625 158.652344 12.691406 L 158.652344 15.421875 C 158.652344 18.226562 157.855469 21.5625 154.082031 21.5625 C 150.917969 21.5625 149.445312 19.609375 149.445312 15.398438 L 149.445312 10.265625 C 149.445312 7.734375 149.523438 7.558594 150.699219 7.453125 L 151.316406 7.398438 L 151.351562 7.371094 C 151.46875 7.292969 151.53125 7.132812 151.519531 6.929688 C 151.511719 6.761719 151.441406 6.558594 151.292969 6.476562 L 151.246094 6.460938 L 151.203125 6.460938 C 150.082031 6.503906 149.277344 6.53125 148.296875 6.53125 C 147.324219 6.53125 146.484375 6.503906 145.363281 6.460938 L 145.316406 6.460938 L 145.273438 6.476562 C 145.113281 6.558594 145.050781 6.761719 145.035156 6.921875 C 145.015625 7.125 145.078125 7.285156 145.203125 7.363281 L 145.246094 7.390625 L 145.882812 7.441406 C 147.058594 7.550781 147.136719 7.726562 147.136719 10.257812 L 147.136719 15.867188 C 147.136719 18.742188 147.730469 20.511719 149.054688 21.617188 C 150.097656 22.511719 151.636719 22.972656 153.613281 22.972656 C 155.488281 22.972656 157.273438 22.28125 158.28125 21.175781 C 159.429688 19.9375 159.996094 18.042969 159.996094 15.371094 L 159.996094 12.679688 C 159.996094 11.476562 159.996094 8.65625 160.3125 7.910156 C 160.417969 7.671875 160.824219 7.488281 161.347656 7.441406 L 161.992188 7.390625 Z M 134.757812 37.765625 C 135.101562 37.535156 134.988281 36.507812 134.640625 36.339844 C 132.195312 36.457031 130.257812 36.507812 128.03125 36.507812 C 125.585938 36.507812 123.648438 36.394531 120.855469 36.339844 C 120.511719 36.507812 120.398438 37.535156 120.742188 37.765625 L 122.226562 37.878906 C 125.1875 38.109375 125.585938 39.074219 125.585938 45.0625 L 125.585938 65.601562 C 125.585938 71.589844 125.46875 72.15625 122.28125 72.730469 L 121.316406 72.898438 C 120.972656 73.246094 121.085938 74.15625 121.429688 74.324219 C 123.648438 74.273438 125.59375 74.15625 128.042969 74.15625 C 130.257812 74.15625 132.203125 74.210938 135.277344 74.324219 C 135.625 74.15625 135.738281 73.128906 135.394531 72.898438 L 133.742188 72.730469 C 130.550781 72.386719 130.269531 71.589844 130.269531 65.601562 L 130.269531 57.558594 C 130.269531 55.851562 130.382812 55.734375 133.113281 55.734375 L 149.410156 55.734375 C 152.140625 55.734375 152.253906 55.851562 152.253906 57.558594 L 152.253906 65.601562 C 152.253906 71.589844 152.253906 72.15625 148.78125 72.730469 L 147.703125 72.898438 C 147.359375 73.246094 147.472656 74.15625 147.816406 74.324219 C 150.328125 74.210938 152.378906 74.15625 154.710938 74.15625 C 156.929688 74.15625 158.875 74.210938 161.605469 74.324219 C 161.949219 74.15625 162.0625 73.128906 161.71875 72.898438 L 160.347656 72.730469 C 157.042969 72.332031 156.929688 71.589844 156.929688 65.601562 L 156.929688 45.0625 C 156.929688 39.074219 157.042969 38.214844 160.347656 37.878906 L 161.542969 37.765625 C 161.886719 37.535156 161.773438 36.507812 161.425781 36.339844 C 158.863281 36.457031 156.929688 36.507812 154.703125 36.507812 C 152.371094 36.507812 150.433594 36.445312 147.808594 36.339844 C 147.464844 36.507812 147.351562 37.535156 147.695312 37.765625 L 148.773438 37.878906 C 152.128906 38.226562 152.246094 39.074219 152.246094 45.0625 L 152.246094 51.621094 C 152.246094 53.390625 152.128906 53.445312 149.398438 53.445312 L 133.105469 53.445312 C 130.375 53.445312 130.257812 53.390625 130.257812 51.621094 L 130.257812 45.0625 C 130.257812 39.074219 130.375 38.214844 133.679688 37.878906 Z M 132.460938 19.203125 L 132.46875 19.148438 L 132.441406 19.09375 C 132.335938 18.867188 132.089844 18.769531 131.886719 18.769531 C 131.769531 18.769531 131.664062 18.804688 131.574219 18.855469 L 131.515625 18.925781 C 130.832031 20.289062 130.222656 20.980469 129.914062 21.148438 C 129.402344 21.40625 128.6875 21.484375 126.953125 21.484375 C 124.976562 21.484375 124.472656 21.246094 124.214844 20.996094 C 123.878906 20.636719 123.808594 19.867188 123.808594 18.652344 L 123.808594 15.300781 C 123.808594 14.839844 123.808594 14.839844 124.410156 14.839844 L 125.789062 14.839844 C 126.617188 14.839844 127.238281 14.855469 127.574219 14.953125 C 127.898438 15.035156 128.078125 15.253906 128.171875 15.722656 L 128.386719 16.652344 L 128.421875 16.734375 C 128.507812 16.839844 128.675781 16.902344 128.863281 16.902344 C 129.082031 16.902344 129.25 16.820312 129.332031 16.679688 L 129.359375 16.636719 L 129.359375 16.582031 C 129.359375 16.351562 129.339844 16.042969 129.324219 15.699219 C 129.296875 15.265625 129.269531 14.777344 129.269531 14.300781 C 129.269531 13.804688 129.296875 13.292969 129.324219 12.847656 C 129.339844 12.484375 129.367188 12.160156 129.367188 11.902344 L 129.367188 11.859375 L 129.339844 11.8125 C 129.261719 11.671875 129.082031 11.59375 128.863281 11.59375 C 128.675781 11.59375 128.507812 11.65625 128.421875 11.761719 L 128.191406 12.8125 C 128.085938 13.351562 127.953125 13.441406 127.742188 13.503906 C 127.484375 13.59375 126.777344 13.636719 125.777344 13.636719 L 124.402344 13.636719 C 123.800781 13.636719 123.800781 13.636719 123.800781 13.148438 L 123.800781 8.398438 C 123.800781 7.628906 123.800781 7.628906 124.328125 7.628906 L 126.035156 7.628906 C 127.042969 7.628906 127.8125 7.65625 128.296875 7.769531 C 129.382812 8.042969 129.597656 8.726562 129.921875 9.761719 L 129.96875 9.902344 L 130.003906 9.964844 C 130.082031 10.0625 130.222656 10.113281 130.390625 10.113281 C 130.558594 10.113281 130.78125 10.0625 130.886719 9.902344 L 130.921875 9.847656 L 130.886719 9.496094 C 130.761719 8.113281 130.648438 6.9375 130.523438 6.574219 L 130.472656 6.417969 L 130.3125 6.453125 C 130.046875 6.515625 128.582031 6.515625 127.148438 6.515625 L 122.6875 6.515625 C 121.777344 6.515625 120.988281 6.496094 119.894531 6.441406 L 119.847656 6.441406 L 119.804688 6.460938 C 119.609375 6.558594 119.574219 6.832031 119.574219 6.921875 C 119.558594 7.132812 119.621094 7.292969 119.742188 7.371094 L 120.203125 7.453125 C 121.421875 7.59375 121.492188 7.753906 121.492188 10.265625 L 121.492188 18.820312 C 121.492188 21.394531 121.34375 21.511719 120.183594 21.609375 L 119.335938 21.6875 L 119.292969 21.730469 C 119.160156 21.863281 119.132812 22.085938 119.160156 22.253906 C 119.1875 22.429688 119.265625 22.5625 119.382812 22.617188 L 119.425781 22.632812 L 119.46875 22.632812 C 120.839844 22.589844 121.667969 22.5625 122.695312 22.5625 L 124.832031 22.5625 C 126.902344 22.5625 128.988281 22.589844 131.1875 22.632812 L 131.300781 22.632812 L 131.355469 22.527344 C 131.691406 21.882812 132.292969 20.035156 132.460938 19.203125 Z M 112.621094 18.828125 L 112.621094 10.273438 C 112.621094 7.742188 112.691406 7.585938 113.875 7.460938 L 114.371094 7.417969 L 114.449219 7.390625 C 114.566406 7.308594 114.625 7.152344 114.617188 6.9375 C 114.609375 6.859375 114.582031 6.574219 114.386719 6.476562 L 114.34375 6.460938 L 114.300781 6.460938 C 113.152344 6.515625 112.363281 6.53125 111.507812 6.53125 C 110.480469 6.53125 109.652344 6.503906 108.644531 6.460938 L 108.601562 6.460938 L 108.554688 6.476562 C 108.363281 6.574219 108.328125 6.851562 108.328125 6.9375 C 108.308594 7.140625 108.371094 7.308594 108.492188 7.390625 L 109.023438 7.46875 C 110.234375 7.59375 110.304688 7.753906 110.304688 10.28125 L 110.304688 13.015625 C 110.304688 13.59375 110.304688 13.59375 109.296875 13.59375 L 102.511719 13.59375 C 101.503906 13.59375 101.503906 13.59375 101.503906 13.015625 L 101.503906 10.28125 C 101.503906 7.753906 101.574219 7.59375 102.769531 7.46875 L 103.21875 7.425781 L 103.296875 7.398438 C 103.414062 7.320312 103.476562 7.152344 103.464844 6.945312 C 103.457031 6.867188 103.429688 6.585938 103.226562 6.488281 L 103.183594 6.46875 L 103.140625 6.46875 C 102.0625 6.523438 101.265625 6.539062 100.390625 6.539062 C 99.773438 6.539062 99.234375 6.523438 98.640625 6.503906 C 98.261719 6.496094 97.863281 6.476562 97.402344 6.46875 L 97.359375 6.46875 L 97.324219 6.488281 C 97.128906 6.585938 97.09375 6.859375 97.085938 6.945312 C 97.066406 7.160156 97.128906 7.320312 97.253906 7.398438 L 97.296875 7.425781 L 97.960938 7.476562 C 99.003906 7.558594 99.1875 7.769531 99.1875 10.292969 L 99.1875 18.847656 C 99.1875 21.324219 99.144531 21.421875 97.960938 21.636719 L 97.5 21.714844 L 97.457031 21.757812 C 97.324219 21.890625 97.296875 22.113281 97.324219 22.28125 C 97.351562 22.457031 97.429688 22.589844 97.546875 22.644531 L 97.589844 22.660156 L 97.632812 22.660156 C 97.960938 22.652344 98.269531 22.644531 98.578125 22.632812 C 99.144531 22.617188 99.71875 22.589844 100.382812 22.589844 C 101.273438 22.589844 102.035156 22.609375 103.394531 22.660156 L 103.4375 22.660156 L 103.484375 22.644531 C 103.644531 22.5625 103.703125 22.351562 103.714844 22.183594 C 103.722656 21.980469 103.660156 21.8125 103.546875 21.742188 L 102.777344 21.644531 C 101.636719 21.519531 101.496094 21.40625 101.496094 18.855469 L 101.496094 15.503906 C 101.496094 14.929688 101.496094 14.929688 102.503906 14.929688 L 109.289062 14.929688 C 110.296875 14.929688 110.296875 14.929688 110.296875 15.503906 L 110.296875 18.855469 C 110.296875 21.386719 110.269531 21.441406 109.007812 21.644531 L 108.492188 21.722656 L 108.449219 21.769531 C 108.316406 21.898438 108.289062 22.121094 108.316406 22.289062 C 108.34375 22.464844 108.433594 22.597656 108.539062 22.652344 L 108.582031 22.671875 L 108.625 22.671875 C 109.765625 22.617188 110.589844 22.597656 111.488281 22.597656 C 112.425781 22.597656 113.25 22.625 114.351562 22.671875 L 114.398438 22.671875 L 114.441406 22.652344 C 114.636719 22.554688 114.671875 22.28125 114.679688 22.191406 C 114.699219 21.988281 114.636719 21.820312 114.511719 21.742188 L 113.867188 21.644531 C 112.675781 21.476562 112.621094 21.34375 112.621094 18.828125 Z M 93.101562 6.160156 L 93.117188 6.089844 L 93.082031 6.027344 C 92.996094 5.851562 92.730469 5.832031 92.648438 5.832031 C 92.585938 5.832031 92.5 5.839844 92.429688 5.867188 L 92.367188 5.894531 L 92.332031 5.949219 C 92.023438 6.476562 91.898438 6.523438 90.636719 6.523438 L 80.824219 6.523438 C 79.765625 6.523438 79.289062 6.46875 79.191406 5.9375 L 79.183594 5.886719 L 79.136719 5.839844 C 79.074219 5.777344 78.960938 5.742188 78.8125 5.742188 C 78.757812 5.742188 78.5625 5.753906 78.457031 5.824219 L 78.394531 5.867188 L 78.378906 5.949219 C 78.210938 6.894531 77.855469 8.398438 77.484375 9.460938 L 77.460938 9.53125 L 77.496094 9.601562 C 77.636719 9.882812 78.121094 10.027344 78.386719 9.832031 L 78.421875 9.804688 L 78.441406 9.761719 C 78.679688 9.210938 78.910156 8.691406 79.464844 8.1875 C 79.988281 7.707031 81.171875 7.636719 82.257812 7.636719 L 83.566406 7.636719 C 84.09375 7.636719 84.09375 7.636719 84.09375 8.210938 L 84.09375 18.839844 C 84.09375 21.414062 83.945312 21.527344 82.789062 21.625 L 81.929688 21.695312 L 81.851562 21.722656 C 81.710938 21.8125 81.628906 21.988281 81.640625 22.199219 C 81.648438 22.359375 81.710938 22.5625 81.859375 22.632812 L 81.902344 22.652344 L 81.949219 22.652344 C 83.398438 22.609375 84.28125 22.582031 85.246094 22.582031 C 86.171875 22.582031 86.941406 22.609375 88.347656 22.652344 L 88.390625 22.652344 L 88.433594 22.632812 C 88.59375 22.554688 88.65625 22.34375 88.664062 22.175781 C 88.671875 21.972656 88.621094 21.804688 88.496094 21.730469 L 87.648438 21.636719 C 86.464844 21.527344 86.394531 21.378906 86.394531 18.847656 L 86.394531 8.175781 C 86.394531 7.9375 86.394531 7.707031 86.429688 7.664062 C 86.472656 7.621094 86.730469 7.621094 86.898438 7.621094 L 88.585938 7.621094 C 89.855469 7.621094 90.722656 7.804688 91.226562 8.175781 C 91.449219 8.34375 91.640625 8.945312 91.75 9.789062 L 91.757812 9.839844 L 91.792969 9.882812 C 91.878906 9.992188 92.039062 10.054688 92.226562 10.054688 C 92.445312 10.054688 92.640625 9.957031 92.710938 9.796875 L 92.738281 9.753906 L 92.730469 9.699219 C 92.683594 9.027344 92.84375 7.105469 93.101562 6.160156 Z M 76.9375 55.566406 C 76.9375 62.929688 80.472656 68.113281 85.023438 71.253906 C 89.183594 74.050781 94.082031 75.078125 99.207031 75.078125 C 102.855469 75.078125 106.957031 74.21875 108.203125 73.765625 C 108.828125 73.539062 109.511719 73.316406 110.199219 73.199219 C 111.058594 72.121094 112.53125 68.351562 112.929688 65.386719 C 112.699219 64.988281 111.851562 64.875 111.445312 65.15625 C 110.136719 68.519531 106.886719 73.316406 99.542969 73.316406 C 90.203125 73.316406 82.621094 66.699219 82.621094 54.71875 C 82.621094 42.914062 90.023438 37.375 98.738281 37.375 C 107 37.375 109.5625 41.824219 110.421875 45.703125 C 110.816406 46.046875 111.675781 45.984375 111.957031 45.585938 C 111.5 42.109375 111.214844 38.515625 111.164062 37.199219 C 110.648438 37.261719 110.253906 37.144531 109.570312 36.96875 C 106.894531 36.226562 102.566406 35.597656 99.488281 35.597656 C 93.570312 35.597656 88.265625 37.191406 84.105469 40.445312 C 79.78125 43.816406 76.9375 49.230469 76.9375 55.566406 Z M 62.117188 45.941406 L 62.117188 6.210938 C 30.242188 3.132812 6.179688 6.210938 6.179688 6.210938 C 6.179688 6.210938 6.179688 45.941406 6.179688 45.949219 C 8.71875 72.882812 33.910156 76.042969 34.148438 76.003906 C 38.65625 75.183594 59.777344 70.9375 62.117188 45.941406 Z M 15.160156 55.859375 C 15.671875 56.203125 16.273438 56.355469 16.820312 56.59375 C 17.5 58.371094 16.839844 60.132812 16.457031 59.398438 C 15.785156 58.125 15.519531 57.0625 15.160156 55.859375 Z M 15.195312 36.332031 L 15.148438 36.289062 C 15.097656 36.289062 11.605469 38.492188 9.34375 37.4375 C 11.03125 36.5 16.890625 32.773438 18.492188 31.722656 C 19.242188 31.878906 19.550781 31.617188 19.789062 31.449219 C 19.179688 31.484375 17.148438 31.800781 18.171875 29.988281 C 18.570312 31.617188 21.40625 30.121094 22.433594 29.882812 C 25.277344 29.226562 25.257812 32.269531 25.011719 33.527344 C 24.921875 33.996094 25.886719 34.332031 26.355469 34.261719 C 25.542969 36.269531 24.144531 34.375 23.976562 35.144531 C 23.90625 35.457031 22.980469 35.703125 22.980469 36.472656 C 22.988281 37.527344 23.394531 36.949219 23.4375 37.773438 C 23.484375 38.570312 23.101562 37.949219 23.191406 38.808594 C 23.324219 40.171875 25.578125 38.632812 26.503906 38.996094 C 26.972656 39.179688 27.285156 39.597656 27.734375 39.515625 C 27.867188 39.410156 27.804688 38.886719 27.785156 38.710938 C 27.742188 38.277344 26.9375 38.226562 26.566406 37.640625 C 26.242188 37.128906 26.9375 35.578125 27.308594 35.121094 C 27.847656 37.675781 30.242188 36.871094 30.597656 39.5625 C 30.828125 40.320312 29.773438 41.164062 30.625 42.402344 C 29.996094 43.011719 29.234375 45.921875 30.554688 47.292969 C 30.332031 47.914062 30.03125 49.339844 31.207031 50.179688 C 30.808594 51.019531 30.90625 52.054688 31.234375 53.105469 C 30.5 53.105469 30.648438 48.992188 26.257812 48.859375 C 26.160156 48.832031 26.132812 49.328125 26.257812 49.550781 C 26.789062 50.480469 27.488281 50.425781 27.335938 52.601562 C 27.285156 53.347656 26.851562 52.46875 26.613281 52.265625 C 26.082031 51.796875 25.667969 51.734375 25.4375 50.203125 C 23.652344 51.601562 23.828125 53.300781 23.941406 54.160156 C 23.941406 54.160156 23.546875 53.089844 23.09375 51.984375 C 23.066406 51.921875 24.90625 49.71875 25.199219 49.1875 C 28.898438 42.515625 22.804688 51.347656 22.792969 51.320312 C 22.46875 50.558594 22.175781 49.902344 21.988281 49.691406 C 22.035156 49.601562 23.050781 48.460938 23.511719 47.507812 C 26.371094 41.535156 21.804688 49.496094 21.644531 49.347656 C 21.300781 49.035156 21.019531 48.648438 20.796875 48.789062 C 20.742188 49.710938 20.523438 49.585938 20.59375 50.515625 C 20.117188 51.152344 19.089844 52.152344 18.375 52.65625 C 18.375 52.65625 18.199219 51 18.242188 50.9375 C 18.605469 50.496094 20.011719 48.984375 20.300781 48.53125 C 24.996094 41.152344 18.101562 50.3125 18.09375 50.230469 C 18.039062 49.941406 17.667969 49.453125 17.261719 49.046875 C 17.261719 49.046875 18.78125 46.964844 19.164062 46.195312 C 22.015625 40.3125 16.863281 48.796875 16.8125 48.773438 C 16.6875 48.710938 16.679688 48.710938 16.527344 48.65625 C 16.386719 48.613281 16.6875 46.964844 16.882812 45.976562 C 17.269531 44.019531 16.226562 45.59375 15.945312 48.699219 C 15.679688 48.746094 15.035156 48.808594 14.796875 49.027344 C 14.957031 49.859375 15.148438 49.222656 15.496094 50.019531 C 15.910156 50.976562 14.921875 52.53125 15.777344 53.683594 C 16.113281 54.125 16.132812 54.054688 16.070312 54.335938 C 15.539062 54.300781 15.210938 54.292969 14.875 54.742188 C 14.222656 51.769531 14.238281 50.335938 14.398438 47.320312 C 14.46875 45.949219 14.921875 43.871094 14.707031 43.824219 C 14.515625 43.789062 11.402344 51.804688 10.652344 53.382812 C 9.34375 52.9375 11.464844 45.992188 14.167969 42.65625 C 14.425781 41.597656 12.753906 43.738281 11.757812 44.585938 C 10.835938 45.363281 9.679688 46.390625 8.417969 46.039062 C 10.042969 44.320312 13.753906 41.109375 14.167969 40.304688 C 14.515625 39.613281 11.632812 42.445312 8.585938 41.390625 C 10.582031 40.320312 15.1875 37.96875 15.195312 36.332031 Z M 20.683594 51.410156 C 20.691406 52.144531 20.636719 52.683594 20.859375 53.425781 C 21.203125 54.550781 21.027344 54.203125 20.558594 53.816406 C 20.1875 53.398438 19.832031 53.054688 19.65625 52.566406 C 19.605469 52.230469 19.886719 52.203125 20.683594 51.410156 Z M 28.042969 33.339844 C 27.601562 32.578125 28.574219 31.855469 28.574219 31.855469 C 28.546875 33.988281 31.269531 32.527344 32.691406 33.199219 C 33.035156 33.359375 33.273438 33.660156 33.417969 33.976562 C 31.886719 32.917969 29.058594 35.074219 28.042969 33.339844 Z M 12.023438 16.289062 C 9.59375 16.289062 9.644531 12.636719 12.023438 12.636719 C 14.40625 12.636719 14.40625 16.289062 12.023438 16.289062 Z M 12.023438 23.582031 C 9.539062 23.582031 9.539062 19.9375 12.023438 19.9375 C 14.40625 19.9375 14.425781 23.582031 12.023438 23.582031 Z M 16.636719 15.707031 L 14.515625 15.707031 L 14.515625 13.617188 L 16.636719 13.617188 Z M 16.636719 22.980469 L 14.515625 22.980469 L 14.515625 20.890625 L 16.636719 20.890625 Z M 33.761719 26.570312 C 33.761719 26.570312 31.542969 25.367188 28.9375 25.191406 C 26.417969 25.023438 21.328125 27.039062 17.421875 26.777344 L 17.421875 9.59375 C 17.421875 9.59375 21.875 10.1875 23.703125 9.476562 C 29.925781 7.070312 33.75 9.761719 33.75 9.761719 L 33.75 26.570312 Z M 38.054688 29.367188 C 38.160156 30.015625 37.558594 30.183594 37.558594 30.183594 C 38.496094 30.402344 38.9375 29.847656 39.125 29.492188 C 39.488281 30.988281 37.976562 31.066406 37.507812 31.15625 C 37.507812 31.15625 38.265625 31.375 38.3125 31.871094 C 38.410156 33.136719 39.222656 33.03125 39.398438 32.925781 C 39.371094 33.074219 39.117188 33.835938 38.207031 33.15625 C 38.054688 33.304688 38.453125 33.542969 38.53125 34.171875 C 38.636719 34.96875 38.613281 35.703125 39.523438 36.179688 C 38.964844 36.625 38.304688 35.464844 38.242188 35.605469 C 38.179688 35.765625 39.019531 36.191406 38.089844 38.382812 C 37.667969 38.136719 37.90625 38.191406 37.410156 37.605469 C 37.03125 37.285156 36.890625 37.214844 37.199219 37.738281 C 37.746094 38.417969 37.878906 39.996094 37.683594 40.410156 C 37.234375 40.214844 37.347656 39.851562 36.816406 39.355469 C 36.765625 39.570312 36.984375 40.605469 37.535156 41.101562 C 38.488281 41.957031 38.824219 43.003906 38.84375 43.207031 C 38.921875 43.984375 38.675781 45.019531 38.578125 46.019531 C 38.117188 45.957031 37.726562 44.65625 37.621094 44.726562 C 37.488281 44.816406 37.675781 46.003906 38.542969 46.808594 C 38.957031 48.027344 38.789062 48.683594 38.683594 48.726562 C 38.53125 48.789062 38.074219 47.480469 37.816406 47.710938 C 39.046875 50.832031 38.1875 51.914062 37.859375 52.878906 C 37.605469 51.894531 37.480469 51.152344 37.164062 50.035156 C 36.492188 50.558594 36.332031 51.335938 35.519531 52.054688 C 35.519531 50.78125 34.785156 47.710938 34.203125 46.992188 C 34.175781 46.957031 33.152344 49.746094 32.683594 50.984375 C 32.074219 52.59375 31.984375 54.601562 32.683594 56.167969 C 31.171875 54.007812 31.003906 50 32.3125 49.460938 C 32.425781 49.179688 32.230469 48.230469 31.941406 48.347656 C 31.859375 48.808594 31.914062 49.207031 31.535156 49.65625 C 30.535156 49.363281 30.984375 48.132812 31.074219 47.738281 C 32.375 46.179688 31.558594 45.816406 31.5 45.859375 C 31.355469 46.214844 31.234375 46.65625 30.835938 46.816406 C 30.003906 45.382812 30.535156 43.125 32.117188 41.445312 C 32.1875 40.816406 31.410156 41.914062 30.90625 41.878906 C 30.773438 40.667969 31.214844 38.570312 33.453125 38.492188 C 33.027344 38.367188 32.796875 38.285156 32.691406 37.933594 C 33.363281 37.835938 35.484375 37.667969 35.140625 35.996094 C 34.9375 36.199219 34.875 36.5 34.328125 36.835938 C 33.957031 37.066406 33.546875 37.082031 33.335938 36.757812 C 34.316406 36.429688 34 35.234375 32.710938 35.589844 C 32.320312 35.695312 31.738281 35.289062 31.710938 34.828125 C 31.992188 35.109375 32.578125 34.898438 32.914062 34.6875 C 34.351562 33.746094 35.238281 35.109375 35.429688 35.402344 C 35.492188 35.402344 36.074219 34.039062 34.027344 33.675781 C 33.859375 33.199219 33.390625 32.351562 31.992188 32.457031 C 31.535156 30.835938 30.144531 31.632812 30.191406 32.367188 C 28.714844 31.277344 30.21875 29.90625 30.808594 29.695312 C 31.222656 29.730469 31.128906 31.039062 31.851562 30.820312 C 32.027344 30.765625 31.285156 29.917969 31.570312 29.535156 C 32.230469 29.15625 32.222656 30.023438 32.550781 29.703125 C 32.710938 29.136719 33.363281 28.820312 33.902344 28.757812 C 35.441406 28.527344 36.613281 30.183594 38.054688 29.367188 Z M 51.621094 26.835938 C 48.351562 27.058594 41.554688 25.191406 39.832031 25.191406 C 36.269531 25.191406 34.546875 26.582031 34.546875 26.582031 C 34.546875 26.582031 34.554688 10.390625 34.546875 9.804688 C 34.546875 9.804688 39.230469 7.609375 42.632812 8.867188 C 46.804688 10.40625 51.621094 9.726562 51.621094 9.726562 Z M 55.933594 20.226562 C 57.734375 19.960938 58.007812 22.09375 58.007812 22.09375 C 57.566406 21.742188 56.675781 21.582031 56.066406 21.972656 C 54.050781 23.273438 52.230469 23.28125 52.230469 23.28125 L 52.230469 20.023438 C 52.230469 20.023438 52.609375 20.714844 55.933594 20.226562 Z M 58.0625 15.769531 C 58.042969 15.671875 58.027344 15.519531 58 15.316406 C 57.957031 14.988281 57.019531 14.804688 56.367188 15.097656 C 55.445312 15.503906 53.132812 16.820312 52.292969 16.574219 L 52.292969 13.316406 C 54.367188 14.21875 55.179688 13.40625 55.851562 13.40625 C 57.902344 13.40625 58.007812 15.328125 58.007812 15.328125 C 58.035156 15.519531 58.054688 15.671875 58.0625 15.769531 Z M 55.738281 49.515625 C 55.128906 49.675781 53.527344 50.3125 53.140625 50.949219 C 53.34375 47.480469 52.230469 44.074219 51.867188 43.25 C 51.167969 41.648438 52.175781 46.984375 52.246094 48.214844 C 52.246094 48.265625 46.496094 40.808594 49.96875 46.550781 C 50.867188 48.039062 52.273438 49.011719 52.273438 49.035156 C 52.300781 50.074219 52.230469 50.832031 52.035156 51.390625 C 51.683594 51.671875 44.207031 41.429688 48.332031 48.523438 C 48.84375 49.398438 51.839844 52.0625 51.824219 52.125 C 51.628906 52.53125 51.292969 53.117188 50.832031 53.550781 C 50.753906 53.46875 49.109375 52.257812 49.09375 52.179688 C 48.96875 51.382812 48.960938 50.636719 47.988281 51.195312 C 47.988281 51.195312 44.304688 46.90625 46.007812 49.914062 C 46.75 51.230469 47.246094 51.371094 47.441406 51.613281 C 47.441406 51.613281 46.867188 52.390625 46.6875 53.214844 C 46.617188 53.539062 43.488281 49.746094 44.71875 52.132812 C 45.105469 52.894531 46.539062 53.734375 46.519531 53.789062 C 46.371094 54.285156 46.230469 54.769531 46.070312 55.082031 C 45.875 55.476562 43.136719 57.664062 43.136719 57.664062 C 43.136719 57.664062 43.675781 55.929688 44.832031 55.082031 C 45.496094 54.59375 45.496094 54.699219 45.9375 54.425781 C 45.929688 54.167969 45.679688 53.753906 45.363281 53.636719 C 44.964844 53.496094 43.667969 53.734375 43.667969 53.734375 C 43.789062 53.089844 43.214844 51.683594 43.226562 50.144531 C 42.738281 50.1875 41.882812 50.949219 41.667969 51.371094 C 41.519531 53.921875 40.960938 53.160156 40.449219 55 C 39.882812 54.230469 40.484375 53.125 39.9375 52.40625 C 39.175781 51.417969 39.0625 50.746094 38.949219 49.53125 C 39.125 49.433594 39.902344 48.578125 39.195312 46.773438 C 39.082031 43.941406 40.34375 42.859375 38.082031 40.886719 C 38.265625 40.824219 38.410156 39.410156 38.410156 39.410156 C 40.070312 40.296875 39.742188 38.382812 40.386719 38.003906 C 41.414062 37.402344 41.226562 36.78125 40.769531 36.011719 C 43.710938 36.851562 40.636719 38.863281 41.96875 38.90625 C 42.933594 38.933594 43.578125 38.695312 44.003906 38.039062 C 44.453125 37.347656 43.921875 36.933594 45.167969 35.816406 C 45.292969 35.710938 45.628906 34.960938 44.640625 34.757812 C 44.417969 34.710938 44.640625 33.863281 44.640625 33.863281 C 43.84375 34.535156 43.597656 35.480469 42.324219 34.878906 C 41.667969 34.570312 41.246094 34.871094 40.980469 35.003906 C 40.980469 35.003906 40.847656 34.472656 41.386719 34.289062 C 42.78125 33.820312 43.128906 33.261719 43.046875 32.960938 C 42.863281 32.234375 42.800781 32.960938 42.84375 32.199219 C 42.863281 31.898438 43.214844 31.484375 43.507812 31.128906 C 44.453125 29.988281 45.125 30.410156 45.363281 30.519531 C 45.910156 30.09375 46.007812 30.121094 46.519531 29.917969 C 47.394531 29.570312 49.296875 30.148438 50.355469 30.632812 C 50.867188 30.863281 51.488281 31.003906 52.078125 30.871094 C 52.070312 31.183594 51.859375 31.351562 51.636719 31.410156 C 51.3125 31.519531 50.914062 31.410156 50.941406 31.652344 C 50.957031 31.792969 51.40625 31.820312 51.691406 31.898438 C 53.261719 32.332031 55.296875 33.738281 53.960938 33.4375 C 53.800781 33.402344 54.925781 34.277344 55.773438 35.410156 L 58.769531 38.320312 C 58.628906 38.492188 57.585938 38.339844 54.253906 35.214844 C 53.777344 35.640625 58.300781 39.046875 60.164062 42.667969 C 60.007812 42.78125 57.683594 41.933594 56.84375 41.066406 C 55.550781 39.730469 54.066406 36.324219 53.457031 36.828125 C 53.386719 36.851562 55.914062 40.800781 57.160156 43.136719 C 57.789062 44.320312 58.308594 46.011719 58.355469 47.292969 C 58.558594 53.59375 57.601562 53.105469 57.613281 53.105469 C 56.136719 48.144531 55.445312 42.382812 53.300781 39.71875 C 52.449219 38.648438 55.605469 44.355469 55.738281 49.515625 Z M 49.226562 55.175781 C 48.5625 55.761719 48.128906 55.964844 48.269531 55.683594 C 48.429688 55.355469 48.554688 55.089844 48.640625 54.839844 C 48.675781 54.753906 49.226562 55.175781 49.226562 55.175781 Z M 48.792969 54.390625 C 48.941406 53.859375 48.941406 53.496094 49.003906 53.027344 C 49.03125 52.824219 49.039062 52.851562 49.046875 52.683594 C 49.046875 52.628906 50.488281 53.875 50.570312 53.929688 C 50.207031 54.382812 49.898438 54.550781 49.550781 54.867188 C 49.3125 54.664062 48.773438 54.441406 48.792969 54.390625 Z M 53.457031 55.992188 C 51.460938 57.964844 48.464844 57.246094 46.105469 58.308594 C 43.96875 59.089844 42.421875 61.070312 40.175781 61.574219 C 39.511719 61.785156 39.40625 62.113281 39.832031 62.105469 C 40.078125 62.097656 41.449219 63.53125 43.632812 62.425781 C 44.363281 62.050781 46.628906 60.789062 47.015625 60.714844 C 45.789062 61.882812 45.167969 62.9375 44.074219 63.546875 C 43.402344 63.929688 40.664062 64.902344 37.941406 64.371094 C 36.730469 64.132812 35.800781 65.253906 36.109375 65.230469 C 36.757812 65.050781 37.480469 65.140625 37.921875 65.714844 C 38.71875 66.335938 39.859375 67.113281 40.847656 65.953125 C 41.175781 65.574219 42.738281 64.761719 44.214844 66.253906 C 42.652344 66.175781 42.800781 68.988281 39.839844 68.660156 C 38.746094 68.652344 36.316406 66.140625 35.625 66.917969 C 34.398438 68.300781 38.257812 69.609375 36.589844 71.34375 C 35.078125 72.910156 33.273438 70.09375 33.273438 70.09375 C 34.21875 70.492188 35.953125 70.75 35.191406 69.210938 C 34.890625 68.601562 34.308594 68.050781 34.308594 66.925781 C 34.175781 66.371094 30.722656 71.386719 28.433594 69.121094 C 27.53125 68.226562 25.710938 66.28125 24.066406 65.539062 C 28.433594 65.167969 29.09375 66.917969 29.308594 67.191406 C 30.703125 69.078125 31.992188 67.167969 32.292969 66.832031 C 32.746094 66.308594 33.390625 65.601562 33.160156 65.496094 C 31.464844 64.6875 29.535156 64.519531 28.085938 65.183594 C 31.179688 60.929688 33.582031 64.910156 33.582031 64.910156 C 33.917969 65.121094 33.496094 62.390625 30.4375 62.238281 C 28.527344 62.140625 26.851562 63.867188 25.523438 63.867188 C 24.457031 63.867188 21.203125 61.671875 20.445312 59.714844 C 22.335938 61.132812 24.746094 61.945312 26.25 61.042969 C 29.078125 59.355469 32.628906 61.902344 32.796875 61.59375 C 32.011719 60.972656 30.207031 58.566406 25.355469 59.9375 C 23.472656 61.015625 22.679688 59.132812 21.53125 59.105469 C 23.492188 57.363281 24.863281 58.246094 25.542969 58.300781 C 25.703125 58.300781 24.71875 57.488281 24.03125 57.417969 C 18.675781 56.859375 15.273438 55.382812 15.273438 55.382812 C 15.246094 55.382812 15.726562 54.300781 18.023438 55.082031 C 18.023438 55.082031 15.953125 53.816406 15.972656 52.1875 C 16.042969 51.1875 16.519531 50.109375 15.761719 49.277344 C 18.871094 49.152344 16.660156 53.488281 18.84375 54.609375 C 18.886719 54.628906 18.199219 53.574219 19.171875 52.753906 C 19.621094 54.027344 20.734375 54.691406 21.511719 54.894531 C 21.699219 54.796875 21.917969 54.398438 21.917969 54.40625 C 21.097656 53.046875 20.992188 51.460938 21.210938 49.648438 L 21.246094 49.628906 C 21.425781 49.640625 21.726562 50.257812 21.9375 50.710938 C 22.386719 51.683594 22.378906 53.089844 23.28125 54.25 C 23.785156 54.886719 24.09375 55.523438 24.542969 55.832031 C 24.738281 55.382812 24.597656 54.601562 24.5625 54.398438 C 24.457031 53.664062 23.996094 52.371094 25.257812 51.230469 C 25.851562 52.929688 26.648438 52.445312 26.761719 53.257812 C 26.914062 54.398438 26.859375 54.222656 26.746094 55.097656 C 26.804688 56.308594 27.902344 56.644531 28.875 57.425781 C 31.074219 58.621094 32.53125 59.273438 33.488281 60.804688 C 33.957031 58.210938 26.972656 57.699219 27.875 52.699219 C 27.777344 50.710938 28.121094 50.542969 26.707031 49.320312 C 29.511719 49.398438 31.039062 54 31.1875 54.839844 C 31.472656 56.382812 32.410156 56.460938 33.691406 58.476562 C 33.875 58.546875 31.390625 53.117188 34.351562 48.472656 C 34.351562 48.472656 35.351562 50.886719 34.882812 52.46875 C 34.601562 53.425781 34.867188 54.480469 34.917969 55.082031 C 34.972656 55.691406 34.792969 52.878906 36.90625 51.425781 C 37.039062 52.488281 38.054688 54.140625 37.09375 55.902344 C 35.917969 58.054688 35.828125 57.285156 35.8125 59.921875 C 35.917969 59.875 36.21875 58.097656 37.03125 57.089844 C 38.734375 54.957031 37.515625 53.816406 39.175781 51.964844 C 39.308594 52.886719 39.550781 52.523438 39.644531 53.347656 C 39.867188 55.195312 37.941406 57.210938 38.375 57.152344 C 38.859375 57.078125 39.644531 56.65625 39.910156 55.257812 C 39.910156 55.257812 40.617188 56.53125 39.972656 56.964844 C 38.796875 57.734375 38.550781 58.566406 38.734375 59.503906 C 39.679688 58.378906 40.960938 57.132812 40.742188 55.523438 C 40.847656 54.558594 41.898438 54.160156 42.101562 51.914062 C 42.136719 51.542969 42.507812 51.089844 42.878906 50.886719 C 42.722656 52.152344 43.703125 53.460938 42.578125 55 C 42.835938 55.132812 43.773438 53.796875 45.152344 54.285156 C 42.386719 54.78125 43.191406 57.789062 41.078125 59.167969 C 40.441406 59.582031 40.546875 60.054688 40.351562 60.105469 C 42.242188 60 43.703125 57.742188 43.957031 57.566406 C 45.859375 56.273438 46.273438 56.078125 47.035156 53.992188 C 47.335938 53.195312 47.113281 52.851562 48.164062 51.78125 C 48.625 52.832031 47.953125 55.027344 47.792969 55.496094 C 47.449219 56.503906 46.257812 57.371094 46.511719 57.371094 C 51.609375 55.117188 51.550781 53.601562 52.769531 51.992188 C 53.132812 51.371094 54.953125 50.300781 55.625 50.203125 C 55.457031 50.542969 54.75 51.109375 54.722656 51.71875 C 54.660156 52.839844 54.296875 53.53125 53.722656 54.441406 C 54.042969 54.839844 54.652344 53.699219 55.269531 54.273438 C 54.464844 54.539062 54.09375 55.453125 53.457031 55.992188 Z M 54.304688 55.699219 C 54.007812 57.1875 53.492188 58.566406 52.601562 59.847656 C 51.972656 60.761719 51.71875 58.992188 52.257812 57.285156 C 53.023438 56.972656 53.792969 56.371094 54.304688 55.699219 Z M 50.425781 17.964844 C 50.3125 17.917969 50.066406 17.875 49.90625 17.875 C 49.746094 17.875 49.667969 18.09375 49.863281 18.148438 C 49.984375 18.183594 50.214844 18.21875 50.4375 18.238281 C 50.585938 18.246094 50.542969 18.007812 50.425781 17.964844 Z M 49.851562 18.679688 C 49.976562 18.714844 50.195312 18.75 50.425781 18.769531 C 50.570312 18.785156 50.523438 18.546875 50.410156 18.503906 C 50.292969 18.457031 50.046875 18.414062 49.898438 18.414062 C 49.730469 18.40625 49.660156 18.617188 49.851562 18.679688 Z M 49.851562 21.925781 C 49.738281 21.792969 49.4375 21.546875 49.164062 21.351562 C 49.003906 21.484375 48.6875 21.714844 48.484375 21.820312 C 48.332031 21.652344 48.128906 21.414062 47.820312 21.164062 C 47.632812 21.289062 47.09375 21.785156 46.875 21.910156 C 47.203125 21.917969 47.6875 22.023438 47.707031 22.332031 C 47.714844 22.582031 47.6875 24.121094 47.707031 24.40625 C 47.910156 24.449219 48.136719 24.429688 48.429688 24.414062 C 48.449219 24.191406 48.4375 22.421875 48.449219 22.210938 C 48.542969 22.15625 48.660156 22.105469 48.710938 22.050781 C 48.828125 22.128906 49.164062 22.527344 49.367188 22.632812 C 49.5 22.527344 49.863281 22.21875 50.011719 22.070312 C 50.171875 21.898438 49.992188 21.792969 49.851562 21.925781 Z M 48.953125 19.34375 C 49.136719 19.007812 49.410156 18.457031 49.394531 18.042969 C 49.367188 17.53125 49.058594 16.777344 48.304688 16.519531 C 47.359375 16.855469 46.769531 17.609375 46.742188 18.492188 C 46.722656 19.015625 47.167969 20.078125 48.078125 20.085938 C 48.359375 19.828125 48.660156 19.539062 48.953125 19.34375 Z M 48.375 19.546875 C 48.199219 19.457031 47.5625 18.960938 47.414062 18.582031 C 47.21875 18.070312 47.21875 17.503906 47.765625 17.175781 C 48.191406 17.335938 48.6875 17.75 48.730469 18.132812 C 48.785156 18.636719 48.640625 19.21875 48.375 19.546875 Z M 48.351562 15.589844 L 49.03125 14.847656 C 49.03125 14.847656 48.730469 14.609375 48.542969 14.386719 C 48.542969 14.230469 48.542969 12.734375 48.605469 12.652344 C 48.09375 12.195312 47.722656 12.140625 47.503906 12.167969 C 47.085938 12.230469 46.664062 12.761719 46.53125 12.945312 C 46.433594 13.085938 46.460938 13.265625 46.53125 13.328125 C 46.609375 13.398438 46.714844 13.460938 46.832031 13.53125 C 46.8125 13.519531 46.796875 13.503906 46.777344 13.496094 C 46.582031 13.679688 46.300781 14.203125 46.308594 14.566406 C 46.308594 14.929688 46.636719 15.449219 46.855469 15.644531 C 47.09375 15.460938 47.457031 15.148438 47.980469 15.042969 C 48.03125 15.300781 48.15625 15.449219 48.351562 15.589844 Z M 47.945312 13.867188 C 47.609375 13.742188 46.945312 13.433594 46.707031 13.238281 C 46.644531 13.183594 46.636719 13.160156 46.714844 13.035156 C 46.867188 12.804688 47.042969 12.609375 47.167969 12.617188 C 47.273438 12.617188 47.945312 12.980469 47.925781 13.167969 C 47.933594 13.300781 47.945312 13.582031 47.945312 13.867188 Z M 47.945312 14.882812 C 47.765625 14.894531 47.617188 14.9375 47.394531 15.042969 C 47.210938 14.894531 46.734375 14.316406 47.085938 13.671875 C 47.035156 13.644531 46.988281 13.617188 46.9375 13.582031 C 47.261719 13.769531 47.632812 13.917969 47.933594 14.015625 C 47.933594 14.273438 47.925781 14.503906 47.925781 14.59375 C 47.925781 14.707031 47.933594 14.796875 47.945312 14.882812 Z M 45.980469 11.8125 C 45.824219 11.8125 44.746094 11.839844 44.71875 11.777344 C 44.640625 11.546875 44.621094 11.265625 44.808594 10.875 C 44.894531 10.679688 44.71875 10.601562 44.648438 10.796875 C 44.578125 10.992188 44.039062 11.734375 43.480469 11.972656 C 43.191406 12.089844 43.835938 12.351562 43.789062 12.34375 C 43.789062 13.0625 43.886719 14.140625 44.046875 14.574219 C 44.144531 14.832031 44.4375 15.246094 44.640625 15.121094 C 44.769531 15.042969 45.054688 14.476562 45.140625 14.40625 C 45.300781 14.28125 45.140625 14.0625 45.019531 14.195312 C 44.878906 14.316406 44.753906 14.121094 44.710938 13.988281 C 44.664062 13.867188 44.53125 12.28125 44.59375 12.246094 C 44.59375 12.246094 45.867188 12.097656 46 12.097656 C 46.070312 12.089844 46.078125 11.8125 45.980469 11.8125 Z M 42.484375 14.722656 L 43.011719 14.042969 C 42.632812 13.980469 42.472656 13.910156 42.207031 13.601562 L 42.21875 11.902344 L 41.679688 11.363281 L 41.492188 11.378906 L 40.644531 12.125 C 40.554688 12.257812 40.785156 12.257812 40.902344 12.097656 L 41.511719 12.449219 L 41.539062 14.097656 C 41.582031 14.292969 41.75 14.484375 41.988281 14.726562 L 42.484375 14.726562 Z M 42.023438 10.945312 L 42.316406 10.691406 L 42.316406 10.273438 L 41.917969 9.882812 L 41.519531 10.222656 L 41.527344 10.699219 L 41.777344 10.945312 Z M 40.671875 10.425781 C 40.441406 10.398438 39.699219 10.460938 39.425781 10.503906 C 39.152344 10.546875 39.152344 10.679688 39.382812 10.707031 C 39.601562 10.734375 39.644531 10.777344 39.769531 11.078125 C 39.875 11.378906 39.335938 12.761719 39.203125 13.085938 C 39.046875 12.847656 38.472656 11.59375 38.472656 11.414062 C 38.472656 11.292969 38.726562 11.167969 38.832031 11.140625 C 39.046875 11.078125 39.035156 10.929688 38.878906 10.902344 C 38.425781 10.839844 36.855469 10.699219 36.570312 10.664062 C 36.367188 10.644531 36.277344 10.875 36.519531 10.875 C 36.773438 10.882812 37.03125 10.804688 37.3125 11.210938 C 37.632812 11.671875 38.628906 13.820312 38.867188 14.722656 C 38.984375 14.53125 39.980469 11.636719 40.042969 11.328125 C 40.113281 11.027344 40.328125 10.734375 40.617188 10.644531 C 40.925781 10.574219 40.902344 10.441406 40.671875 10.425781 Z M 35.933594 17.433594 C 35.953125 18.636719 36.429688 18.742188 36.976562 19.050781 C 37.5 19.34375 38.363281 19.289062 39.019531 19.113281 C 39.265625 19.042969 39.398438 19.023438 39.390625 19.238281 C 39.390625 19.371094 39.574219 19.34375 39.574219 19.246094 C 39.574219 19.148438 39.585938 18.140625 39.585938 18.023438 C 39.585938 17.902344 39.398438 17.917969 39.398438 18.023438 C 39.398438 18.191406 39.398438 18.246094 39.230469 18.484375 C 38.78125 19.148438 37.65625 19.121094 37.058594 18.308594 C 36.855469 18.035156 36.660156 17.664062 36.898438 17.589844 C 37.136719 17.519531 37.859375 17.671875 38.339844 17.707031 C 38.621094 17.722656 39.285156 17.792969 39.371094 17.839844 C 39.441406 17.890625 39.558594 17.964844 39.558594 17.820312 C 39.566406 17.679688 39.566406 17.210938 39.566406 17.070312 C 39.566406 16.929688 39.460938 17 39.382812 17.042969 C 39.300781 17.097656 38.59375 17.21875 38.3125 17.265625 C 38.027344 17.316406 37.152344 17.386719 36.925781 17.308594 C 36.6875 17.230469 36.765625 16.757812 36.976562 16.484375 C 37.585938 15.679688 38.816406 15.734375 39.265625 16.40625 C 39.417969 16.636719 39.417969 16.699219 39.417969 16.867188 C 39.417969 16.972656 39.59375 16.980469 39.59375 16.867188 C 39.601562 16.75 39.609375 15.53125 39.609375 15.433594 C 39.609375 15.335938 39.433594 15.300781 39.433594 15.433594 C 39.433594 15.519531 39.238281 15.574219 39.046875 15.519531 C 38.664062 15.398438 37.550781 15.574219 37.058594 15.847656 C 36.605469 16.113281 35.925781 16.699219 35.933594 17.433594 Z M 36.148438 19.566406 C 36.164062 19.910156 36.289062 22.855469 36.253906 23.261719 C 36.226562 23.492188 36.542969 23.742188 36.828125 23.933594 C 36.96875 23.765625 37.269531 23.324219 37.515625 23.140625 C 37.667969 23.015625 37.558594 22.933594 37.445312 22.980469 C 37.226562 23.085938 36.996094 23.007812 36.96875 22.742188 C 36.949219 22.484375 36.949219 19.945312 36.96875 19.582031 C 36.800781 19.589844 36.316406 19.582031 36.148438 19.566406 Z M 38.578125 21.980469 C 38.382812 22.164062 38.027344 22.644531 38.039062 22.996094 C 38.046875 23.359375 38.214844 23.707031 38.425781 23.898438 C 38.78125 23.652344 39.011719 23.308594 39.601562 23.078125 C 39.671875 23.351562 39.867188 23.394531 40.105469 23.574219 C 40.246094 23.421875 40.75 22.804688 40.855469 22.6875 C 40.972656 22.582031 40.902344 22.476562 40.742188 22.582031 C 40.582031 22.6875 40.476562 22.625 40.210938 22.332031 C 40.21875 22.175781 40.195312 20.910156 40.253906 20.839844 C 40.015625 20.582031 39.789062 20.21875 39.503906 20.246094 C 39.089844 20.28125 38.558594 21.007812 38.425781 21.191406 C 38.320312 21.324219 38.433594 21.847656 38.507812 21.917969 C 38.542969 21.953125 38.550781 21.953125 38.578125 21.980469 Z M 38.867188 22.183594 C 39.097656 22.316406 39.214844 22.238281 39.574219 22.191406 C 39.574219 22.421875 39.566406 22.625 39.566406 22.730469 C 39.40625 22.847656 39.214844 22.945312 38.984375 23.058594 C 38.816406 22.917969 38.550781 22.792969 38.867188 22.183594 Z M 38.683594 21.140625 C 38.832031 20.910156 38.929688 20.863281 39.054688 20.863281 C 39.160156 20.875 39.585938 21.164062 39.566406 21.359375 C 39.585938 21.484375 39.59375 21.75 39.59375 22.023438 C 39.273438 22.058594 39.054688 22.09375 38.699219 21.804688 C 38.621094 21.742188 38.601562 21.261719 38.683594 21.140625 Z M 41.226562 20.671875 C 40.960938 20.804688 41.589844 21.050781 41.546875 21.042969 C 41.539062 21.757812 41.394531 22.925781 41.644531 23.289062 C 41.792969 23.519531 42.136719 23.660156 42.367188 23.574219 C 42.589844 23.484375 42.871094 23.042969 42.960938 22.972656 C 43.128906 22.847656 42.988281 22.714844 42.84375 22.847656 C 42.710938 22.972656 42.339844 22.882812 42.289062 22.757812 C 42.253906 22.625 42.199219 21.070312 42.269531 21.035156 C 42.269531 21.035156 42.710938 21.023438 42.835938 21.023438 C 42.933594 21.023438 42.933594 20.742188 42.84375 20.742188 C 42.6875 20.742188 42.324219 20.707031 42.304688 20.644531 C 42.253906 20.492188 42.316406 20.023438 42.410156 19.828125 C 42.507812 19.636719 42.324219 19.546875 42.253906 19.742188 C 42.164062 19.953125 41.703125 20.441406 41.226562 20.671875 Z M 41.359375 17.433594 C 41.386719 18.105469 41.035156 18.8125 40.652344 19.140625 C 41.316406 18.972656 41.394531 18.574219 41.757812 18.113281 C 41.960938 18.40625 42.324219 18.769531 42.597656 18.917969 C 42.792969 18.792969 43.332031 18.183594 43.445312 18.058594 C 43.058594 17.953125 42.304688 17.554688 42.121094 17.140625 C 41.96875 16.832031 42.003906 16.679688 42.15625 16.433594 C 42.289062 16.609375 43.199219 17.023438 43.613281 16.324219 C 43.164062 16.15625 42.757812 15.867188 42.625 15.628906 C 42.5 15.722656 42.101562 16.167969 41.871094 16.300781 C 41.820312 16.0625 41.449219 15.796875 41.148438 15.742188 C 41.050781 15.847656 40.34375 16.386719 40.027344 16.539062 C 39.929688 16.582031 39.964844 16.804688 40.105469 16.75 C 40.238281 16.699219 40.449219 16.53125 40.707031 16.40625 C 41 16.53125 41.324219 16.820312 41.359375 17.433594 Z M 44.515625 17.546875 C 44.59375 17.140625 44.886719 16.972656 45.011719 16.847656 C 45.195312 17.050781 45.382812 17.289062 45.664062 17.289062 C 45.9375 17.289062 46.21875 17.167969 46.308594 17.050781 C 46.078125 16.867188 45.566406 16.324219 45.46875 16.230469 C 45.214844 16.371094 44.082031 16.964844 43.984375 17.644531 C 43.84375 18.644531 44.160156 18.847656 44.605469 19.394531 C 44.851562 19.707031 45.265625 19.722656 45.453125 19.671875 C 45.65625 19.527344 46.398438 18.828125 46.476562 18.742188 C 46.546875 18.652344 46.441406 18.574219 46.351562 18.660156 C 46.265625 18.75 46.300781 18.785156 46.175781 18.804688 C 46.054688 18.820312 45.550781 18.910156 45.257812 18.757812 C 44.886719 18.546875 44.410156 18.09375 44.515625 17.546875 Z M 43.957031 20.742188 C 43.789062 20.910156 43.5 21.105469 43.226562 21.414062 C 43.453125 21.429688 43.640625 21.476562 43.746094 21.695312 C 43.859375 21.910156 43.765625 22.820312 43.78125 23.175781 C 43.800781 23.511719 44.003906 23.589844 44.277344 23.863281 C 44.542969 23.792969 45.292969 23.484375 45.550781 23.308594 C 45.523438 23.589844 45.875 23.898438 46.089844 23.960938 C 46.230469 23.8125 46.378906 23.722656 46.582031 23.539062 C 46.378906 23.40625 46.40625 23.386719 46.335938 23.121094 C 46.273438 22.863281 46.351562 21.890625 46.351562 21.476562 C 46.195312 21.238281 45.9375 20.945312 45.664062 20.75 C 45.476562 20.917969 45.222656 21.148438 44.921875 21.464844 C 45.140625 21.441406 45.574219 21.527344 45.601562 21.714844 C 45.621094 21.953125 45.65625 22.484375 45.601562 22.890625 C 45.550781 23.308594 44.445312 23.113281 44.425781 22.839844 C 44.398438 22.554688 44.480469 21.730469 44.488281 21.34375 C 44.347656 21.085938 44.25 20.953125 43.957031 20.742188 Z M 36.613281 30.714844 L 36.613281 30.667969 C 35.980469 30.582031 35.476562 30.128906 34.882812 29.90625 C 34.070312 29.597656 33.210938 30.226562 33.210938 30.324219 C 33.210938 30.542969 33.441406 30.652344 34.097656 30.242188 C 33.582031 30.835938 34.167969 31.324219 34.167969 31.324219 C 33.957031 31.289062 33.644531 31.21875 33.453125 31.109375 C 33.417969 31.324219 33.707031 31.402344 33.847656 31.5 C 34.945312 31.941406 35.660156 30.898438 36.613281 30.714844 Z M 34.777344 31.261719 C 34.777344 31.261719 35.070312 30.953125 35.070312 30.722656 C 35.070312 30.421875 34.785156 30.199219 34.785156 30.199219 C 35.03125 30.269531 35.617188 30.597656 35.820312 30.738281 Z M 28.820312 23.015625 L 29.128906 22.671875 C 28.777344 22.609375 28.945312 22.609375 28.757812 22.441406 L 28.75 21.007812 L 28.289062 20.335938 L 28.113281 20.359375 L 27.398438 21.035156 C 27.210938 21.203125 27.378906 21.28125 27.59375 21.09375 L 28.070312 21.34375 L 28.078125 22.855469 C 28.113281 23.042969 28.28125 23.085938 28.511719 23.324219 Z M 28.980469 18.035156 C 29.21875 18.722656 29.792969 18.9375 30.21875 18.972656 C 30.339844 18.734375 30.578125 18.378906 30.703125 18.210938 C 30.898438 17.953125 30.703125 17.804688 30.5625 18.09375 C 30.457031 18.316406 29.90625 18.078125 29.714844 17.882812 C 29.449219 17.636719 29.28125 16.980469 29.492188 16.75 C 29.703125 16.519531 30.015625 16.625 30.410156 16.609375 C 30.675781 16.601562 30.730469 16.351562 30.773438 16.230469 C 30.648438 16.167969 30.457031 16.0625 30.207031 15.910156 C 29.953125 16.078125 29.554688 16.414062 29.386719 16.554688 C 29.175781 16.742188 28.742188 17.371094 28.980469 18.035156 Z M 30.015625 21.8125 C 29.757812 22.078125 29.5625 22.371094 29.5625 22.742188 C 29.570312 23.09375 29.695312 23.449219 30.050781 23.609375 C 30.367188 23.367188 30.773438 23.085938 31.171875 23.015625 C 31.367188 23.246094 31.65625 23.40625 31.84375 23.546875 C 31.96875 23.394531 32.355469 23.078125 32.46875 22.980469 C 32.578125 22.875 32.46875 22.722656 32.363281 22.863281 C 32.285156 22.988281 32.003906 22.898438 31.921875 22.765625 C 31.921875 22.617188 31.78125 21.035156 31.84375 20.953125 C 31.613281 20.695312 31.214844 20.121094 30.949219 20.148438 C 30.5625 20.183594 29.988281 20.742188 29.863281 20.917969 C 29.765625 21.050781 29.890625 21.707031 29.96875 21.769531 C 29.988281 21.792969 29.996094 21.792969 30.015625 21.8125 Z M 31.03125 21.953125 C 30.738281 21.960938 30.492188 21.875 30.171875 21.589844 C 30.109375 21.539062 30.058594 21.175781 30.128906 21.058594 C 30.269531 20.839844 30.269531 20.769531 30.394531 20.769531 C 30.492188 20.769531 31.074219 21.121094 31.046875 21.316406 C 31.054688 21.449219 31.046875 21.707031 31.03125 21.953125 Z M 30.253906 22.007812 C 30.515625 22.183594 30.675781 22.164062 31.011719 22.128906 C 30.996094 22.316406 30.984375 22.484375 30.984375 22.554688 C 30.984375 22.632812 31.019531 22.695312 31.039062 22.765625 C 30.863281 22.828125 30.640625 22.863281 30.472656 22.953125 C 30.324219 22.820312 29.75 22.429688 30.253906 22.007812 Z M 32.453125 19.058594 L 32.769531 18.714844 C 32.410156 18.644531 32.410156 18.671875 32.222656 18.503906 L 32.242188 16.847656 L 31.929688 16.386719 L 31.761719 16.40625 L 31.046875 17.070312 C 30.851562 17.246094 31.03125 17.324219 31.242188 17.132812 L 31.613281 17.359375 L 31.632812 18.917969 C 31.667969 19.105469 31.835938 19.167969 32.0625 19.40625 Z M 31.894531 13.265625 C 31.746094 13.253906 31.523438 13.53125 32.390625 13.617188 C 32.523438 13.636719 32.699219 13.316406 31.894531 13.265625 Z M 31.90625 12.75 C 31.761719 12.742188 31.542969 13.140625 32.398438 13.105469 C 32.53125 13.097656 32.636719 12.785156 31.90625 12.75 Z M 32.074219 15.351562 L 31.703125 14.972656 L 31.332031 15.308594 L 31.339844 15.769531 L 31.570312 16 L 31.800781 16 L 32.074219 15.75 Z M 31.3125 11.804688 C 31.066406 11.628906 30.792969 11.210938 30.183594 11.183594 C 29.570312 11.160156 28.882812 11.714844 28.660156 12.0625 C 28.363281 12.519531 28.734375 12.917969 29.113281 13.21875 C 28.863281 13.433594 28.519531 13.761719 28.203125 14.0625 C 28.324219 14.203125 29.023438 14.53125 29.421875 14.519531 C 30.015625 14.503906 30.5625 14.203125 30.898438 13.929688 C 31.515625 13.441406 31.304688 12.917969 30.675781 12.558594 C 30.613281 12.519531 30.5625 12.511719 30.5 12.496094 C 30.890625 12.195312 31.234375 11.917969 31.3125 11.804688 Z M 29.757812 13.085938 C 29.960938 13.175781 30.171875 13.273438 30.402344 13.40625 C 30.730469 13.59375 30.5625 13.945312 30.207031 14.113281 C 29.847656 14.28125 29.199219 13.8125 29.09375 13.617188 C 29.226562 13.503906 29.484375 13.308594 29.757812 13.085938 Z M 30.410156 12.210938 C 30.359375 12.257812 30.199219 12.378906 30.03125 12.511719 C 29.933594 12.53125 29.828125 12.539062 29.730469 12.53125 C 29.421875 12.484375 29.273438 12.257812 29.128906 12.0625 C 28.980469 11.867188 29.359375 11.699219 29.554688 11.726562 C 29.738281 11.75 30.164062 11.980469 30.410156 12.210938 Z M 27.867188 13.558594 C 26.957031 13.785156 26.53125 13.0625 26.445312 12.867188 C 26.804688 12.496094 27.433594 11.875 27.8125 11.566406 C 27.566406 11.335938 27.460938 10.957031 27.007812 10.921875 C 26.621094 10.929688 25.710938 11.371094 25.550781 12.519531 C 25.402344 13.628906 26.433594 14.230469 27.257812 14.253906 C 27.53125 14.253906 27.875 13.902344 28.042969 13.8125 C 28.414062 13.636719 28.28125 13.460938 27.867188 13.558594 Z M 26.375 12.644531 C 26.144531 11.910156 26.230469 11.65625 26.691406 11.292969 C 26.796875 11.546875 27.054688 11.726562 27.203125 11.8125 C 26.949219 12.070312 26.539062 12.519531 26.375 12.644531 Z M 25.332031 11.992188 C 25.488281 11.839844 25.320312 11.726562 25.179688 11.859375 C 25.074219 11.734375 24.816406 11.46875 24.675781 11.300781 C 24.527344 11.425781 24.191406 11.628906 23.996094 11.734375 C 23.847656 11.566406 23.660156 11.566406 23.367188 11.328125 C 23.199219 11.449219 22.839844 11.726562 22.644531 11.964844 C 22.988281 12.0625 23.253906 12.089844 23.269531 12.378906 C 23.28125 12.617188 23.246094 14.113281 23.261719 14.386719 C 23.449219 14.433594 23.679688 14.40625 23.941406 14.398438 C 23.960938 14.183594 23.953125 12.308594 23.953125 12.105469 C 24.050781 12.050781 24.15625 12 24.199219 11.945312 C 24.304688 12.027344 24.527344 12.34375 24.703125 12.449219 C 24.835938 12.351562 25.179688 12.140625 25.332031 11.992188 Z M 22.46875 15.855469 C 22.070312 15.890625 21.503906 16.351562 21.335938 16.75 C 21.265625 16.910156 21.363281 17.484375 21.433594 17.546875 C 21.484375 17.589844 21.523438 17.625 21.566406 17.664062 C 21.308594 17.902344 21.0625 18.105469 21.070312 18.46875 C 21.078125 18.8125 21.355469 19.121094 21.707031 19.28125 C 21.894531 18.988281 22.191406 18.8125 22.511719 18.742188 C 22.539062 19.015625 22.601562 19.21875 22.785156 19.351562 C 22.917969 19.210938 23.429688 18.757812 23.535156 18.660156 C 23.640625 18.554688 23.5625 18.433594 23.4375 18.554688 C 23.359375 18.625 23.175781 18.519531 23.121094 18.433594 C 23.121094 18.28125 23.121094 16.699219 23.191406 16.625 C 22.953125 16.371094 22.730469 15.832031 22.46875 15.855469 Z M 22.492188 17.46875 C 22.050781 17.75 21.910156 17.742188 21.609375 17.40625 C 21.460938 17.230469 21.476562 16.902344 21.539062 16.777344 C 21.671875 16.566406 21.910156 16.34375 22.023438 16.351562 C 22.121094 16.363281 22.476562 16.785156 22.449219 16.980469 C 22.484375 17.078125 22.492188 17.265625 22.492188 17.46875 Z M 22.503906 18.265625 C 22.503906 18.351562 22.503906 18.421875 22.503906 18.503906 C 22.414062 18.519531 22.324219 18.546875 22.203125 18.601562 C 22.042969 18.46875 21.273438 18.210938 21.777344 17.8125 C 22.085938 17.988281 22.203125 17.847656 22.503906 17.671875 C 22.503906 17.925781 22.503906 18.167969 22.503906 18.265625 Z M 22.15625 14.902344 C 22.105469 14.832031 22 14.722656 22 14.582031 C 22 14.496094 22.007812 13.539062 22.007812 13.414062 C 22.007812 13.300781 21.785156 13.316406 21.785156 13.414062 C 21.777344 13.582031 21.804688 13.875 21.652344 14.105469 C 21.238281 14.75 20.433594 15.027344 19.878906 14.230469 C 19.683594 13.964844 19.640625 13.566406 19.621094 13.28125 C 19.585938 12.902344 19.867188 12.40625 19.886719 12.363281 C 20.601562 11.425781 21.59375 12.125 21.671875 12.503906 C 21.726562 12.761719 21.777344 13.070312 21.777344 13.230469 C 21.769531 13.335938 22.007812 13.328125 22.007812 13.210938 C 22.007812 13.097656 22.015625 11.65625 22.015625 11.558594 C 22.015625 11.460938 21.832031 11.433594 21.820312 11.558594 C 21.8125 11.785156 21.679688 11.804688 21.503906 11.75 C 21.140625 11.644531 20.347656 11.46875 19.878906 11.742188 C 19.472656 11.980469 18.84375 12.546875 18.851562 13.253906 C 18.863281 14.421875 19.304688 14.519531 19.816406 14.839844 C 20.292969 15.121094 20.957031 14.9375 21.566406 14.761719 C 21.804688 14.699219 21.839844 14.847656 21.953125 15.015625 C 22.140625 15.28125 22.300781 15.113281 22.15625 14.902344 Z M 18.921875 16.554688 C 18.515625 17.175781 18.296875 18.148438 18.996094 18.722656 C 19.320312 19 19.59375 19.210938 20.265625 19.09375 C 20.398438 18.828125 20.460938 18.742188 20.699219 18.433594 C 20.242188 18.503906 19.878906 18.421875 19.542969 18.167969 C 18.84375 17.625 19.066406 16.75 19.269531 16.457031 C 19.648438 15.902344 20.179688 16.699219 20.277344 16.804688 C 20.398438 16.652344 20.613281 16.441406 20.824219 16.28125 C 20.621094 16.007812 20.445312 15.75 20.300781 15.582031 C 19.859375 15.742188 19.207031 16.140625 18.921875 16.554688 Z M 19.214844 21.898438 C 19.066406 23.015625 20.117188 23.667969 20.621094 23.890625 C 20.742188 23.632812 21.007812 23.21875 21.257812 22.925781 C 21.449219 22.707031 21.238281 22.644531 21.0625 22.8125 C 20.832031 23.066406 20.132812 22.820312 19.957031 22.492188 C 20.292969 22.238281 21.160156 21.511719 21.539062 21.203125 C 21.292969 20.960938 20.902344 20.378906 20.839844 20.042969 C 20.496094 20.28125 19.382812 20.75 19.214844 21.898438 Z M 20.292969 20.695312 C 20.390625 20.953125 20.71875 21.449219 20.859375 21.527344 C 20.613281 21.777344 19.992188 22.199219 19.824219 22.316406 C 19.507812 21.925781 19.339844 21.28125 20.292969 20.695312 Z M 22.582031 20.300781 C 22.359375 20.503906 22.191406 20.6875 21.875 20.945312 C 22.023438 21.113281 22.273438 21.324219 22.300781 21.617188 C 22.316406 21.910156 22.308594 23.28125 22.324219 23.625 C 22.554688 23.625 22.519531 23.652344 22.917969 23.632812 C 22.882812 23.40625 22.910156 21.625 22.910156 21.371094 C 23.058594 21.226562 23.078125 21.203125 23.253906 21.078125 C 23.378906 21.183594 23.667969 21.246094 23.667969 21.441406 C 23.667969 21.636719 23.722656 22.476562 23.660156 22.785156 C 23.582031 23.164062 23.617188 23.441406 23.820312 23.820312 C 23.976562 23.644531 24.550781 23.238281 24.683594 23.140625 C 24.808594 23.03125 24.746094 22.953125 24.589844 22.996094 C 24.421875 23.03125 24.382812 23.066406 24.382812 22.960938 C 24.382812 22.757812 24.304688 21.828125 24.289062 21.238281 C 24.269531 20.644531 23.976562 20.46875 23.808594 20.386719 C 23.640625 20.574219 23.261719 20.8125 23.03125 21.007812 C 22.855469 20.875 22.777344 20.589844 22.582031 20.300781 Z M 24.96875 18.867188 C 25.171875 18.707031 25.3125 18.441406 25.390625 18.371094 C 25.542969 18.246094 25.417969 18.113281 25.285156 18.238281 C 25.179688 18.335938 24.914062 18.105469 24.898438 18.085938 C 24.808594 17.980469 24.675781 16.625 24.738281 16.601562 C 24.738281 16.601562 25.59375 16.496094 25.710938 16.496094 C 25.796875 16.503906 25.808594 16.230469 25.71875 16.21875 C 25.578125 16.21875 24.921875 16.308594 24.898438 16.246094 C 24.863281 16.105469 24.773438 15.617188 24.984375 15.203125 C 25.082031 15.027344 24.984375 14.847656 24.914062 15.035156 C 24.835938 15.21875 24.296875 16.0625 23.953125 16.203125 C 23.667969 16.316406 23.695312 16.386719 23.882812 16.433594 C 24.023438 16.457031 24.179688 16.636719 24.144531 16.636719 C 24.121094 17.335938 24.050781 18.191406 24.261719 18.554688 C 24.421875 18.777344 24.792969 19.015625 24.96875 18.867188 Z M 27.929688 19.167969 C 27.824219 19.378906 27.65625 19.574219 27.335938 19.714844 C 27.53125 19.882812 27.777344 20.09375 27.9375 20.203125 C 28.121094 19.988281 28.300781 19.792969 28.511719 19.589844 C 28.300781 19.554688 28.050781 19.441406 27.929688 19.167969 Z M 26.566406 18.40625 C 26.839844 18.378906 27.285156 18.546875 27.769531 18.503906 C 28.351562 18.457031 28.804688 17.554688 28.554688 16.855469 C 28.324219 16.195312 27.582031 16.308594 27.078125 16.148438 C 26.621094 16.023438 26.433594 15.734375 26.929688 15.40625 C 27.523438 15.027344 28.246094 15.636719 28.316406 15.769531 C 28.421875 15.964844 28.511719 15.964844 28.511719 15.707031 C 28.527344 15.15625 28.476562 15.46875 28.421875 14.945312 C 28.40625 14.761719 28.273438 14.742188 28.253906 14.917969 C 28.246094 15.097656 28.027344 15.042969 27.859375 15.042969 C 27.691406 15.042969 27.195312 14.964844 26.769531 15.203125 C 26.496094 15.363281 25.886719 15.847656 26.230469 16.421875 C 26.433594 16.757812 27.617188 17.042969 27.917969 17.238281 C 28.21875 17.433594 28.28125 17.925781 28 18.15625 C 27.644531 18.441406 26.683594 18.203125 26.539062 18.035156 C 26.347656 17.820312 26.277344 17.644531 26.230469 17.386719 C 26.1875 17.132812 25.976562 17.15625 25.976562 17.386719 C 25.976562 17.617188 26.027344 18.421875 26.074219 18.609375 C 26.109375 18.804688 26.300781 18.742188 26.320312 18.589844 C 26.347656 18.449219 26.445312 18.414062 26.566406 18.40625 Z M 25.320312 20.890625 C 25.089844 21.058594 25.585938 21.296875 25.542969 21.28125 C 25.558594 21.980469 25.460938 22.695312 25.691406 23.050781 C 25.84375 23.273438 26.3125 23.429688 26.390625 23.21875 C 26.46875 23.007812 26.824219 22.574219 26.902344 22.503906 C 27.054688 22.371094 26.921875 22.253906 26.796875 22.378906 C 26.539062 22.652344 26.398438 22.527344 26.207031 22.34375 C 26.117188 22.238281 26.082031 21.261719 26.144531 21.238281 C 26.144531 21.238281 26.613281 21.164062 26.726562 21.164062 C 26.816406 21.164062 26.804688 20.890625 26.71875 20.890625 C 26.578125 20.890625 26.160156 20.890625 26.132812 20.828125 C 26.082031 20.695312 26.214844 20.035156 26.242188 19.742188 C 26.257812 19.539062 26.152344 19.46875 26.089844 19.660156 C 26.039062 19.867188 25.585938 20.695312 25.320312 20.890625 Z M 25.320312 20.890625 " fill-opacity="1" fill-rule="nonzero"/></svg>